<svg width="123" height="26" viewBox="0 0 123 26" fill="none" xmlns="http://www.w3.org/2000/svg">
<path d="M37.1042 0.0349731V20.8263L40.8781 20.1842V24.1681C40.8781 24.2699 40.8022 24.3571 40.6981 24.3748L36.6594 25.0605C34.3522 25.4522 32.2372 23.7419 32.2372 21.4846V1.21421C32.2372 1.01051 32.389 0.836206 32.5972 0.800829L37.1042 0.0349731Z" fill="#686868"/>
<path fill-rule="evenodd" clip-rule="evenodd" d="M76.2519 20.006C75.8659 19.537 75.5789 19.0175 75.4104 18.4286C75.4104 18.4286 88.6463 16.1777 89.9854 15.949C90.2533 15.907 90.2969 15.7958 90.2707 15.5859C90.2439 15.3627 90.2235 15.1379 90.2032 14.9129C90.1592 14.4269 90.1152 13.9402 90.005 13.4682C89.3232 10.5404 87.6547 8.31562 84.7969 7.01855C82.6493 6.0447 80.3796 5.8768 78.0751 6.35533C75.0125 6.99127 72.7428 8.64723 71.4185 11.4072C70.4318 13.464 70.2684 15.6258 70.7302 17.8274C71.3096 20.5853 72.8343 22.7072 75.4656 24.0042C77.8115 25.1586 80.3121 25.3538 82.8714 24.9172C85.9601 24.3883 88.2428 22.789 89.5977 20.0396C89.7922 19.6461 89.9379 19.2297 90.0908 18.7927L90.0909 18.7925L90.0909 18.7922L90.0918 18.7897L90.0919 18.7894C90.1593 18.5969 90.2281 18.4002 90.3031 18.2C90.3057 18.1928 90.3087 18.1845 90.3117 18.1761L90.3118 18.1757L90.312 18.1752L90.3156 18.1653C90.3179 18.1588 90.3201 18.1526 90.3222 18.147C90.3222 18.147 87.3919 18.6459 85.9318 18.8936C85.8076 18.9146 85.6486 19.007 85.5985 19.1098C85.0888 20.155 84.2829 20.9001 83.1807 21.3387C81.9021 21.8466 80.5734 21.897 79.2273 21.6619C78.0315 21.4521 77.0165 20.9337 76.2519 20.006ZM85.5789 13.0459C85.6007 13.1171 85.6232 13.1903 85.6473 13.2663L75.0822 15.0612C75.0889 14.9613 75.0937 14.8654 75.0984 14.7724L75.0985 14.7721C75.109 14.5621 75.1189 14.3668 75.1476 14.1734C75.3087 13.103 75.6224 12.0851 76.2955 11.1973C77.1341 10.0933 78.2907 9.53712 79.6782 9.37761C80.678 9.26218 81.6604 9.33984 82.6057 9.67984C84.0259 10.192 84.9037 11.2099 85.4156 12.551C85.4756 12.7094 85.5253 12.8714 85.5789 13.0459Z" fill="#686868"/>
<path fill-rule="evenodd" clip-rule="evenodd" d="M105.363 23.0408C107.3 24.5079 109.543 25.104 111.979 25.1124C113.312 25.1187 114.616 24.9424 115.871 24.4995C118.372 23.618 120.236 22.0544 121.369 19.7184C122.297 17.8064 122.532 15.8125 122.135 13.7389C121.95 12.763 121.6 11.8416 121.138 10.9685C120.874 10.4691 120.488 10.0225 120.111 9.58574L120.049 9.51401C118.971 8.26102 117.624 7.35854 116.039 6.79396C113.904 6.03419 111.715 5.91876 109.502 6.3616C107.208 6.82124 105.265 7.88954 103.813 9.68192C101.957 11.9696 101.327 14.5658 101.859 17.4139C102.288 19.71 103.458 21.5969 105.363 23.0408ZM106.294 16.1679C106.281 16.0552 106.269 15.9565 106.256 15.8776C106.3 13.8879 106.869 12.381 108.219 11.1973C109.103 10.4249 110.166 10.0156 111.343 9.91489C112.846 9.78686 114.259 10.0555 115.485 10.9622C116.664 11.8311 117.343 13.0001 117.614 14.3833C117.962 16.1693 117.644 17.8442 116.492 19.3134C115.564 20.4992 114.294 21.1267 112.765 21.303C111.706 21.4248 110.68 21.3219 109.702 20.9294C107.977 20.2389 106.945 18.9566 106.481 17.2439C106.377 16.8616 106.33 16.466 106.294 16.1679Z" fill="#686868"/>
<path d="M58.1982 25.0802L61.7973 24.5292C61.9449 24.505 62.0692 24.4095 62.1266 24.2762L67.9421 10.7653C68.0006 10.6294 68.1286 10.533 68.2795 10.511L69.3357 10.3353C69.4955 10.3074 69.6136 10.1797 69.6136 10.024L69.6136 6.11414L67.0226 6.55516C65.6408 6.77313 64.4845 7.68463 63.989 8.94653L59.8497 19.4881L54.8308 6.7569C54.7827 6.63472 54.6513 6.56261 54.5177 6.58497L50.2937 7.30128L57.8414 24.8902C57.8997 25.026 58.0478 25.1049 58.1982 25.0802Z" fill="#686868"/>
<path d="M97.2244 20.8263V0.0349731L92.7174 0.800829C92.5092 0.836206 92.3574 1.01051 92.3574 1.21421V21.4846C92.3574 23.7419 94.4724 25.4522 96.7796 25.0605L100.818 24.3748C100.922 24.3571 100.998 24.2699 100.998 24.1681V20.1842L97.2244 20.8263Z" fill="#686868"/>
<path d="M45.9206 4.74131C47.2451 4.74131 48.3188 3.70673 48.3188 2.43052C48.3188 1.1543 47.2451 0.119725 45.9206 0.119725C44.5961 0.119725 43.5224 1.1543 43.5224 2.43052C43.5224 3.70673 44.5961 4.74131 45.9206 4.74131Z" fill="#686868"/>
<path d="M43.566 7.63471C43.566 7.4871 43.6759 7.36078 43.8267 7.33504L48.2774 6.57567V24.0247C48.2774 24.1723 48.1675 24.2987 48.0166 24.3244L43.566 25.083V7.63471Z" fill="#686868"/>
<path d="M12.6335 24.8009C10.5904 24.7871 9.25892 23.9575 8.51569 22.1161C8.14615 21.2002 7.8496 20.253 7.58631 19.3023C7.45284 18.8208 7.2467 18.4213 6.9414 18.1125C6.62094 17.8183 6.20626 17.6197 5.70656 17.4911C4.71989 17.2374 3.73693 16.9516 2.7863 16.5956C0.875336 15.8794 0.0143222 14.5964 0 12.6278C0.0143222 10.6592 0.875336 9.3762 2.7863 8.66006C3.73693 8.30399 4.71989 8.01825 5.70656 7.76455C6.20626 7.63595 6.62094 7.43732 6.9414 7.14315C7.2467 6.83436 7.45284 6.43479 7.58631 5.9533C7.8496 5.00259 8.14615 4.05545 8.51569 3.13947C9.25892 1.29815 10.5904 0.468512 12.6335 0.454712C14.6766 0.468512 16.0081 1.29815 16.7513 3.13947C17.1209 4.05545 17.4174 5.00259 17.6807 5.9533C17.8142 6.43479 18.0203 6.83436 18.3256 7.14315C18.6461 7.43732 19.0608 7.63595 19.5604 7.76455C20.5471 8.01825 21.5301 8.30399 22.4807 8.66006C24.3917 9.3762 25.2527 10.6592 25.267 12.6278C25.2527 14.5964 24.3917 15.8794 22.4807 16.5956C21.5301 16.9516 20.5471 17.2374 19.5604 17.4911C19.0608 17.6197 18.6461 17.8183 18.3256 18.1125C18.0203 18.4213 17.8142 18.8208 17.6807 19.3023C17.4174 20.253 17.1209 21.2002 16.7513 22.1161C16.0081 23.9575 14.6766 24.7871 12.6335 24.8009Z" fill="#686868"/>
</svg>
