<svg width="115" height="40" viewBox="0 0 115 40" fill="none" xmlns="http://www.w3.org/2000/svg">
<path fill-rule="evenodd" clip-rule="evenodd" d="M100.447 2.08732e-05C104.46 -0.00956392 107.814 3.28301 107.824 7.35345C107.827 8.7731 107.337 10.9894 105.799 12.5562C105.258 13.1077 104.791 13.4391 104.414 13.6862C103.692 14.1637 103.169 14.4957 103.463 15.2898C103.751 16.0679 104.644 15.8243 105.491 15.6282C105.764 15.5608 111.074 14.2582 111.141 14.2548C112.569 13.9772 113.949 14.8906 114.288 16.3078C114.289 16.3122 114.719 18.1123 114.722 18.1271C115.064 19.543 114.249 20.9974 112.856 21.4167C112.802 21.4406 108.03 22.619 107.129 22.8417L106.983 22.8778C105.88 23.1657 105.236 23.7223 105.239 24.8021C105.24 25.2838 105.517 25.8063 105.856 26.2404L105.891 26.284C106.395 26.9141 112.186 34.1614 112.217 34.22C113.08 35.4065 112.865 37.0645 111.751 37.9842C111.748 37.989 110.333 39.1571 110.319 39.1681C109.208 40.0903 107.564 39.9734 106.592 38.8793C106.566 38.8572 105.57 37.6273 104.529 36.3381L104.161 35.8825C103.244 34.7466 102.376 33.6697 102.192 33.4407C101.776 32.9254 101.252 32.1375 100.525 32.1401C99.8006 32.1427 99.2797 32.9322 98.8647 33.4503C98.6334 33.7414 97.3106 35.3985 96.1801 36.8115L95.831 37.2477C95.095 38.1671 94.5122 38.8929 94.494 38.9094C93.5259 40.0086 91.8841 40.1347 90.7663 39.2188C90.7533 39.2099 89.3325 38.0432 89.3288 38.0422C88.2112 37.1263 87.9883 35.4689 88.8427 34.2804C88.8571 34.252 90.1761 32.5795 91.6056 30.7701L92.2216 29.9906C93.7267 28.0861 95.1658 26.2676 95.1658 26.2676C95.5025 25.8327 95.7771 25.3078 95.7757 24.8261C95.7719 23.7465 95.1271 23.1929 94.0226 22.9104C94.018 22.9095 92.7388 22.6008 91.3749 22.2704L90.8276 22.1377C89.4623 21.8066 88.1709 21.492 88.1431 21.4801C86.748 21.0683 85.9263 19.6176 86.2592 18.1998C86.2605 18.1926 86.3418 17.8438 86.433 17.4532L86.5119 17.1151C86.603 16.7251 86.684 16.3789 86.6849 16.3763C87.0169 14.9584 88.3926 14.0385 89.8207 14.3072C89.8872 14.3116 95.2043 15.588 95.4771 15.6532C96.3252 15.8445 97.2211 16.0849 97.5047 15.305C97.7947 14.5085 97.2698 14.1791 96.5457 13.7069C96.1684 13.4621 95.6978 13.1319 95.1554 12.5828C93.6092 11.0255 93.107 8.81052 93.1042 7.39087C93.0947 3.31943 96.4339 0.0096476 100.447 2.08732e-05ZM67.5147 12.4039C72.8975 12.4039 77.2576 16.8304 77.2576 22.2864C77.2576 27.7461 72.8975 32.1725 67.5147 32.1725C62.1356 32.1725 57.7734 27.7461 57.7734 22.2864C57.7734 16.8304 62.1356 12.4039 67.5147 12.4039ZM16.1919 13.7422C16.6953 12.5572 18.0371 12.0215 19.1555 12.5282L21.2313 13.4716C22.0652 13.7848 23.0084 15.0461 22.2082 16.5332L14.4025 30.567C13.7317 31.8052 12.5168 31.9733 12.1985 31.9733H10.3128C9.99546 31.9733 8.77965 31.8052 8.1104 30.567L0.303084 16.5332C-0.496741 15.0461 0.446678 13.7848 1.28161 13.4716L3.35761 12.5282C4.47401 12.0215 5.81665 12.5572 6.32061 13.7422L11.216 23.7307H11.2898L16.1919 13.7422ZM50.4873 13.7422C50.9913 12.5572 52.3325 12.0215 53.4497 12.5282L55.5255 13.4716C56.3607 13.7848 57.3033 15.0461 56.5043 16.5332L48.6973 30.567C48.0283 31.8052 46.8129 31.9733 46.4939 31.9733H44.6083C44.2897 31.9733 43.0751 31.8052 42.4047 30.567L34.5991 16.5332C33.7975 15.0461 34.7421 13.7848 35.5771 13.4716L37.6525 12.5282C38.7695 12.0215 40.1097 12.5572 40.6149 13.7422L45.5124 23.7307H45.5856L50.4873 13.7422ZM29.3995 12.6088C30.7007 12.6088 31.7552 13.6777 31.7552 14.9977V29.5844C31.7552 30.9044 30.7007 31.9732 29.3995 31.9732H27.4298C26.1282 31.9732 25.0759 30.9044 25.0759 29.5844V14.9977C25.0759 13.6777 26.1282 12.6088 27.4298 12.6088H29.3995ZM67.5147 18.3865C65.391 18.3865 63.6694 20.1325 63.6694 22.2864C63.6694 24.4427 65.391 26.189 67.5147 26.189C69.637 26.189 71.3602 24.4427 71.3602 22.2864C71.3602 20.1325 69.637 18.3865 67.5147 18.3865ZM28.3977 2.90576C30.5065 2.90576 32.2162 4.6384 32.2162 6.77829C32.2162 8.91837 30.5065 10.6508 28.3977 10.6508C26.289 10.6508 24.5797 8.91837 24.5797 6.77829C24.5797 4.6384 26.289 2.90576 28.3977 2.90576Z" fill="#686868"/>
</svg>
