<svg width="145" height="24" viewBox="0 0 145 24" fill="none" xmlns="http://www.w3.org/2000/svg">
<path d="M7.66817 18.1054H5.47147V5.42894H7.64789C11.6684 5.42894 13.8239 7.69822 13.8239 11.7455C13.8138 16.1588 11.8343 18.1042 7.66877 18.1042M19.0884 9.7351C18.8279 7.28543 17.7241 5.0056 15.9693 3.29271C13.6378 1.08604 11.1714 0.615204 7.6276 0.615204H0V22.995H8.3835C11.5234 22.995 13.6163 22.5663 15.9998 20.2344C17.6986 18.5609 18.7869 16.3569 19.0878 13.9805V22.88H31.243V18.059H24.4656V13.8968H30.341V9.08604H24.4656V5.43616H31.243V0.524292H19.0878L19.0884 9.7351Z" fill="#686868"/>
<path d="M56.3001 14.9467H53.4817L56.3001 9.88488V14.9467ZM47.7406 14.8214C47.1961 15.6779 46.461 16.3942 45.5939 16.9135C44.7268 17.4328 43.7515 17.7406 42.7458 17.8126C39.5337 17.9589 36.8078 14.8847 36.8597 11.5695C36.8578 10.0122 37.4593 8.51588 38.5358 7.40011C39.6123 6.28434 41.0785 5.63758 42.6211 5.59798C44.4097 5.72069 46.0913 6.50237 47.3462 7.79442C47.8953 8.24189 48.374 8.7707 48.7661 9.36286L51.6895 4.15477C51.2672 3.67272 50.7948 3.23791 50.2803 2.85786C48.1895 1.01849 45.51 0.00439503 42.7362 0.00273597C39.4304 -0.0707193 36.1044 1.33095 33.524 4.68762C32.0072 6.65148 31.1991 9.07855 31.2331 11.5683C31.1988 14.4901 32.2444 17.32 34.166 19.5057C35.2466 20.6866 36.5485 21.6394 37.9965 22.309C39.4444 22.9786 41.0096 23.3517 42.6014 23.4067C44.211 23.417 45.805 23.0874 47.2808 22.439C48.7567 21.7906 50.0818 20.8378 51.171 19.6418H56.2798V22.9045H61.5233V0.524753H55.7822L47.7406 14.8214Z" fill="#686868"/>
<path d="M62.5693 5.81648H66.7038V23.0092H72.1747V5.81648H76.4028V0.629456H62.5693V5.81648Z" fill="#686868"/>
<path d="M88.415 9.1316H82.8195V0.629456H77.3778V23.0092H82.8183V14.4547H88.415V23.0092H93.9175V0.629456H88.415V9.1316Z" fill="#686868"/>
<path d="M115.212 17.8849C113.619 17.827 112.112 17.1405 111.015 15.973C109.918 14.8055 109.319 13.2504 109.346 11.6418C109.339 10.8629 109.484 10.0902 109.774 9.36834C110.064 8.64646 110.493 7.98976 111.036 7.43619C111.579 6.88263 112.225 6.44319 112.937 6.14329C113.65 5.84339 114.414 5.68898 115.186 5.68898C115.958 5.68898 116.722 5.84339 117.434 6.14329C118.146 6.44319 118.793 6.88263 119.336 7.43619C119.879 7.98976 120.308 8.64646 120.598 9.36834C120.888 10.0902 121.033 10.8629 121.025 11.6418C121.015 15.3019 118.414 17.8849 115.212 17.8849ZM139.232 13.064L131.035 0.619322H126.102V8.17016C125.514 6.40299 124.519 4.80123 123.201 3.49551C121.046 1.38135 118.161 0.195989 115.155 0.190146C112.15 0.184303 109.26 1.35844 107.097 3.46421C106.017 4.5107 105.158 5.76779 104.574 7.15922C103.989 8.55065 103.691 10.0474 103.697 11.5587C103.658 13.8488 104.269 16.1023 105.458 18.0529H101.282V0.629556H95.853V23.0093H107.666V20.6564C109.745 22.4981 112.434 23.4863 115.2 23.426C117.632 23.4336 120.002 22.6564 121.966 21.2077C123.929 19.759 125.382 17.7147 126.112 15.3736V22.9973H131.562V10.534L139.884 23.0093H144.671V0.628955H139.221V13.0634L139.232 13.064Z" fill="#686868"/>
</svg>
