<svg width="89" height="29" viewBox="0 0 89 29" fill="none" xmlns="http://www.w3.org/2000/svg">
<path d="M34.1739 6.98633C43.1218 5.85871 50.0459 14.9238 45.6589 23.1064C40.1251 33.4266 24.2465 28.2657 25.2893 16.4959C25.6839 12.0345 29.7023 7.55015 34.1739 6.98633Z" fill="#686868"/>
<path d="M87.7739 7.43414L78.6847 19.5111C84.147 18.4178 88.7793 22.6276 88.4236 28.1628H83.3917C83.5931 25.6787 82.0793 23.868 79.5845 23.7503C76.388 23.5984 74.1433 25.8699 72.2722 28.1628H66.511L78.6847 12.0051H69.7578V7.43578H87.7739V7.43414Z" fill="#686868"/>
<path d="M21.8297 21.4363C21.6721 20.4574 20.9623 18.3852 20.9786 17.6334C20.9932 17.0271 21.5389 15.7197 21.6656 14.9762C22.0944 12.4758 22.2877 9.8839 22.3689 7.36064C22.442 5.10703 22.3007 2.83381 22.3624 0.5802H17.3305L17.1681 11.0246C16.9602 11.2812 16.4193 10.2042 16.278 10.0441C14.8666 8.45884 12.7437 7.14655 10.5932 6.94718C-4.60483 5.53683 -2.72883 31.884 11.6213 28.3785C14.108 27.7706 15.1995 26.5841 16.7978 24.7816C16.8936 24.6737 16.788 24.4662 17.1681 24.574L17.3305 28.1644H22.1188C22.2975 28.1644 22.3494 27.7657 22.3706 27.6023C22.5346 26.2622 22.0636 22.8924 21.8297 21.4379V21.4363ZM14.7642 19.7857C13.5379 22.3466 11.0626 24.7799 8.01877 23.5722C3.84122 21.9151 3.97278 12.4251 8.85363 11.7191C11.8942 11.2795 14.1438 13.7832 15.1394 16.4127C15.6836 17.8541 15.4237 18.4081 14.7642 19.7841V19.7857Z" fill="#686868"/>
<path d="M65.7006 12.0033V7.43394H59.0461C59.0867 6.05792 59.0233 4.62796 58.4841 3.34836C56.3579 -1.69979 47.2216 -0.858163 46.2958 4.65084C45.4008 9.97354 49.2162 12.3089 54.0158 12.0033C54.6801 17.6855 51.4105 27.8831 59.7981 28.6316C60.3601 28.6823 64.2404 28.5564 64.2404 27.9174V23.755C62.8533 24.1375 60.503 24.5542 59.5317 23.1847C59.3888 22.982 59.0461 22.2221 59.0461 22.0407V12.0033H65.7006ZM52.1853 7.39635C50.4473 7.04009 50.3385 4.60672 51.6948 4.20306C53.2037 3.75528 54.0678 4.80282 54.175 6.2099C54.2887 7.69052 53.5399 7.67254 52.1853 7.39472V7.39635Z" fill="#686868"/>
</svg>
