<svg width="137" height="34" viewBox="0 0 137 34" fill="none" xmlns="http://www.w3.org/2000/svg">
<path d="M133.774 27.8472C133.237 27.8505 132.711 27.6952 132.262 27.401C131.814 27.1068 131.463 26.6868 131.255 26.1945C131.047 25.7021 130.991 25.1595 131.094 24.6354C131.196 24.1112 131.453 23.6292 131.832 23.2503C132.211 22.8715 132.694 22.613 133.221 22.5075C133.748 22.4019 134.295 22.4542 134.791 22.6576C135.288 22.8611 135.713 23.2066 136.012 23.6502C136.311 24.0939 136.471 24.6158 136.471 25.1498C136.469 25.8614 136.185 26.5436 135.68 27.0485C135.175 27.5534 134.491 27.8403 133.774 27.8472ZM133.774 22.9683C133.338 22.9667 132.911 23.0938 132.547 23.3337C132.184 23.5735 131.9 23.9152 131.732 24.3154C131.564 24.7157 131.52 25.1565 131.605 25.5818C131.689 26.0072 131.899 26.398 132.208 26.7046C132.516 27.0113 132.91 27.22 133.338 27.3043C133.766 27.3886 134.209 27.3447 134.612 27.1781C135.015 27.0116 135.359 26.7299 135.601 26.3687C135.842 26.0076 135.97 25.5834 135.969 25.1498C135.966 24.5721 135.734 24.0189 135.323 23.6103C134.912 23.2018 134.356 22.971 133.774 22.9683ZM134.292 26.5913C134.147 26.177 134.348 25.3933 133.759 25.3933H133.3V26.5913H132.643V23.6812H133.95C134.48 23.6812 134.941 23.781 134.941 24.4276C134.941 24.8549 134.681 25.0546 134.283 25.1264C135.074 25.2403 134.787 26.025 135.015 26.596L134.292 26.5913ZM133.688 24.1365H133.3V24.9501H133.716C134.018 24.9501 134.263 24.9072 134.263 24.5377C134.263 24.1682 133.989 24.1365 133.688 24.1365Z" fill="#686868"/>
<path d="M110.279 7.83282C110.54 7.8327 110.798 7.88358 111.039 7.98256C111.279 8.08153 111.498 8.22666 111.682 8.40966C111.867 8.59266 112.013 8.80993 112.112 9.04907C112.212 9.28821 112.264 9.54453 112.264 9.80339V25.6649C112.264 26.1873 112.055 26.6883 111.683 27.0577C111.311 27.427 110.807 27.6346 110.281 27.6346C110.02 27.635 109.762 27.5844 109.521 27.4856C109.28 27.3868 109.061 27.2417 108.877 27.0587C108.692 26.8756 108.546 26.6582 108.446 26.4189C108.346 26.1796 108.295 25.923 108.295 25.664V9.80245C108.296 9.2799 108.505 8.77893 108.877 8.4096C109.249 8.04028 109.753 7.83282 110.279 7.83282Z" fill="#686868"/>
<path d="M114.411 9.43374V10.2642C114.411 10.3466 114.427 10.4283 114.459 10.5045C114.491 10.5807 114.537 10.6499 114.596 10.7081C114.655 10.7664 114.724 10.8125 114.801 10.8439C114.878 10.8754 114.96 10.8914 115.043 10.8911H126.68C126.806 10.8914 126.931 10.8669 127.048 10.8191C127.165 10.7712 127.271 10.7009 127.361 10.6123C127.45 10.5236 127.521 10.4184 127.57 10.3024C127.618 10.1865 127.643 10.0622 127.643 9.93665V8.52406C127.647 8.3975 127.625 8.27149 127.578 8.15384C127.531 8.0362 127.46 7.92942 127.369 7.84006C127.279 7.7507 127.171 7.68067 127.053 7.63431C126.934 7.58795 126.807 7.56621 126.68 7.57047C126.68 7.57047 115.43 8.66868 115.068 8.7088C114.887 8.72458 114.718 8.80801 114.596 8.94234C114.474 9.07667 114.408 9.25285 114.411 9.43374Z" fill="#686868"/>
<path d="M104.989 27.6355C104.371 27.6554 103.755 27.5504 103.179 27.3268C102.603 27.1032 102.079 26.7656 101.638 26.3347C101.197 25.9037 100.848 25.3883 100.614 24.8196C100.379 24.2509 100.264 23.6408 100.273 23.0264L100.269 16.0099H99.4385C99.227 16.0102 99.024 15.927 98.8742 15.7786C98.7243 15.6303 98.6399 15.4289 98.6394 15.2187V14.0431C98.6404 13.8326 98.7252 13.6312 98.8753 13.4828C99.0254 13.3343 99.2287 13.2509 99.4405 13.2509H100.269V8.93851C100.268 8.79341 100.297 8.64962 100.352 8.51539C100.407 8.38117 100.489 8.25909 100.592 8.15622C100.695 8.05336 100.817 7.97172 100.952 7.9159C101.087 7.86009 101.232 7.83124 101.378 7.83099H103.022C103.168 7.83136 103.313 7.8604 103.448 7.91642C103.583 7.97244 103.706 8.05435 103.809 8.15747C103.912 8.2606 103.993 8.38289 104.049 8.51738C104.104 8.65188 104.133 8.79595 104.132 8.9413V13.2509H106.699C106.911 13.2514 107.113 13.335 107.263 13.4835C107.412 13.6319 107.497 13.8331 107.498 14.0431V15.2187C107.498 15.3229 107.477 15.4262 107.437 15.5225C107.397 15.6189 107.338 15.7063 107.264 15.78C107.19 15.8537 107.102 15.9121 107.005 15.9519C106.908 15.9917 106.804 16.0121 106.699 16.0118H104.132V22.4992C104.108 22.787 104.148 23.0765 104.248 23.3477C104.348 23.6188 104.506 23.865 104.712 24.0692C104.917 24.2735 105.165 24.4307 105.438 24.5302C105.711 24.6296 106.002 24.6689 106.292 24.6452H106.525C106.639 24.6449 106.752 24.667 106.857 24.7101C106.963 24.7533 107.059 24.8166 107.139 24.8966C107.22 24.9765 107.285 25.0716 107.328 25.1762C107.372 25.2808 107.395 25.393 107.395 25.5063V26.7809C107.395 26.894 107.373 27.006 107.33 27.1105C107.286 27.2151 107.222 27.3101 107.142 27.3901C107.061 27.4701 106.966 27.5335 106.86 27.5767C106.755 27.6199 106.642 27.6421 106.528 27.642L104.989 27.6355Z" fill="#686868"/>
<path d="M77.8728 15.7478C78.6938 15.7248 79.4941 16.0064 80.1175 16.5376C80.7409 17.0689 81.1429 17.8119 81.245 18.6216H74.5287C74.6244 17.8142 75.0206 17.0716 75.6394 16.5398C76.2582 16.008 77.0549 15.7255 77.8728 15.7478V12.7481C73.1944 12.7481 70.5679 16.387 70.5679 20.2208C70.5679 24.3103 73.3793 27.908 77.9028 27.908C81.0017 27.908 84.0537 26.2845 84.6322 23.6235C84.6536 23.5232 84.6522 23.4193 84.628 23.3196C84.6039 23.2199 84.5576 23.1267 84.4927 23.047C84.4277 22.9673 84.3457 22.9029 84.2525 22.8587C84.1594 22.8144 84.0575 22.7914 83.9542 22.7913H81.7426C81.5604 22.7886 81.3804 22.8312 81.2189 22.9151C81.0574 22.999 80.9195 23.1216 80.8177 23.2718C80.4951 23.7414 80.0543 24.1188 79.5393 24.3665C79.0243 24.6141 78.453 24.7234 77.8822 24.6835C77.0127 24.6845 76.1764 24.3525 75.5468 23.7567C74.9172 23.1609 74.5429 22.347 74.5016 21.4841H83.9119C84.0833 21.5053 84.2573 21.4871 84.4204 21.4308C84.5836 21.3746 84.7315 21.2818 84.8528 21.1597C84.9742 21.0376 85.0657 20.8895 85.1203 20.7267C85.1748 20.5639 85.191 20.3908 85.1675 20.2208C85.1675 16.4821 82.9382 12.7481 77.8757 12.7481L77.8728 15.7478Z" fill="#686868"/>
<path d="M120.755 15.7478C121.576 15.7248 122.376 16.0065 122.999 16.5378C123.622 17.0691 124.024 17.812 124.126 18.6216H117.411C117.507 17.8141 117.903 17.0714 118.522 16.5396C119.141 16.0077 119.937 15.7253 120.755 15.7478V12.7481C116.075 12.7481 113.447 16.387 113.447 20.2208C113.447 24.3103 116.264 27.908 120.785 27.908C123.884 27.908 126.937 26.2845 127.51 23.6235C127.532 23.5235 127.531 23.4198 127.508 23.3201C127.484 23.2204 127.438 23.1273 127.374 23.0474C127.309 22.9676 127.227 22.9032 127.134 22.8588C127.042 22.8145 126.94 22.7914 126.837 22.7913H124.624C124.442 22.7884 124.261 22.8307 124.099 22.9146C123.937 22.9986 123.799 23.1213 123.696 23.2718C123.375 23.7412 122.935 24.1185 122.42 24.3662C121.906 24.6139 121.335 24.7233 120.765 24.6835C119.895 24.6845 119.059 24.3525 118.429 23.7567C117.8 23.1609 117.425 22.347 117.384 21.4841H126.795C126.967 21.5061 127.141 21.4885 127.305 21.4325C127.468 21.3765 127.616 21.2838 127.738 21.1615C127.859 21.0391 127.95 20.8906 128.004 20.7274C128.058 20.5642 128.074 20.3908 128.049 20.2208C128.049 16.4821 125.821 12.7481 120.758 12.7481L120.755 15.7478Z" fill="#686868"/>
<path d="M97.1057 8.02791H66.619C66.4543 8.02791 66.2913 8.06022 66.1392 8.12296C65.9871 8.18569 65.8489 8.27763 65.7326 8.39351C65.6163 8.5094 65.5242 8.64697 65.4615 8.7983C65.3988 8.94963 65.3667 9.11176 65.3672 9.27541L65.4725 21.1706C65.4725 21.1706 58.8989 9.38178 58.5609 8.78184C58.3587 8.44307 58.0696 8.1637 57.7231 7.97239C57.3766 7.78107 56.9852 7.68469 56.5888 7.693H54.0834C53.7501 7.69325 53.4305 7.82496 53.1949 8.05923C52.9593 8.2935 52.827 8.61114 52.827 8.94232V26.39C52.8272 26.7208 52.9595 27.0379 53.1949 27.2718C53.4303 27.5057 53.7496 27.6372 54.0825 27.6375H55.6902C55.8552 27.6371 56.0184 27.6044 56.1707 27.5413C56.3229 27.4782 56.4612 27.3859 56.5775 27.2697C56.6938 27.1535 56.786 27.0158 56.8487 26.8642C56.9114 26.7126 56.9434 26.5502 56.9429 26.3863L56.8415 14.1636C56.8415 14.1636 63.4741 26.069 63.7568 26.5365C63.9541 26.8807 64.2417 27.1653 64.589 27.36C64.9363 27.5547 65.3302 27.6522 65.7288 27.6421H68.0305C68.3634 27.6419 68.6826 27.5104 68.918 27.2765C69.1534 27.0426 69.2857 26.7254 69.2859 26.3946V10.9857H97.1066C97.2193 10.9859 97.3309 10.964 97.4351 10.9213C97.5392 10.8786 97.6338 10.8158 97.7135 10.7367C97.7932 10.6575 97.8563 10.5636 97.8993 10.4601C97.9423 10.3566 97.9643 10.2457 97.9641 10.1338V8.87603C97.9636 8.65051 97.873 8.43444 97.7122 8.27523C97.5515 8.11603 97.3336 8.02675 97.1066 8.027" fill="#686868"/>
<path d="M92.1684 15.6051C92.6941 15.5389 93.2278 15.6274 93.7033 15.8596C94.1789 16.0917 94.5754 16.4574 94.8438 16.9113C95.0175 17.3059 95.3482 17.3852 95.8036 17.3852H97.6263C97.7983 17.3805 97.9618 17.3099 98.0827 17.1882C98.2036 17.0665 98.2726 16.9031 98.2752 16.7322C98.2752 14.6263 95.7463 12.7472 92.1713 12.7472C88.4667 12.7472 86.0392 14.5004 86.0392 17.2911C86.0392 19.4268 87.736 20.6985 89.8255 21.2405C90.7758 21.4869 92.4023 21.8862 93.1921 22.0924C94.0466 22.3145 94.8082 22.5738 94.8082 23.2988C94.8082 24.4436 93.592 24.8355 92.2661 24.8355C91.6993 24.8815 91.1308 24.7702 90.624 24.5141C90.1171 24.2579 89.6917 23.8669 89.3954 23.3847C89.1888 22.8697 88.8226 22.795 88.2685 22.795H86.4166C86.233 22.7995 86.0583 22.8742 85.9287 23.0035C85.799 23.1328 85.7246 23.3067 85.7208 23.4892V23.7271C85.7208 25.7658 88.4714 27.8986 92.268 27.8986C94.9584 27.8986 98.71 26.7884 98.71 23.2009C98.71 21.1249 97.3126 19.6861 95.0344 19.1123C94.1461 18.8874 92.0059 18.3472 91.543 18.2278C90.711 18.0141 89.9381 17.7464 89.9381 17.041C89.9381 15.9689 90.9327 15.6088 92.1713 15.6088" fill="#686868"/>
<path d="M38.3864 11.1226C36.649 8.49152 34.455 6.18791 31.9069 4.319C31.0795 3.52312 30.4485 2.62272 30.0475 2.18793C29.5911 1.55615 28.9998 1.03245 28.3158 0.654358C27.6318 0.276261 26.8722 0.05312 26.0912 0.000911093C25.3583 -0.0153507 24.6371 0.186399 24.0204 0.58024C23.4036 0.974082 22.9194 1.54206 22.6298 2.21128C22.5134 2.50518 22.4223 2.8644 22.3397 2.99502C22.1575 3.28893 21.3386 4.66607 20.9996 5.21282L22.5209 5.21843L21.7762 6.60491C22.5289 6.40948 23.302 6.3024 24.0797 6.28583C24.8113 6.28583 25.3372 6.46217 25.5654 6.92029C25.9898 7.77121 25.9804 10.3445 26.6979 12.2842C27.5932 14.2932 29.03 16.0172 30.8495 17.2658C30.8707 17.2796 30.8951 17.2878 30.9203 17.2897C30.9456 17.2915 30.9709 17.2869 30.9939 17.2764C31.0169 17.2659 31.0369 17.2497 31.0519 17.2294C31.0669 17.209 31.0764 17.1853 31.0796 17.1603C31.0798 17.1369 31.0748 17.1138 31.0649 17.0927C31.055 17.0715 31.0404 17.0529 31.0222 17.0381C29.5065 15.6066 28.3253 13.8622 27.5618 11.9279C26.9045 10.1113 27.0181 7.56219 26.4349 6.42296C26.2319 6.09592 25.9398 5.83272 25.5925 5.66379C25.2451 5.49487 24.8568 5.42716 24.4723 5.46849C23.9876 5.47571 23.505 5.53418 23.0327 5.64295L23.7032 4.52333H22.5763C22.8167 4.10813 23.0646 3.72465 23.1895 3.49699C23.2975 3.30105 23.3388 3.0566 23.4712 2.72165C23.67 2.19743 24.0287 1.74801 24.4971 1.43619C24.9654 1.12438 25.5202 0.965742 26.0837 0.982462C27.6294 0.98806 28.5309 1.97988 29.424 2.97076C30.001 3.71683 30.6219 4.42841 31.2833 5.1018C32.386 5.91091 33.4274 6.79937 34.3991 7.76001C35.5237 8.92708 36.5454 10.1879 37.453 11.5285C40.711 16.1433 43.3914 21.1351 45.435 26.3936L45.4106 26.4104C41.2506 23.5851 37.6502 20.9167 34.7504 17.6315C32.5306 15.0919 30.7133 12.231 29.3611 9.1474C29.2549 8.91881 29.1648 8.70608 29.0671 8.48401C29.0268 8.39071 28.9854 8.36926 28.9197 8.36926C28.9012 8.36848 28.8827 8.3715 28.8654 8.37815C28.8482 8.3848 28.8325 8.39496 28.8194 8.40793C28.8062 8.4209 28.7959 8.43643 28.7891 8.45355C28.7823 8.47066 28.7791 8.48897 28.7798 8.50736C28.8053 8.73669 28.8483 8.96379 28.9084 9.18664C29.7264 12.7517 32.0177 15.9539 34.4677 18.6177C36.7432 21.0446 39.2465 23.2503 41.9436 25.2049L43.7024 30.261C43.7511 30.3802 43.7812 30.506 43.7917 30.6342C43.7947 30.6736 43.7888 30.713 43.7745 30.7498C43.7602 30.7866 43.7379 30.8198 43.709 30.8469C43.6602 30.8964 43.5935 30.9197 43.4461 30.9197H42.9118C42.7697 30.9383 42.6259 30.903 42.5089 30.8208C42.4243 30.7456 42.3623 30.6488 42.3295 30.5409C42.1746 30.066 41.2468 27.4078 41.0674 26.8675C41.0346 26.7696 40.9735 26.737 40.9115 26.737C40.8932 26.7367 40.875 26.7401 40.858 26.7469C40.8409 26.7538 40.8254 26.7639 40.8124 26.7768C40.7994 26.7896 40.7891 26.8049 40.7821 26.8218C40.7751 26.8387 40.7715 26.8567 40.7716 26.875C40.7867 26.9989 40.8083 27.1219 40.8364 27.2436C41.0712 28.4565 41.3454 29.8113 41.459 30.3226C41.5122 30.5263 41.5474 30.7342 41.5642 30.944C41.5676 31.0107 41.555 31.0772 41.5276 31.1382C41.5002 31.1991 41.4587 31.2528 41.4065 31.2948L40.8533 31.849C40.7209 31.9787 40.6467 32.0113 40.5406 32.0113C40.4091 32.0113 40.3021 31.9181 40.2533 31.6913C39.6382 28.7887 38.7057 25.1909 38.4625 24.1925C38.4061 23.9723 38.3686 23.8492 38.2333 23.8492C38.1178 23.8492 38.0765 23.9304 38.0765 24.0284C38.0799 24.1049 38.0877 24.1813 38.1 24.2569C38.2436 25.2833 38.8315 29.0387 39.4691 32.4676C39.5818 33.0573 39.8035 33.3838 40.3143 33.3857C40.437 33.3843 40.5582 33.3589 40.671 33.3109C40.7838 33.2629 40.886 33.1932 40.9717 33.1058C41.3107 32.7718 41.4092 32.6822 41.8168 32.2922C41.9376 32.1549 42.0894 32.0481 42.2598 31.9804C42.4303 31.9128 42.6144 31.8863 42.7972 31.9031H44.018C44.1242 31.912 44.2311 31.8985 44.3317 31.8636C44.4323 31.8287 44.5244 31.7733 44.6021 31.7007C44.6747 31.6315 44.7316 31.5477 44.7689 31.4548C44.8062 31.3619 44.8229 31.2622 44.8181 31.1623C44.8104 30.918 44.7582 30.6771 44.6641 30.4513C44.3542 29.6162 43.3606 26.7939 43.0677 26.0008L43.0921 25.9849C44.1175 26.7649 45.6106 27.7577 46.2689 27.7577C46.4746 27.7577 46.5985 27.669 46.5995 27.3499C46.6051 25.8468 44.111 19.6524 38.392 11.1152" fill="#686868"/>
<path d="M10.1354 1.60958C10.2066 1.45761 10.3117 1.32377 10.4429 1.21829C10.574 1.11281 10.7276 1.03845 10.892 1.00086C11.0565 0.963275 11.2274 0.963464 11.3917 1.0014C11.5561 1.03934 11.7095 1.11404 11.8404 1.2198C11.9713 1.32556 12.0762 1.45959 12.1471 1.61171C12.218 1.76383 12.253 1.93002 12.2495 2.09762C12.246 2.26522 12.2041 2.42982 12.1269 2.57888C12.0497 2.72794 11.9393 2.85752 11.8041 2.95778C11.8605 3.14637 11.8921 3.34146 11.898 3.53814C11.895 3.87166 11.7777 4.19422 11.5656 4.45269C11.3534 4.71116 11.0589 4.89011 10.7307 4.96007C10.6488 5.36524 10.4486 5.73747 10.1551 6.03026C9.66113 6.50424 9.15967 6.50425 9.15967 6.70019C9.15967 6.80656 9.23385 6.87186 9.44138 6.87186C9.87019 6.91182 10.2992 6.79779 10.6507 6.55045C11.0021 6.3031 11.2527 5.9388 11.3571 5.52362C11.7495 5.38451 12.0918 5.13307 12.3406 4.80098C12.5894 4.46889 12.7338 4.07102 12.7553 3.65756C12.7638 3.49158 12.7316 3.32605 12.6615 3.17518C12.8261 3.02085 12.9571 2.83456 13.0463 2.62783C13.1354 2.4211 13.1809 2.19835 13.1798 1.97344C13.1699 1.55003 13.025 1.14067 12.7658 0.804392C12.5067 0.46811 12.1468 0.222277 11.738 0.102312C11.3292 -0.0176535 10.8926 -0.00552982 10.4911 0.136907C10.0897 0.279345 9.74416 0.544733 9.50432 0.894853C8.92342 0.972103 8.39187 1.26038 8.01227 1.70405C7.63267 2.14772 7.43189 2.71534 7.44868 3.29742H7.32568C7.26828 3.06757 7.13825 2.86203 6.95473 2.71092C6.77121 2.5598 6.54383 2.47106 6.30586 2.4577C6.17161 1.92033 5.86294 1.44185 5.42755 1.09628C4.99215 0.750707 4.45429 0.557284 3.89715 0.545906C3.73473 0.544939 3.57244 0.555857 3.41163 0.578565C3.23007 0.399134 3.01454 0.25726 2.77743 0.161167C2.54032 0.0650738 2.28633 0.0166638 2.03026 0.0187409C1.76335 0.0180015 1.49897 0.0697057 1.25225 0.170877C1.00553 0.272048 0.781345 0.420702 0.592658 0.608264C0.40397 0.795826 0.254469 1.01861 0.152758 1.26379C0.0510466 1.50897 -0.000856916 1.77169 1.07001e-05 2.03688C-0.00108667 2.36269 0.0841848 2.68307 0.247214 2.96576C0.410244 3.24845 0.645298 3.4835 0.928759 3.64731C0.928759 3.64731 0.920333 3.7406 0.920333 3.77792C0.980422 4.39217 1.2618 4.9642 1.71267 5.38868C2.16354 5.81317 2.75353 6.06155 3.37409 6.08812C3.40374 6.23662 3.4776 6.37284 3.5861 6.47915C3.6946 6.58545 3.83275 6.65694 3.98261 6.68433V6.79814H3.85864C1.84434 6.79814 0.988883 7.762 0.988883 8.40765C0.696187 8.5416 0.447901 8.75557 0.273121 9.02457C0.0983412 9.29356 0.00426969 9.60645 0.00190213 9.92662C-0.00781648 10.2014 0.0392196 10.4753 0.140091 10.7313C0.240962 10.9873 0.393534 11.2201 0.588416 11.4153C0.783299 11.6105 1.01636 11.764 1.27323 11.8663C1.53009 11.9686 1.80533 12.0175 2.08196 12.0101C2.47103 12.0035 2.84802 11.8748 3.15904 11.6425C3.39758 11.7211 3.64772 11.7596 3.89904 11.7563C4.22243 11.7663 4.54304 11.6945 4.83083 11.5476C5.11862 11.4007 5.36409 11.1836 5.54424 10.9165C5.60658 10.9236 5.66934 10.9265 5.73207 10.925C6.08528 10.91 6.42782 10.8002 6.72329 10.6074C7.01876 10.4145 7.25611 10.1457 7.41016 9.82958C7.47673 9.71762 7.51598 9.59173 7.52474 9.46198C7.52474 9.36868 7.48346 9.29866 7.39331 9.29866C7.27781 9.29866 7.26183 9.40502 7.05618 9.59256C6.5163 10.0046 5.84421 10.2078 5.16487 10.1645C5.03431 10.3934 4.84728 10.5855 4.6214 10.7228C4.39551 10.8601 4.1382 10.938 3.87365 10.9492C3.5323 10.9533 3.19839 10.8501 2.91957 10.6544C2.81683 10.7704 2.69023 10.8633 2.54834 10.9267C2.40644 10.9901 2.25256 11.0227 2.09697 11.022C1.94932 11.0288 1.80183 11.0049 1.66401 10.9518C1.52618 10.8987 1.40103 10.8176 1.29656 10.7137C1.19208 10.6098 1.11057 10.4854 1.05726 10.3484C1.00395 10.2114 0.980038 10.0649 0.986992 9.91819C0.988198 9.69709 1.05623 9.48147 1.18232 9.29928C1.30842 9.1171 1.48674 8.97679 1.6941 8.89655C1.76828 8.08761 2.63976 7.53991 3.72532 7.53991C3.86808 7.54022 4.01068 7.54832 4.15255 7.56417C4.285 7.38949 4.45313 7.24458 4.64587 7.13894C4.83861 7.0333 5.05165 6.9693 5.27102 6.95116C5.36413 6.94573 5.4559 6.92657 5.54332 6.89427C5.57252 6.87735 5.59685 6.8533 5.61405 6.82439C5.63125 6.79549 5.64077 6.76269 5.64162 6.72912C5.64247 6.69555 5.63465 6.66232 5.61892 6.63259C5.6032 6.60287 5.58006 6.57765 5.55175 6.5593C5.46464 6.52406 5.37354 6.49961 5.28042 6.48652C4.95565 6.42967 4.65139 6.28971 4.39764 6.08046C4.14388 5.8712 3.94937 5.59987 3.8333 5.29318C3.553 5.29614 3.27484 5.24416 3.01477 5.14022C2.75471 5.03628 2.51786 4.88241 2.3177 4.68743C2.11753 4.49245 1.95802 4.2602 1.84828 4.00391C1.73854 3.74763 1.68068 3.47236 1.67811 3.19386V3.12014C1.44014 3.02405 1.24309 2.84894 1.12054 2.62464C0.997983 2.40034 0.957557 2.14075 1.00608 1.89013C1.0546 1.63951 1.1891 1.41335 1.38666 1.25024C1.58421 1.08712 1.8326 0.99714 2.08946 0.995622C2.26369 0.996273 2.43536 1.03726 2.59086 1.11533C2.74637 1.19339 2.88142 1.30637 2.98531 1.44534C3.26849 1.37435 3.56314 1.36082 3.8517 1.40553C4.14027 1.45024 4.41681 1.55228 4.66479 1.70556C4.91276 1.85884 5.12715 2.06021 5.29503 2.29765C5.46292 2.53508 5.58086 2.80372 5.64191 3.08748C6.03588 3.12414 6.40475 3.29587 6.68523 3.57319C6.96571 3.85051 7.14035 4.21613 7.17918 4.60739C7.2205 4.82012 7.25339 5.00021 7.39331 5.00021C7.53323 5.00021 7.57361 4.83692 7.62338 4.61673C7.68663 4.22406 7.88589 3.86567 8.18679 3.60346C8.17991 3.34462 8.22518 3.08703 8.31994 2.84583C8.41469 2.60462 8.55703 2.38466 8.73857 2.1989C8.92012 2.01313 9.1372 1.86528 9.37707 1.76407C9.61695 1.66287 9.87476 1.61036 10.1354 1.60958Z" fill="#686868"/>
<path d="M12.5288 8.01769C12.1419 8.56538 11.863 8.83503 10.9831 9.86416C9.77023 11.327 8.82899 12.9926 8.20349 14.7831C8.36783 14.7663 8.60637 14.7504 8.87025 14.7504C9.00172 14.7504 9.10872 14.7504 9.28057 14.7588L9.40363 14.4976C10.0235 13.0325 10.8305 11.6527 11.8048 10.3922L12.1748 9.95932C13.252 8.92412 14.0181 7.61154 14.3873 6.16842C14.4573 5.58708 14.6972 5.03888 15.0775 4.5916C15.439 4.25224 15.9202 4.06732 16.4175 4.07656C16.8205 4.0856 17.2166 4.18307 17.5772 4.36204C17.88 4.51352 18.2172 4.58394 18.5557 4.56637C18.7032 4.56637 18.8102 4.55803 18.9098 4.54963L18.3341 5.31751L19.1154 5.86518C18.7332 6.0058 18.3861 6.22685 18.0979 6.51319C17.8098 6.79952 17.5873 7.14438 17.4457 7.52412C17.4175 7.58917 17.4009 7.65862 17.3969 7.72936C17.3952 7.74695 17.3974 7.76471 17.4034 7.78135C17.4094 7.79799 17.419 7.81311 17.4315 7.8256C17.4441 7.8381 17.4593 7.84767 17.4761 7.85362C17.4928 7.85957 17.5107 7.86174 17.5284 7.86C17.6354 7.86 17.7162 7.77882 17.8571 7.61461C18.3341 7.04266 18.7126 6.64986 20.4715 6.10311L19.23 5.17007L20.1691 3.806H19.2891C18.806 3.84393 18.3208 3.76515 17.8749 3.57645C17.3935 3.3032 16.8507 3.15463 16.2963 3.14444C15.59 3.14094 14.9095 3.4083 14.3966 3.89086C13.8492 4.48852 13.4915 5.23344 13.3683 6.03221C13.2123 6.73879 12.9281 7.41128 12.5298 8.01678" fill="#686868"/>
<path d="M14.4193 13.5783C13.8361 14.3216 13.3007 15.1006 12.8163 15.9109C12.9731 15.9846 13.4905 16.2627 13.6718 16.3606C14.2352 15.5106 15.0287 14.4657 15.5499 13.6726C16.006 13.1081 16.25 12.4034 16.2401 11.6796C16.2486 11.5163 16.2486 11.3605 16.2645 11.2056C16.2834 10.6508 16.516 10.1244 16.9144 9.73516C17.2843 9.38624 17.7773 9.19562 18.2873 9.20429C18.7803 9.20429 19.0686 9.34233 19.4959 9.34233C19.7444 9.34006 19.9902 9.29035 20.2199 9.19586L20.3767 9.138L20.0011 10.0375L20.8894 10.3967C20.3416 10.8408 19.8965 11.397 19.5843 12.0273C19.272 12.6576 19.1 13.3473 19.0798 14.0495C19.0827 14.6481 19.1629 15.2439 19.3184 15.8222C19.3236 15.8549 19.3408 15.8846 19.3666 15.9056C19.3924 15.9266 19.425 15.9374 19.4583 15.9361C19.4773 15.9371 19.4963 15.9342 19.5142 15.9277C19.532 15.9212 19.5483 15.9111 19.5621 15.8981C19.5759 15.8851 19.5869 15.8694 19.5944 15.852C19.6019 15.8347 19.6058 15.816 19.6058 15.7971L19.6142 15.6105C19.6274 14.8721 19.7241 14.1375 19.9025 13.4206C20.2901 12.1344 21.1269 11.0276 22.2624 10.2996L20.8481 9.68664L21.4566 8.20776L20.7908 8.34683C20.4463 8.43492 20.0935 8.48679 19.7382 8.50167C19.4663 8.49752 19.1959 8.46187 18.9324 8.39535C18.6529 8.32406 18.3655 8.28831 18.0769 8.28897C17.4012 8.28726 16.7496 8.53803 16.2514 8.99154C15.9234 9.3204 15.6673 9.71292 15.4989 10.1446C15.3305 10.5763 15.2536 11.0379 15.2729 11.5005C15.2672 12.2763 14.9651 13.021 14.4277 13.5839" fill="#686868"/>
<path d="M35.5219 14.0814C35.5042 14.0509 35.4791 14.0252 35.449 14.0066C35.4188 13.9881 35.3845 13.9772 35.3491 13.975C35.33 13.9733 35.3108 13.9757 35.2926 13.9819C35.2745 13.9881 35.2578 13.998 35.2438 14.011C35.2298 14.0241 35.2187 14.0399 35.2113 14.0575C35.2039 14.0751 35.2003 14.0941 35.2008 14.1131C35.2008 14.2279 35.2825 14.3669 35.4881 14.7103C36.1495 15.8328 36.9371 16.8771 37.8358 17.8229C38.9084 18.9389 40.0903 19.9459 41.3639 20.8291L41.7667 21.109C41.8078 21.146 41.8598 21.1689 41.9151 21.1743C41.9527 21.1715 41.9879 21.1548 42.0138 21.1276C42.0397 21.1003 42.0544 21.0644 42.055 21.0269C42.0545 21.0027 42.0484 20.9789 42.037 20.9575C42.0256 20.9361 42.0092 20.9177 41.9893 20.9037C40.7892 19.8177 39.4979 18.4937 38.2884 17.2192C37.3418 16.2134 36.3718 15.1516 35.5172 14.0814" fill="#686868"/>
<path d="M9.0591 10.3801C9.25301 10.0801 9.46729 9.79358 9.70046 9.52259C9.12752 8.44334 8.41426 7.44358 7.57908 6.54901L7.20349 6.91661C7.93268 8.0099 8.55498 9.16997 9.0619 10.381" fill="#686868"/>
<path d="M3.03126 2.9995C2.95707 2.93326 2.93732 2.89312 2.93732 2.84461C2.93728 2.82782 2.94076 2.81121 2.94746 2.7958C2.95417 2.7804 2.96396 2.76655 2.97629 2.75508C2.98863 2.74362 3.00319 2.7348 3.01911 2.72917C3.03502 2.72355 3.05195 2.72124 3.0688 2.7224C3.10574 2.72343 3.14213 2.73167 3.17587 2.74666C3.74291 2.96759 4.27686 3.26455 4.76289 3.62929C5.17906 3.94991 5.55937 4.31402 5.89729 4.71534L5.55167 5.10816C5.12346 4.75641 3.74304 3.60411 3.02748 2.9995" fill="#686868"/>
<path d="M8.86003 5.73904L8.41583 5.46939C8.67143 4.82824 9.02978 4.23242 9.47698 3.70504C9.75197 3.39316 10.0489 3.101 10.3654 2.83077C10.4396 2.77386 10.4799 2.7244 10.5531 2.7244C10.589 2.72363 10.6238 2.73693 10.65 2.76136C10.6761 2.78578 10.6916 2.8194 10.6931 2.85503C10.6884 2.89962 10.6712 2.94197 10.6433 2.97724C10.1418 3.75353 9.16429 5.28932 8.86003 5.73904Z" fill="#686868"/>
<path d="M3.28565 9.53005C3.21863 9.56415 3.14624 9.58655 3.07158 9.59628C3.05416 9.59654 3.03687 9.5933 3.02074 9.58677C3.00461 9.58024 2.98997 9.57052 2.97769 9.55824C2.96542 9.54596 2.95578 9.53137 2.94932 9.5153C2.94286 9.49923 2.93971 9.48203 2.94009 9.46473C2.94009 9.40782 2.96452 9.37144 3.02274 9.32572C3.92501 8.61643 5.00612 8.16712 6.14795 8.02692L6.29629 8.51769L3.28565 9.53005Z" fill="#686868"/>
<path d="M24.3789 3.19371C24.3691 3.09628 24.3792 2.9979 24.4085 2.90441C24.4378 2.81093 24.4857 2.72427 24.5494 2.64957C24.6131 2.57487 24.6913 2.51366 24.7793 2.46962C24.8673 2.42557 24.9633 2.39959 25.0616 2.39319C25.2318 2.39278 25.4 2.42909 25.5547 2.49957C25.7519 2.59287 25.8833 2.72069 25.8833 2.85971C25.8833 2.99873 25.7349 3.15361 25.5133 3.33368C25.3017 3.52911 25.0343 3.65461 24.748 3.69291C24.4606 3.69291 24.378 3.42233 24.378 3.19467" fill="#686868"/>
<path d="M16.0317 5.57851C16.0233 5.48928 16.0329 5.39926 16.06 5.31376C16.087 5.22826 16.1309 5.14901 16.1892 5.08056C16.2474 5.01211 16.3188 4.95587 16.3991 4.91513C16.4795 4.87439 16.5671 4.84994 16.6571 4.84326C16.8621 4.84666 17.0585 4.92545 17.2084 5.06439C17.2478 5.09604 17.28 5.13577 17.3026 5.18085C17.3253 5.22592 17.338 5.2753 17.3398 5.32567C17.3398 5.5216 17.152 5.71008 16.9285 5.8407C16.7749 5.9366 16.5996 5.99272 16.4186 6.00397C16.1641 6.00397 16.0326 5.84816 16.0326 5.57851" fill="#686868"/>
<path d="M17.9643 10.6169C17.9627 10.522 17.9767 10.4274 18.0056 10.3369C18.0319 10.2133 18.1021 10.1032 18.2033 10.0267C18.3045 9.95014 18.4299 9.91226 18.5569 9.91991C18.724 9.91744 18.8879 9.96595 19.0264 10.0589C19.0783 10.0889 19.1215 10.1317 19.1518 10.1832C19.182 10.2347 19.1984 10.2932 19.1992 10.3528C19.1992 10.7037 18.6066 11.1123 18.3108 11.1123C18.0967 11.1123 17.9653 10.907 17.9653 10.6141" fill="#686868"/>
<path d="M14.7247 20.9281C13.6147 20.9281 13.1208 20.4056 13.1208 19.7441C13.1208 18.5834 15.1689 17.4479 17.0113 16.7454L17.4874 17.3574C16.353 17.8062 14.0664 18.7709 14.0664 19.6041C14.0664 19.898 14.2392 20.1117 14.9304 20.1117C16.2284 19.9942 17.4853 19.5983 18.6143 18.9511C18.7064 18.9036 18.8075 18.8757 18.911 18.8689C18.9866 18.8662 19.0614 18.8847 19.1269 18.9224C19.1923 18.96 19.2458 19.0152 19.2811 19.0816L19.4782 19.3513C18.0434 20.247 16.4133 20.7877 14.7247 20.9281Z" fill="#686868"/>
<path d="M17.7831 21.2386C16.8139 21.8313 15.7122 22.1766 14.5761 22.2435C13.9807 22.2419 13.3965 22.083 12.8835 21.7829C12.3704 21.4828 11.9469 21.0525 11.6566 20.536C11.3119 20.0135 11.0396 19.3595 10.711 18.7801C10.5843 18.469 10.3672 18.2025 10.0873 18.0147C9.80744 17.8269 9.47758 17.7263 9.13987 17.7258C8.4222 17.7807 7.7229 17.978 7.08331 18.3061L7.11621 18.461C7.1735 18.7138 7.27208 18.8939 7.5106 18.8939C7.60389 18.886 7.69541 18.864 7.78199 18.8286C8.12854 18.6928 8.4954 18.6153 8.86756 18.5991C9.48452 18.5991 9.78034 18.9592 10.2001 19.8419L10.356 20.1684C9.64176 20.3311 8.90994 20.4051 8.17736 20.3886H7.82332L7.88155 20.7404C7.88558 20.8074 7.90638 20.8724 7.94214 20.9295C7.97789 20.9865 8.02741 21.0338 8.08623 21.0669C8.32161 21.1448 8.57087 21.1728 8.81781 21.1491C9.4957 21.1585 10.1723 21.0871 10.833 20.9363C11.2284 21.569 11.78 22.0908 12.4354 22.452C13.0909 22.8133 13.8285 23.0019 14.578 23.0002C15.7833 22.9467 16.9562 22.5956 17.9905 21.9785L17.7831 21.2386Z" fill="#686868"/>
<path d="M18.9006 21.6064L18.7034 20.8544C20.4435 19.8204 22.3923 19.1816 24.4101 18.9837C24.4599 19.9232 24.3941 21.1082 25.0928 21.1082C25.7342 21.1082 27.1324 19.4661 28.7439 17.4069C28.8922 17.5459 29.1298 17.6924 29.3439 17.8566L28.9326 18.3875C27.3616 20.3972 26.0215 22.1131 24.92 22.1131C23.887 22.1131 23.5048 20.9122 23.4889 20.0128C21.8581 20.1936 20.2896 20.7384 18.9006 21.6064Z" fill="#686868"/>
<path d="M40.6603 5.20733C40.0189 5.20733 39.8377 4.85559 39.8377 4.35736C39.974 3.18368 40.3341 2.04655 40.8989 1.00684H39.9035C38.8124 2.92706 37.5886 4.76984 36.2411 6.52197L36.874 7.20027C37.5873 6.2913 38.2386 5.33595 38.8235 4.34056H38.955C38.955 4.39747 38.9466 4.46278 38.9466 4.52062C38.9233 4.74047 38.9503 4.96269 39.0257 5.17068C39.101 5.37868 39.2227 5.56705 39.3817 5.72174C39.5406 5.87642 39.7327 5.99344 39.9435 6.06399C40.1544 6.13454 40.3785 6.15685 40.5993 6.1292C41.6034 6.02163 42.5883 5.77995 43.5273 5.41075C44.4157 5.10844 45.2289 4.79775 45.6327 4.68392V3.70143C45.1726 3.83952 44.2344 4.19967 43.2644 4.53463C42.429 4.87149 41.5525 5.09675 40.6575 5.20454" fill="#686868"/>
<path d="M42.857 8.17353C43.844 7.7574 45.6123 7.0539 46.6321 6.68629V5.68976C43.8636 6.70756 41.1612 7.89448 38.5402 9.24369C38.6068 9.32487 39.0341 9.9211 39.0829 9.99575C39.964 9.58618 40.9158 9.34767 41.887 9.29313C43.148 9.33503 44.4091 9.20955 45.6367 8.91995V8.1679C44.8163 8.34861 43.9836 8.46903 43.1453 8.52809C42.7753 8.52809 42.6683 8.47862 42.6683 8.35639C42.6683 8.28268 42.718 8.23417 42.8561 8.17632" fill="#686868"/>
<path d="M21.3967 13.517H25.5991L25.2864 12.7659H21.7911L21.3967 13.517Z" fill="#686868"/>
<path d="M6.64853 17.2507C7.04775 17.2337 7.43939 17.1365 7.79984 16.9652C8.14543 16.804 8.52069 16.7151 8.90231 16.7039C10.1179 16.8189 11.3021 17.1537 12.3965 17.692C12.4648 17.7183 12.5374 17.7322 12.6107 17.733C12.6967 17.7359 12.7816 17.7133 12.8548 17.6684C12.9279 17.6234 12.9861 17.5579 13.022 17.4802L13.1703 17.2096C11.852 16.422 10.3855 15.9104 8.86099 15.7065C8.46385 15.7116 8.07198 15.7977 7.70968 15.9594C7.38901 16.1224 7.04067 16.2249 6.68235 16.2617C5.85128 16.2617 3.72146 15.4443 3.72146 14.6522C3.72146 13.7191 7.10961 13.3609 7.47772 13.3609L7.81485 12.6005C5.35638 12.6005 2.42836 13.4588 2.42836 14.5943C2.42836 14.9209 2.61618 15.0851 2.61618 15.3865C2.61618 15.7951 2.42836 16.0732 2.42836 16.5304C2.46967 16.8986 2.60552 17.25 2.82281 17.5511C3.05288 17.9019 3.32426 18.1305 3.32426 18.4254C3.2528 18.7539 3.20351 19.0868 3.17679 19.4218C3.17679 20.5247 3.80975 21.1946 5.04369 22.5111L5.29066 22.7724C4.27084 23.1642 2.37108 23.9853 1.9269 24.1719C0.388713 24.8092 0.00274658 25.5845 0.00274658 26.8105C0.00274658 27.2836 0.00277868 27.8238 0.0356459 28.3033H0.331454C0.948419 28.3033 1.02257 27.9367 1.02257 27.5849C1.02257 27.348 1.01414 27.0783 1.01414 26.7844C0.95859 26.4029 1.0425 26.0144 1.25063 25.6891C1.45876 25.3639 1.77732 25.1235 2.14854 25.0117C2.59272 24.8157 4.77227 23.933 6.39216 23.2463C6.83246 23.0259 7.31403 22.8989 7.80637 22.8731C8.51431 22.9317 9.19439 23.1739 9.77844 23.5757C10.4903 23.9901 11.136 24.5077 11.6941 25.1115L12.3928 24.5806C11.7417 23.8572 10.9783 23.242 10.1315 22.7583C9.47895 22.3166 8.72274 22.0496 7.93596 21.983C7.70533 21.9853 7.47609 22.0183 7.25425 22.081C7.03046 22.1525 6.79795 22.1936 6.56307 22.2032C6.37862 22.2036 6.19696 22.1582 6.03462 22.0712C5.87228 21.9842 5.73439 21.8583 5.63341 21.705C5.49349 21.5501 4.60514 20.5443 4.41264 20.2504C4.25783 20.0307 4.1692 19.7718 4.15718 19.504C4.15434 19.3475 4.19117 19.1929 4.26425 19.0542C5.09982 19.6701 6.0896 20.0461 7.12557 20.1412L6.96876 19.3649C5.316 18.932 3.55616 17.4858 3.55616 16.5546C3.55882 16.3788 3.60088 16.2057 3.67922 16.048C4.52945 16.7222 5.55696 17.139 6.63913 17.2488" fill="#686868"/>
<path d="M18.4828 17.3981C19.3583 16.8168 20.3997 16.533 21.4512 16.5891C22.0432 16.6053 22.6337 16.6571 23.2194 16.744C23.7316 16.8157 24.2479 16.8537 24.7651 16.8579C25.7148 16.8257 26.6498 16.6149 27.5204 16.2365C27.6936 16.437 27.882 16.6241 28.0838 16.7962C27.0776 17.3745 25.9468 17.705 24.7858 17.7601C24.1526 17.7501 23.5208 17.6984 22.8945 17.6052C22.3822 17.5312 21.8656 17.4904 21.3479 17.483C20.5182 17.5004 19.6989 17.6693 18.9307 17.9812L18.4828 17.3981Z" fill="#686868"/>
<path d="M33.754 20.3149C32.6824 22.6291 30.9272 24.5641 28.7216 25.8627C27.6631 26.4886 26.44 26.7847 25.2104 26.7127H21.3724C20.3906 26.6992 19.4114 26.8172 18.4613 27.0635C17.8437 27.2784 17.1982 27.4041 16.5447 27.4367C15.5853 27.4279 14.6651 27.057 13.9707 26.3992L14.8751 25.6892L14.4234 25.092C14.1604 25.2786 10.9488 27.6411 10.2708 28.171L10.2295 28.1468C10.2431 27.9948 10.2487 27.8422 10.2464 27.6896C10.2464 25.8916 9.40781 25.4587 8.1335 24.9521L7.26952 25.4587C9.02087 26.0391 9.45664 26.5047 9.45664 27.8034C9.50266 28.1518 9.44074 28.5058 9.27919 28.8184C9.11763 29.1309 8.86409 29.3871 8.5523 29.5529C7.99109 29.8614 7.3597 30.022 6.71831 30.0194C6.63591 30.0083 6.55211 30.0149 6.47254 30.0389C6.39297 30.0629 6.31954 30.1037 6.25726 30.1584C6.20371 30.2198 6.16302 30.2912 6.1377 30.3684C6.11238 30.4457 6.10289 30.5272 6.10979 30.6081V30.8936H6.31543C7.48788 30.9512 8.6408 30.579 9.55522 29.8477L13.1988 27.0206C14.0921 27.9125 15.3037 28.4178 16.5701 28.4267C17.3317 28.3927 18.0847 28.2524 18.8069 28.0096C19.6435 27.7904 20.5074 27.6911 21.3724 27.7148H25.2226C26.6196 27.782 28.0052 27.4352 29.2033 26.7183C31.5659 25.3588 33.4342 23.2905 34.54 20.8104C34.2517 20.6312 33.9765 20.468 33.7502 20.3121" fill="#686868"/>
<path d="M27.5616 23.3904C28.4692 21.6397 29.8842 20.1996 31.624 19.2561C31.3939 19.117 31.0605 18.9052 30.8925 18.7896C29.9826 19.2497 29.1681 19.8758 28.4913 20.6351C26.846 22.3342 26.9944 23.3148 25.259 23.9763C24.7204 24.1806 24.1681 24.3474 23.6062 24.4754C23.2034 23.241 22.192 22.016 21.1224 22.016C20.2173 22.1229 19.3409 22.4 18.54 22.8324C17.6594 23.2116 16.8049 23.648 15.982 24.1387L16.4336 24.7442C16.7792 24.5576 17.7746 24.0649 18.7691 23.6404C19.4491 23.2959 20.1834 23.0694 20.9402 22.9705C21.7854 22.9705 22.3375 23.9268 22.6427 24.6947C21.4929 24.9088 20.3259 25.0185 19.156 25.0222C19.0794 25.0117 19.0015 25.0163 18.9267 25.0359C18.8519 25.0554 18.7817 25.0894 18.7203 25.136C18.6206 25.2424 18.5553 25.376 18.5325 25.5195L18.4668 25.7994H19.0584C22.1338 25.7994 25.0365 25.3171 26.9033 24.19C27.1591 24.2691 27.4252 24.3102 27.6931 24.3122C28.74 24.2452 29.7401 23.857 30.5553 23.2009C30.649 23.1434 30.7262 23.0629 30.7795 22.9671C30.8328 22.8714 30.8604 22.7636 30.8596 22.6542C30.8584 22.5694 30.8528 22.4846 30.8426 22.4004L30.8098 22.0841C30.0517 22.8455 29.0529 23.3245 27.9813 23.4407C27.8398 23.4452 27.6983 23.4289 27.5616 23.3922" fill="#686868"/>
</svg>
