<svg width="104" height="41" viewBox="0 0 104 41" fill="none" xmlns="http://www.w3.org/2000/svg">
<g clip-path="url(#clip0_358_455)">
<path d="M25.0604 31.1949C24.9301 31.0732 24.8204 30.6485 24.8225 30.4546L24.8349 0.866085C24.9176 0.418617 25.1473 0.156735 25.6107 0.0928114C26.4257 -0.0206021 29.5598 -0.0329744 30.3563 0.0928114C30.7969 0.16086 31.0576 0.523783 31.039 0.958878L31.0265 30.7536C30.9624 31.1557 30.7473 31.2836 30.3625 31.3289C29.2557 31.4568 26.736 31.4279 25.5982 31.331C25.4265 31.3166 25.1886 31.3166 25.0604 31.197V31.1949Z" fill="#686868"/>
<path d="M77.2023 16.3088C76.5175 16.9914 76.2031 18.2719 76.1327 19.2122C75.8576 22.8538 76.4679 26.9573 76.1369 30.5577C76.0914 31.0608 75.9962 31.265 75.4625 31.3289C73.9109 31.5124 71.9353 31.232 70.3424 31.2732L70.0052 30.8876C69.8749 24.1921 69.8749 17.4285 70.0052 10.733C70.1624 10.4732 70.2804 10.3309 70.5927 10.2876C71.4306 10.1763 74.7426 10.1701 75.5556 10.3C76.3003 10.4175 76.0665 11.0898 76.1824 11.6342C77.7898 10.102 79.8875 9.67725 82.0658 9.89377C82.7857 9.96594 84.3724 10.2484 84.0725 11.2465C83.7063 11.8775 82.9678 15.3871 82.6057 15.6634C82.1879 15.983 81.5424 15.55 81.1225 15.4737C79.8792 15.251 78.1456 15.3706 77.2023 16.3088Z" fill="#686868"/>
<path d="M36.2769 10.3144L41.3184 10.3C41.7652 10.3454 41.8748 10.7165 41.9721 11.0918L42.001 30.3515C41.9928 30.7268 41.8728 31.1309 41.5108 31.3062L36.2604 31.3248C36.01 31.2897 35.8839 31.0588 35.8156 30.8402L35.7887 10.9578C35.7928 10.6629 36.0514 10.4588 36.2811 10.3144H36.2769Z" fill="#686868"/>
<path d="M35.9252 6.03568C35.797 5.87691 35.8032 5.69338 35.7866 5.50367C35.6873 4.33654 35.6729 2.00848 35.7846 0.85372C35.8404 0.288715 36.1363 0.129936 36.6658 0.0825085C37.7292 -0.0144085 40.1827 -0.0350291 41.2232 0.0845705C41.6349 0.131998 41.8542 0.292839 41.9514 0.699065C42.1107 1.36924 42.0838 4.61699 41.9969 5.39644C41.939 5.92021 41.7797 6.21096 41.2232 6.27488C40.1682 6.39655 37.6319 6.38005 36.5603 6.27901C36.3576 6.26045 36.0576 6.20065 35.9252 6.03568Z" fill="#686868"/>
<path d="M41.7611 34.9623C41.8748 35.0757 41.9803 35.4304 41.999 35.6015C42.0858 36.3769 42.1107 39.6349 41.9514 40.301C41.8376 40.7773 41.5811 40.8763 41.1218 40.9175C40.0295 41.0145 37.5243 41.0392 36.461 40.9155C35.9232 40.8516 35.8321 40.6433 35.7866 40.1443C35.6894 39.0947 35.6542 36.3975 35.7866 35.3912C35.8508 34.9066 36.2335 34.7623 36.6658 34.721C37.7167 34.6241 40.0875 34.6076 41.1198 34.7231C41.2915 34.7417 41.6452 34.8468 41.7611 34.9602V34.9623Z" fill="#686868"/>
<path d="M20.2734 17.0471C19.8265 10.1412 12.6026 9.15969 7.01498 10.1185C5.98269 10.2959 3.24578 11.0444 2.4845 11.6857C2.26935 11.8672 2.13695 12.1785 2.21556 12.4569C2.7948 13.2673 3.26854 14.4881 3.88501 15.2345C4.09189 15.484 4.30703 15.6531 4.65871 15.6078C5.24209 15.5335 6.30541 14.9479 7.03359 14.7767C9.97944 14.0798 14.6196 13.7931 14.0672 18.1276C8.33688 15.9047 -1.32607 17.9296 0.15099 25.8665C1.13777 31.1763 8.2893 33.16 12.6915 30.9309C12.8487 30.8505 14.0155 30.0278 14.0693 30.0876C14.0445 30.5123 14.0155 31.2217 14.5368 31.3227H19.7045C19.9796 31.2712 20.1678 30.9825 20.2547 30.7371C20.081 26.2563 20.563 21.497 20.2754 17.0471H20.2734ZM13.9721 25.2995C13.9183 25.3943 13.4114 25.8665 13.2914 25.9614C11.2124 27.5863 6.14612 27.7739 6.20197 24.2622C6.23093 22.4394 7.69351 21.8043 9.29263 21.6661C10.1884 21.5877 11.4462 21.695 12.3336 21.8723C12.8136 21.9692 14.0155 22.3053 14.0776 22.8147C14.1251 23.2003 14.1169 25.0499 13.9741 25.3015L13.9721 25.2995Z" fill="#686868"/>
<path d="M65.8885 16.6347C65.3072 9.05865 55.0443 8.84213 49.6512 10.964C48.8899 11.263 47.6466 11.5785 47.9155 12.5868C47.9569 12.7436 49.465 15.1974 49.6015 15.3397C50.1911 15.9501 50.6462 15.4428 51.2482 15.2387C53.3314 14.5355 59.1404 13.3044 59.6803 16.5295C59.7589 16.9976 59.6224 17.6368 59.6803 18.1276C55.4518 16.3027 47.1129 17.2842 45.8716 22.561C45.6213 23.6251 45.6337 25.1077 45.8716 26.1717C47.117 31.7455 55.4746 33.4652 59.6286 30.0876C59.7382 30.0855 59.5376 31.1784 60.1664 31.3001C61.7531 31.2341 63.5571 31.4733 65.1169 31.3289C65.6506 31.2794 65.8885 31.1351 65.8926 30.5557C65.6278 26.0232 66.2319 21.1217 65.8864 16.6326L65.8885 16.6347ZM59.2748 25.7098C57.3716 27.6461 51.7902 27.8605 51.8357 24.2746C51.8792 20.7464 57.535 21.4207 59.6679 22.4765C59.5727 23.4869 60.032 24.9427 59.2748 25.7119V25.7098Z" fill="#686868"/>
<path d="M89.629 22.561H103.541C104.367 16.9914 101.253 10.4299 95.0987 9.89169C81.6148 8.71425 79.2317 27.4151 89.9393 31.1186C93.543 32.3661 99.4451 31.896 102.203 29.007C102.741 28.4441 102.517 28.2564 102.041 27.8213C101.719 27.5265 98.8327 25.384 98.6238 25.3469C98.0094 25.2396 97.2522 25.9613 96.5902 26.1964C93.9733 27.1264 90.3676 26.4171 89.629 23.3879C89.5939 23.2415 89.4304 22.5589 89.6332 22.5589L89.629 22.561ZM97.6453 18.4369H89.6807C89.898 13.3477 97.2191 13.49 97.6453 18.4369Z" fill="#686868"/>
</g>
<defs>
<clipPath id="clip0_358_455">
<rect width="103.671" height="41" fill="white"/>
</clipPath>
</defs>
</svg>
