<svg width="141" height="48" viewBox="0 0 141 48" fill="none" xmlns="http://www.w3.org/2000/svg">
<path d="M59.6543 25.1235C58.9253 24.46 58.0627 23.8913 57.0722 23.4118C56.0761 22.9323 54.9855 22.4583 53.7946 21.9788C52.9432 21.661 52.1696 21.3433 51.4684 21.0254C50.7673 20.7076 50.1497 20.3564 49.621 19.9717C49.0924 19.5869 48.6806 19.1409 48.3912 18.6391C48.0963 18.1373 47.9516 17.5128 47.9516 16.7657C47.9516 16.1022 48.0907 15.5224 48.369 15.0317C48.6472 14.5411 49.0256 14.1341 49.5042 13.8163C49.9828 13.4984 50.5392 13.2587 51.1736 13.097C51.808 12.9353 52.498 12.8572 53.2381 12.8572C54.6961 12.8572 55.9759 13.0245 57.0722 13.3535C58.174 13.688 58.9976 14.0225 59.554 14.3682L60.7838 11.2236C60.1494 10.7999 59.1479 10.4096 57.7845 10.0472C56.4211 9.69033 54.902 9.5119 53.2326 9.5119C50.3444 9.5119 48.0796 10.1866 46.4324 11.5414C44.7908 12.8963 43.9671 14.7808 43.9671 17.195C43.9671 18.3659 44.1564 19.3583 44.5459 20.1835C44.9299 21.0087 45.453 21.7168 46.1152 22.3134C46.7774 22.91 47.5565 23.4285 48.4579 23.869C49.3594 24.3094 50.3111 24.6997 51.3183 25.0454C52.192 25.3632 53.0211 25.681 53.8002 25.9988C54.5792 26.3166 55.2748 26.6958 55.887 27.1362C56.4935 27.5767 56.9776 28.0897 57.3393 28.6918C57.6954 29.2884 57.8735 30.0133 57.8735 30.8607C57.8735 33.6206 55.8591 35.0034 51.8302 35.0034C50.0272 35.0034 48.5025 34.7915 47.256 34.3678C46.0095 33.944 45.0802 33.5593 44.4736 33.2136L43.3217 36.4028C43.6111 36.5645 44.0172 36.7541 44.5348 36.9827C45.0523 37.2113 45.67 37.4232 46.3823 37.6183C47.0946 37.8135 47.9126 37.9919 48.8252 38.1368C49.7378 38.2818 50.7395 38.3543 51.8247 38.3543C55.03 38.3543 57.5173 37.7019 59.2758 36.4028C61.0398 35.1037 61.9191 33.2415 61.9191 30.8273C61.9191 29.5282 61.7188 28.4186 61.3237 27.5042C60.9286 26.5898 60.361 25.7981 59.632 25.1346L59.6543 25.1235Z" fill="white"/>
<path d="M74.8183 34.5406C74.1449 34.7915 73.249 34.9197 72.136 34.9197C71.5016 34.9197 70.9452 34.8417 70.4666 34.68C69.988 34.5183 69.5928 34.2507 69.2757 33.8659C68.9585 33.4812 68.7193 32.9516 68.5579 32.2713C68.3965 31.5967 68.3185 30.7381 68.3185 29.701V20.1389H76.1482V17.0333H68.3185V10.6214L64.6236 11.2571V29.74C64.6236 31.1228 64.7348 32.3382 64.963 33.3864C65.1856 34.4347 65.5807 35.3156 66.1372 36.0348C66.6937 36.7541 67.4282 37.2893 68.3408 37.6462C69.2534 38.003 70.4165 38.1814 71.8188 38.1814C73.0096 38.1814 74.0725 38.042 75.0018 37.7632C75.9311 37.4845 76.5766 37.2503 76.9495 37.0663L76.2316 33.9997C75.9645 34.1057 75.4972 34.2841 74.8183 34.535V34.5406Z" fill="white"/>
<path d="M88.8748 16.8159C88.4797 16.749 88.0734 16.6988 87.6616 16.6542C87.2498 16.6152 86.8881 16.5929 86.571 16.5929C84.9516 16.5929 83.4937 16.7323 82.1971 17.011C80.9005 17.2898 79.8098 17.5909 78.9361 17.9087V37.7465H82.6311V20.3396C82.8425 20.2894 83.2878 20.1891 83.9611 20.0386C84.6345 19.8936 85.3189 19.8211 86.0089 19.8211C87.0662 19.8211 87.9343 19.8936 88.6132 20.0386C89.2865 20.1835 89.7707 20.3118 90.0656 20.4177L90.7 17.1895C90.5386 17.1337 90.2938 17.0779 89.9655 17.011C89.6316 16.9441 89.2699 16.8772 88.8748 16.8103V16.8159Z" fill="white"/>
<path d="M95.3132 8.43024C94.651 8.43024 94.0889 8.64768 93.6215 9.08815C93.1596 9.52862 92.9259 10.1196 92.9259 10.8612C92.9259 11.6027 93.1596 12.1938 93.6215 12.6342C94.0833 13.0747 94.651 13.2921 95.3132 13.2921C95.9754 13.2921 96.5374 13.0747 97.0049 12.6342C97.4668 12.1938 97.7005 11.6083 97.7005 10.8612C97.7005 10.1141 97.4668 9.52862 97.0049 9.08815C96.543 8.64768 95.9754 8.43024 95.3132 8.43024Z" fill="white"/>
<path d="M97.1774 17.0333H93.4824V37.7465H97.1774V17.0333Z" fill="white"/>
<path d="M115.001 17.9533C114.551 17.6634 113.866 17.3567 112.953 17.0389C112.041 16.7211 110.984 16.5594 109.793 16.5594C108.307 16.5594 106.988 16.827 105.836 17.3567C104.684 17.8864 103.71 18.6335 102.915 19.5869C102.119 20.5404 101.518 21.6834 101.106 23.0103C100.694 24.3373 100.488 25.7981 100.488 27.3927C100.488 29.0654 100.733 30.5708 101.223 31.9145C101.713 33.2582 102.408 34.3901 103.31 35.3212C104.211 36.2523 105.296 36.966 106.571 37.4733C107.845 37.9807 109.275 38.2316 110.867 38.2316C112.592 38.2316 114.111 38.1145 115.441 37.8748C116.765 37.635 117.85 37.3953 118.702 37.1555V6.84122L115.007 7.47684V17.9533H115.001ZM115.001 34.5238C114.629 34.6298 114.105 34.7302 113.432 34.825C112.759 34.9197 111.913 34.9643 110.906 34.9643C108.919 34.9643 107.327 34.3064 106.137 32.9906C104.946 31.6747 104.35 29.8125 104.35 27.3927C104.35 26.3334 104.456 25.3353 104.668 24.4042C104.879 23.4731 105.224 22.6702 105.703 21.9956C106.181 21.3209 106.793 20.7857 107.55 20.401C108.307 20.0163 109.214 19.8211 110.271 19.8211C111.329 19.8211 112.208 19.9939 113.054 20.3396C113.9 20.6853 114.551 21.0422 115.001 21.4157V34.5183V34.5238Z" fill="white"/>
<path d="M137.867 19.1297C136.381 17.3902 134.25 16.5204 131.467 16.5204C130.277 16.5204 129.108 16.749 127.967 17.195C126.826 17.6467 125.819 18.3213 124.946 19.2245C124.072 20.1278 123.371 21.2652 122.836 22.6312C122.308 23.9972 122.041 25.5974 122.041 27.4318C122.041 28.9985 122.247 30.437 122.658 31.7528C123.07 33.0686 123.699 34.2005 124.545 35.1595C125.391 36.1129 126.47 36.8656 127.784 37.412C129.097 37.9584 130.649 38.226 132.452 38.226C133.883 38.226 135.162 38.0922 136.287 37.8302C137.411 37.5626 138.201 37.3116 138.652 37.0719L138.134 33.9663C137.683 34.1782 137.016 34.4012 136.125 34.6242C135.235 34.8528 134.144 34.9643 132.847 34.9643C130.544 34.9643 128.846 34.4068 127.761 33.2917C126.676 32.1766 126.053 30.5429 125.891 28.3907H140.043C140.071 28.1789 140.082 27.9447 140.082 27.6938V27.0749C140.082 23.5177 139.342 20.8693 137.856 19.1297H137.867ZM125.981 25.4022C126.059 24.683 126.225 23.9805 126.476 23.2891C126.726 22.5977 127.077 21.99 127.528 21.4547C127.978 20.9251 128.529 20.4902 129.175 20.1612C129.826 19.8267 130.572 19.665 131.423 19.665C132.931 19.665 134.122 20.2003 134.979 21.2764C135.836 22.3524 136.259 23.724 136.231 25.3967H125.975L125.981 25.4022Z" fill="white"/>
<path d="M32.2479 19.6092C30.4059 17.7637 27.9518 16.749 25.3419 16.749C22.7321 16.749 20.278 17.7637 18.4361 19.6092L14.6632 23.3895L14.6799 23.4229L13.1942 24.9116C11.3021 26.8073 8.22478 26.8073 6.32719 24.9116C4.43518 23.0159 4.43518 19.9326 6.32719 18.0314L17.9965 6.33941C19.8885 4.44372 22.9714 4.44372 24.8634 6.33941C26.6442 8.12359 26.7554 11.0229 25.1138 12.9409L23.9953 14.2455L25.7093 14.2957C26.8389 14.3292 27.9574 14.5188 29.037 14.8589L29.6769 15.0596L29.9997 14.4686C32.0642 10.6828 31.3798 5.90452 28.3358 2.86026C26.4939 1.01475 24.0398 0 21.4299 0C18.82 0 16.366 1.01475 14.5241 2.86026L2.85479 14.5522C1.01286 16.3977 0 18.8565 0 21.4715C0 24.0864 1.01286 26.5452 2.85479 28.3907C4.69673 30.2362 7.15074 31.251 9.76061 31.251C12.3705 31.251 14.8246 30.2362 16.6666 28.3907L20.6843 24.3652L20.6676 24.3317L21.9085 23.0884C22.8211 22.174 24.0398 21.6666 25.3419 21.6666C26.6441 21.6666 27.8573 22.174 28.7755 23.0884C30.6675 24.9841 30.6675 28.0729 28.7755 29.9686L17.1061 41.6606C16.1934 42.575 14.9748 43.0824 13.6726 43.0824C12.3705 43.0824 11.1574 42.575 10.2392 41.6606C9.32105 40.7462 8.8202 39.5251 8.8202 38.2204C8.8202 36.9158 9.32662 35.7003 10.2392 34.7803L12.0032 33.0185L9.97771 33.0519H9.8663C9.83292 33.0519 9.79956 33.0575 9.76061 33.0575C8.61427 33.0575 7.47903 32.8902 6.3939 32.5613L5.80414 32.3829L5.4702 32.9014C2.98275 36.7485 3.52814 41.8948 6.76126 45.1397C8.66441 47.0466 11.1685 48 13.6671 48C16.1657 48 18.6699 47.0466 20.573 45.1397L32.2423 33.4478C34.0842 31.6023 35.097 29.1435 35.097 26.5285C35.097 23.9136 34.0842 21.4547 32.2423 19.6092H32.2479Z" fill="#FF3E00"/>
</svg>
