<svg preserveAspectRatio="none" width="100%" height="100%" overflow="visible" style="display: block;" viewBox="0 0 419.773 139" fill="none" xmlns="http://www.w3.org/2000/svg">
<path id="Vector" d="M0 138C0 138.552 0.447715 139 1 139C1.55228 139 2 138.552 2 138H1H0ZM414 138L419.773 128H408.227L414 138ZM2 137.025C2 136.473 1.55228 136.025 1 136.025C0.447715 136.025 0 136.473 0 137.025H1H2ZM0 127.275C0 127.827 0.447715 128.275 1 128.275C1.55228 128.275 2 127.827 2 127.275H1H0ZM2 125.325C2 124.773 1.55228 124.325 1 124.325C0.447715 124.325 0 124.773 0 125.325H1H2ZM0 115.575C0 116.127 0.447715 116.575 1 116.575C1.55228 116.575 2 116.127 2 115.575H1H0ZM2 113.625C2 113.073 1.55228 112.625 1 112.625C0.447715 112.625 0 113.073 0 113.625H1H2ZM0 103.875C0 104.427 0.447715 104.875 1 104.875C1.55228 104.875 2 104.427 2 103.875H1H0ZM2 101.925C2 101.373 1.55228 100.925 1 100.925C0.447715 100.925 0 101.373 0 101.925H1H2ZM0 92.175C0 92.7273 0.447715 93.175 1 93.175C1.55228 93.175 2 92.7273 2 92.175H1H0ZM2 90.225C2 89.6727 1.55228 89.225 1 89.225C0.447715 89.225 0 89.6727 0 90.225H1H2ZM0 80.475C0 81.0273 0.447715 81.475 1 81.475C1.55228 81.475 2 81.0273 2 80.475H1H0ZM2 78.525C2 77.9727 1.55228 77.525 1 77.525C0.447715 77.525 0 77.9727 0 78.525H1H2ZM0 68.775C0 69.3273 0.447715 69.775 1 69.775C1.55228 69.775 2 69.3273 2 68.775H1H0ZM2 66.825C2 66.2727 1.55228 65.825 1 65.825C0.447715 65.825 0 66.2727 0 66.825H1H2ZM0 57.075C0 57.6273 0.447715 58.075 1 58.075C1.55228 58.075 2 57.6273 2 57.075H1H0ZM2 55.125C2 54.5727 1.55228 54.125 1 54.125C0.447715 54.125 0 54.5727 0 55.125H1H2ZM0 45.375C0 45.9273 0.447715 46.375 1 46.375C1.55228 46.375 2 45.9273 2 45.375H1H0ZM2 43.425C2 42.8727 1.55228 42.425 1 42.425C0.447715 42.425 0 42.8727 0 43.425H1H2ZM0 33.675C0 34.2273 0.447715 34.675 1 34.675C1.55228 34.675 2 34.2273 2 33.675H1H0ZM2 31.725C2 31.1727 1.55228 30.725 1 30.725C0.447715 30.725 0 31.1727 0 31.725H1H2ZM0 21.975C0 22.5273 0.447715 22.975 1 22.975C1.55228 22.975 2 22.5273 2 21.975H1H0ZM2.0178 20.1697C2.04151 19.6179 1.61342 19.1514 1.06164 19.1277C0.509869 19.104 0.0433493 19.532 0.0196438 20.0838L1.01872 20.1267L2.0178 20.1697ZM2.36951 11.3006C2.11409 11.7903 2.30398 12.3943 2.79365 12.6498C3.28331 12.9052 3.88733 12.7153 4.14276 12.2256L3.25614 11.7631L2.36951 11.3006ZM4.97287 10.7909C5.27005 10.3254 5.13358 9.70708 4.66807 9.4099C4.20255 9.11272 3.58427 9.24919 3.28709 9.7147L4.12998 10.2528L4.97287 10.7909ZM9.7147 3.28709C9.24919 3.58427 9.11272 4.20255 9.4099 4.66807C9.70708 5.13358 10.3254 5.27004 10.7909 4.97287L10.2528 4.12998L9.7147 3.28709ZM12.2256 4.14276C12.7153 3.88733 12.9052 3.28331 12.6498 2.79365C12.3943 2.30398 11.7903 2.11409 11.3006 2.36951L11.7631 3.25614L12.2256 4.14276ZM20.0838 0.0196438C19.532 0.0433492 19.104 0.509869 19.1277 1.06164C19.1514 1.61342 19.6179 2.04151 20.1697 2.0178L20.1267 1.01872L20.0838 0.0196438ZM22.0027 2C22.555 2 23.0027 1.55228 23.0027 1C23.0027 0.447715 22.555 0 22.0027 0V1V2ZM32.0296 0C31.4773 0 31.0296 0.447715 31.0296 1C31.0296 1.55228 31.4773 2 32.0296 2V1V0ZM34.0349 2C34.5872 2 35.0349 1.55228 35.0349 1C35.0349 0.447715 34.5872 0 34.0349 0V1V2ZM44.0618 0C43.5095 0 43.0618 0.447715 43.0618 1C43.0618 1.55228 43.5095 2 44.0618 2V1V0ZM46.0672 2C46.6195 2 47.0672 1.55228 47.0672 1C47.0672 0.447715 46.6195 0 46.0672 0V1V2ZM56.0941 0C55.5418 0 55.0941 0.447715 55.0941 1C55.0941 1.55228 55.5418 2 56.0941 2V1V0ZM58.0995 2C58.6517 2 59.0995 1.55228 59.0995 1C59.0995 0.447715 58.6517 0 58.0995 0V1V2ZM68.1263 0C67.5741 0 67.1263 0.447715 67.1263 1C67.1263 1.55228 67.5741 2 68.1263 2V1V0ZM70.1317 2C70.684 2 71.1317 1.55228 71.1317 1C71.1317 0.447715 70.684 0 70.1317 0V1V2ZM80.1586 0C79.6063 0 79.1586 0.447715 79.1586 1C79.1586 1.55228 79.6063 2 80.1586 2V1V0ZM82.164 2C82.7163 2 83.164 1.55228 83.164 1C83.164 0.447715 82.7163 0 82.164 0V1V2ZM92.1909 0C91.6386 0 91.1909 0.447715 91.1909 1C91.1909 1.55228 91.6386 2 92.1909 2V1V0ZM94.1962 2C94.7485 2 95.1962 1.55228 95.1962 1C95.1962 0.447715 94.7485 0 94.1962 0V1V2ZM104.223 0C103.671 0 103.223 0.447715 103.223 1C103.223 1.55228 103.671 2 104.223 2V1V0ZM106.228 2C106.781 2 107.228 1.55228 107.228 1C107.228 0.447715 106.781 0 106.228 0V1V2ZM116.255 0C115.703 0 115.255 0.447715 115.255 1C115.255 1.55228 115.703 2 116.255 2V1V0ZM118.261 2C118.813 2 119.261 1.55228 119.261 1C119.261 0.447715 118.813 0 118.261 0V1V2ZM128.288 0C127.735 0 127.288 0.447715 127.288 1C127.288 1.55228 127.735 2 128.288 2V1V0ZM130.293 2C130.845 2 131.293 1.55228 131.293 1C131.293 0.447715 130.845 0 130.293 0V1V2ZM140.32 0C139.768 0 139.32 0.447715 139.32 1C139.32 1.55228 139.768 2 140.32 2V1V0ZM142.325 2C142.878 2 143.325 1.55228 143.325 1C143.325 0.447715 142.878 0 142.325 0V1V2ZM152.352 0C151.8 0 151.352 0.447715 151.352 1C151.352 1.55228 151.8 2 152.352 2V1V0ZM154.358 2C154.91 2 155.358 1.55228 155.358 1C155.358 0.447715 154.91 0 154.358 0V1V2ZM164.384 0C163.832 0 163.384 0.447715 163.384 1C163.384 1.55228 163.832 2 164.384 2V1V0ZM166.39 2C166.942 2 167.39 1.55228 167.39 1C167.39 0.447715 166.942 0 166.39 0V1V2ZM176.417 0C175.864 0 175.417 0.447715 175.417 1C175.417 1.55228 175.864 2 176.417 2V1V0ZM178.422 2C178.974 2 179.422 1.55228 179.422 1C179.422 0.447715 178.974 0 178.422 0V1V2ZM188.449 0C187.897 0 187.449 0.447715 187.449 1C187.449 1.55228 187.897 2 188.449 2V1V0ZM190.454 2C191.007 2 191.454 1.55228 191.454 1C191.454 0.447715 191.007 0 190.454 0V1V2ZM200.481 0C199.929 0 199.481 0.447715 199.481 1C199.481 1.55228 199.929 2 200.481 2V1V0ZM202.487 2C203.039 2 203.487 1.55228 203.487 1C203.487 0.447715 203.039 0 202.487 0V1V2ZM212.513 0C211.961 0 211.513 0.447715 211.513 1C211.513 1.55228 211.961 2 212.513 2V1V0ZM214.519 2C215.071 2 215.519 1.55228 215.519 1C215.519 0.447715 215.071 0 214.519 0V1V2ZM224.546 0C223.993 0 223.546 0.447715 223.546 1C223.546 1.55228 223.993 2 224.546 2V1V0ZM226.551 2C227.103 2 227.551 1.55228 227.551 1C227.551 0.447715 227.103 0 226.551 0V1V2ZM236.578 0C236.026 0 235.578 0.447715 235.578 1C235.578 1.55228 236.026 2 236.578 2V1V0ZM238.583 2C239.136 2 239.583 1.55228 239.583 1C239.583 0.447715 239.136 0 238.583 0V1V2ZM248.61 0C248.058 0 247.61 0.447715 247.61 1C247.61 1.55228 248.058 2 248.61 2V1V0ZM250.616 2C251.168 2 251.616 1.55228 251.616 1C251.616 0.447715 251.168 0 250.616 0V1V2ZM260.642 0C260.09 0 259.642 0.447715 259.642 1C259.642 1.55228 260.09 2 260.642 2V1V0ZM262.648 2C263.2 2 263.648 1.55228 263.648 1C263.648 0.447715 263.2 0 262.648 0V1V2ZM272.675 0C272.122 0 271.675 0.447715 271.675 1C271.675 1.55228 272.122 2 272.675 2V1V0ZM274.68 2C275.232 2 275.68 1.55228 275.68 1C275.68 0.447715 275.232 0 274.68 0V1V2ZM284.707 0C284.155 0 283.707 0.447715 283.707 1C283.707 1.55228 284.155 2 284.707 2V1V0ZM286.712 2C287.265 2 287.712 1.55228 287.712 1C287.712 0.447715 287.265 0 286.712 0V1V2ZM296.739 0C296.187 0 295.739 0.447715 295.739 1C295.739 1.55228 296.187 2 296.739 2V1V0ZM298.745 2C299.297 2 299.745 1.55228 299.745 1C299.745 0.447715 299.297 0 298.745 0V1V2ZM308.771 0C308.219 0 307.771 0.447715 307.771 1C307.771 1.55228 308.219 2 308.771 2V1V0ZM310.777 2C311.329 2 311.777 1.55228 311.777 1C311.777 0.447715 311.329 0 310.777 0V1V2ZM320.804 0C320.251 0 319.804 0.447715 319.804 1C319.804 1.55228 320.251 2 320.804 2V1V0ZM322.809 2C323.361 2 323.809 1.55228 323.809 1C323.809 0.447715 323.361 0 322.809 0V1V2ZM332.836 0C332.284 0 331.836 0.447715 331.836 1C331.836 1.55228 332.284 2 332.836 2V1V0ZM334.841 2C335.394 2 335.841 1.55228 335.841 1C335.841 0.447715 335.394 0 334.841 0V1V2ZM344.868 0C344.316 0 343.868 0.447715 343.868 1C343.868 1.55228 344.316 2 344.868 2V1V0ZM346.874 2C347.426 2 347.874 1.55228 347.874 1C347.874 0.447715 347.426 0 346.874 0V1V2ZM356.901 0C356.348 0 355.901 0.447715 355.901 1C355.901 1.55228 356.348 2 356.901 2V1V0ZM358.906 2C359.458 2 359.906 1.55228 359.906 1C359.906 0.447715 359.458 0 358.906 0V1V2ZM368.933 0C368.38 0 367.933 0.447715 367.933 1C367.933 1.55228 368.38 2 368.933 2V1V0ZM370.938 2C371.49 2 371.938 1.55228 371.938 1C371.938 0.447715 371.49 0 370.938 0V1V2ZM380.965 0C380.413 0 379.965 0.447715 379.965 1C379.965 1.55228 380.413 2 380.965 2V1V0ZM382.97 2C383.523 2 383.97 1.55228 383.97 1C383.97 0.447715 383.523 0 382.97 0V1V2ZM392.997 0C392.445 0 391.997 0.447715 391.997 1C391.997 1.55228 392.445 2 392.997 2V1V0ZM394.83 2.0178C395.382 2.04151 395.849 1.61342 395.872 1.06164C395.896 0.509869 395.468 0.0433493 394.916 0.0196438L394.873 1.01872L394.83 2.0178ZM403.699 2.36952C403.21 2.11409 402.606 2.30398 402.35 2.79365C402.095 3.28332 402.285 3.88733 402.774 4.14276L403.237 3.25614L403.699 2.36952ZM404.209 4.97287C404.675 5.27005 405.293 5.13358 405.59 4.66807C405.887 4.20256 405.751 3.58427 405.285 3.28709L404.747 4.12998L404.209 4.97287ZM411.713 9.7147C411.416 9.24919 410.797 9.11273 410.332 9.40991C409.866 9.70708 409.73 10.3254 410.027 10.7909L410.87 10.2528L411.713 9.7147ZM410.857 12.2256C411.113 12.7153 411.717 12.9052 412.206 12.6498C412.696 12.3943 412.886 11.7903 412.63 11.3006L411.744 11.7631L410.857 12.2256ZM414.98 20.0838C414.957 19.532 414.49 19.104 413.938 19.1277C413.387 19.1514 412.958 19.6179 412.982 20.1697L413.981 20.1267L414.98 20.0838ZM413 21.975C413 22.5273 413.448 22.975 414 22.975C414.552 22.975 415 22.5273 415 21.975H414H413ZM415 31.725C415 31.1727 414.552 30.725 414 30.725C413.448 30.725 413 31.1727 413 31.725H414H415ZM413 33.675C413 34.2273 413.448 34.675 414 34.675C414.552 34.675 415 34.2273 415 33.675H414H413ZM415 43.425C415 42.8727 414.552 42.425 414 42.425C413.448 42.425 413 42.8727 413 43.425H414H415ZM413 45.375C413 45.9273 413.448 46.375 414 46.375C414.552 46.375 415 45.9273 415 45.375H414H413ZM415 55.125C415 54.5727 414.552 54.125 414 54.125C413.448 54.125 413 54.5727 413 55.125H414H415ZM413 57.075C413 57.6273 413.448 58.075 414 58.075C414.552 58.075 415 57.6273 415 57.075H414H413ZM415 66.825C415 66.2727 414.552 65.825 414 65.825C413.448 65.825 413 66.2727 413 66.825H414H415ZM413 68.775C413 69.3273 413.448 69.775 414 69.775C414.552 69.775 415 69.3273 415 68.775H414H413ZM415 78.525C415 77.9727 414.552 77.525 414 77.525C413.448 77.525 413 77.9727 413 78.525H414H415ZM413 80.475C413 81.0273 413.448 81.475 414 81.475C414.552 81.475 415 81.0273 415 80.475H414H413ZM415 90.225C415 89.6727 414.552 89.225 414 89.225C413.448 89.225 413 89.6727 413 90.225H414H415ZM413 92.175C413 92.7273 413.448 93.175 414 93.175C414.552 93.175 415 92.7273 415 92.175H414H413ZM415 101.925C415 101.373 414.552 100.925 414 100.925C413.448 100.925 413 101.373 413 101.925H414H415ZM413 103.875C413 104.427 413.448 104.875 414 104.875C414.552 104.875 415 104.427 415 103.875H414H413ZM415 113.625C415 113.073 414.552 112.625 414 112.625C413.448 112.625 413 113.073 413 113.625H414H415ZM413 115.575C413 116.127 413.448 116.575 414 116.575C414.552 116.575 415 116.127 415 115.575H414H413ZM415 125.325C415 124.773 414.552 124.325 414 124.325C413.448 124.325 413 124.773 413 125.325H414H415ZM413 127.275C413 127.827 413.448 128.275 414 128.275C414.552 128.275 415 127.827 415 127.275H414H413ZM415 137.025C415 136.473 414.552 136.025 414 136.025C413.448 136.025 413 136.473 413 137.025H414H415ZM1 138H2V137.025H1H0V138H1ZM1 127.275H2V125.325H1H0V127.275H1ZM1 115.575H2V113.625H1H0V115.575H1ZM1 103.875H2V101.925H1H0V103.875H1ZM1 92.175H2V90.225H1H0V92.175H1ZM1 80.475H2V78.525H1H0V80.475H1ZM1 68.775H2V66.825H1H0V68.775H1ZM1 57.075H2V55.125H1H0V57.075H1ZM1 45.375H2V43.425H1H0V45.375H1ZM1 33.675H2V31.725H1H0V33.675H1ZM1 21.975H2V21H1H0V21.975H1ZM1 21H2C2 20.7217 2.00598 20.4449 2.0178 20.1697L1.01872 20.1267L0.0196438 20.0838C0.00659078 20.3876 0 20.6931 0 21H1ZM3.25614 11.7631L4.14276 12.2256C4.39898 11.7344 4.67607 11.2558 4.97287 10.7909L4.12998 10.2528L3.28709 9.7147C2.95909 10.2285 2.65279 10.7576 2.36951 11.3006L3.25614 11.7631ZM10.2528 4.12998L10.7909 4.97287C11.2558 4.67607 11.7344 4.39898 12.2256 4.14276L11.7631 3.25614L11.3006 2.36951C10.7576 2.65279 10.2285 2.95908 9.7147 3.28709L10.2528 4.12998ZM20.1267 1.01872L20.1697 2.0178C20.4449 2.00598 20.7217 2 21 2V1V0C20.6931 0 20.3876 0.00659078 20.0838 0.0196438L20.1267 1.01872ZM21 1V2H22.0027V1V0H21V1ZM32.0296 1V2H34.0349V1V0H32.0296V1ZM44.0618 1V2H46.0672V1V0H44.0618V1ZM56.0941 1V2H58.0995V1V0H56.0941V1ZM68.1263 1V2H70.1317V1V0H68.1263V1ZM80.1586 1V2H82.164V1V0H80.1586V1ZM92.1909 1V2H94.1962V1V0H92.1909V1ZM104.223 1V2H106.228V1V0H104.223V1ZM116.255 1V2H118.261V1V0H116.255V1ZM128.288 1V2H130.293V1V0H128.288V1ZM140.32 1V2H142.325V1V0H140.32V1ZM152.352 1V2H154.358V1V0H152.352V1ZM164.384 1V2H166.39V1V0H164.384V1ZM176.417 1V2H178.422V1V0H176.417V1ZM188.449 1V2H190.454V1V0H188.449V1ZM200.481 1V2H202.487V1V0H200.481V1ZM212.513 1V2H214.519V1V0H212.513V1ZM224.546 1V2H226.551V1V0H224.546V1ZM236.578 1V2H238.583V1V0H236.578V1ZM248.61 1V2H250.616V1V0H248.61V1ZM260.642 1V2H262.648V1V0H260.642V1ZM272.675 1V2H274.68V1V0H272.675V1ZM284.707 1V2H286.712V1V0H284.707V1ZM296.739 1V2H298.745V1V0H296.739V1ZM308.771 1V2H310.777V1V0H308.771V1ZM320.804 1V2H322.809V1V0H320.804V1ZM332.836 1V2H334.841V1V0H332.836V1ZM344.868 1V2H346.874V1V0H344.868V1ZM356.901 1V2H358.906V1V0H356.901V1ZM368.933 1V2H370.938V1V0H368.933V1ZM380.965 1V2H382.97V1V0H380.965V1ZM392.997 1V2H394V1V0H392.997V1ZM394 1V2C394.278 2 394.555 2.00598 394.83 2.0178L394.873 1.01872L394.916 0.0196438C394.612 0.00659078 394.307 0 394 0V1ZM403.237 3.25614L402.774 4.14276C403.266 4.39898 403.744 4.67607 404.209 4.97287L404.747 4.12998L405.285 3.28709C404.771 2.95909 404.242 2.65279 403.699 2.36952L403.237 3.25614ZM410.87 10.2528L410.027 10.7909C410.324 11.2558 410.601 11.7344 410.857 12.2256L411.744 11.7631L412.63 11.3006C412.347 10.7576 412.041 10.2285 411.713 9.7147L410.87 10.2528ZM413.981 20.1267L412.982 20.1697C412.994 20.4449 413 20.7217 413 21H414H415C415 20.6931 414.993 20.3876 414.98 20.0838L413.981 20.1267ZM414 21H413V21.975H414H415V21H414ZM414 31.725H413V33.675H414H415V31.725H414ZM414 43.425H413V45.375H414H415V43.425H414ZM414 55.125H413V57.075H414H415V55.125H414ZM414 66.825H413V68.775H414H415V66.825H414ZM414 78.525H413V80.475H414H415V78.525H414ZM414 90.225H413V92.175H414H415V90.225H414ZM414 101.925H413V103.875H414H415V101.925H414ZM414 113.625H413V115.575H414H415V113.625H414ZM414 125.325H413V127.275H414H415V125.325H414Z" fill="var(--stroke-0, #FF3E00)"/>
</svg>
