<svg preserveAspectRatio="none" width="100%" height="100%" overflow="visible" style="display: block;" viewBox="0 0 510.773 132" fill="none" xmlns="http://www.w3.org/2000/svg">
<path id="Vector" d="M1 0C0.447715 0 0 0.447715 0 1C0 1.55228 0.447715 2 1 2V1V0ZM505 132L510.773 122H499.227L505 132ZM2.00833 2C2.56062 2 3.00833 1.55228 3.00833 1C3.00833 0.447715 2.56062 0 2.00833 0V1V2ZM12.0917 0C11.5394 0 11.0917 0.447715 11.0917 1C11.0917 1.55228 11.5394 2 12.0917 2V1V0ZM14.1083 2C14.6606 2 15.1083 1.55228 15.1083 1C15.1083 0.447715 14.6606 0 14.1083 0V1V2ZM24.1917 0C23.6394 0 23.1917 0.447715 23.1917 1C23.1917 1.55228 23.6394 2 24.1917 2V1V0ZM26.2083 2C26.7606 2 27.2083 1.55228 27.2083 1C27.2083 0.447715 26.7606 0 26.2083 0V1V2ZM36.2917 0C35.7394 0 35.2917 0.447715 35.2917 1C35.2917 1.55228 35.7394 2 36.2917 2V1V0ZM38.3083 2C38.8606 2 39.3083 1.55228 39.3083 1C39.3083 0.447715 38.8606 0 38.3083 0V1V2ZM48.3917 0C47.8394 0 47.3917 0.447715 47.3917 1C47.3917 1.55228 47.8394 2 48.3917 2V1V0ZM50.4083 2C50.9606 2 51.4083 1.55228 51.4083 1C51.4083 0.447715 50.9606 0 50.4083 0V1V2ZM60.4917 0C59.9394 0 59.4917 0.447715 59.4917 1C59.4917 1.55228 59.9394 2 60.4917 2V1V0ZM62.5083 2C63.0606 2 63.5083 1.55228 63.5083 1C63.5083 0.447715 63.0606 0 62.5083 0V1V2ZM72.5917 0C72.0394 0 71.5917 0.447715 71.5917 1C71.5917 1.55228 72.0394 2 72.5917 2V1V0ZM74.6083 2C75.1606 2 75.6083 1.55228 75.6083 1C75.6083 0.447715 75.1606 0 74.6083 0V1V2ZM84.6917 0C84.1394 0 83.6917 0.447715 83.6917 1C83.6917 1.55228 84.1394 2 84.6917 2V1V0ZM86.7083 2C87.2606 2 87.7083 1.55228 87.7083 1C87.7083 0.447715 87.2606 0 86.7083 0V1V2ZM96.7917 0C96.2394 0 95.7917 0.447715 95.7917 1C95.7917 1.55228 96.2394 2 96.7917 2V1V0ZM98.8083 2C99.3606 2 99.8083 1.55228 99.8083 1C99.8083 0.447715 99.3606 0 98.8083 0V1V2ZM108.892 0C108.339 0 107.892 0.447715 107.892 1C107.892 1.55228 108.339 2 108.892 2V1V0ZM110.908 2C111.461 2 111.908 1.55228 111.908 1C111.908 0.447715 111.461 0 110.908 0V1V2ZM120.992 0C120.439 0 119.992 0.447715 119.992 1C119.992 1.55228 120.439 2 120.992 2V1V0ZM123.008 2C123.561 2 124.008 1.55228 124.008 1C124.008 0.447715 123.561 0 123.008 0V1V2ZM133.092 0C132.539 0 132.092 0.447715 132.092 1C132.092 1.55228 132.539 2 133.092 2V1V0ZM135.108 2C135.661 2 136.108 1.55228 136.108 1C136.108 0.447715 135.661 0 135.108 0V1V2ZM145.192 0C144.639 0 144.192 0.447715 144.192 1C144.192 1.55228 144.639 2 145.192 2V1V0ZM147.208 2C147.761 2 148.208 1.55228 148.208 1C148.208 0.447715 147.761 0 147.208 0V1V2ZM157.292 0C156.739 0 156.292 0.447715 156.292 1C156.292 1.55228 156.739 2 157.292 2V1V0ZM159.308 2C159.861 2 160.308 1.55228 160.308 1C160.308 0.447715 159.861 0 159.308 0V1V2ZM169.392 0C168.839 0 168.392 0.447715 168.392 1C168.392 1.55228 168.839 2 169.392 2V1V0ZM171.408 2C171.961 2 172.408 1.55228 172.408 1C172.408 0.447715 171.961 0 171.408 0V1V2ZM181.492 0C180.939 0 180.492 0.447715 180.492 1C180.492 1.55228 180.939 2 181.492 2V1V0ZM183.508 2C184.061 2 184.508 1.55228 184.508 1C184.508 0.447715 184.061 0 183.508 0V1V2ZM193.592 0C193.039 0 192.592 0.447715 192.592 1C192.592 1.55228 193.039 2 193.592 2V1V0ZM195.608 2C196.161 2 196.608 1.55228 196.608 1C196.608 0.447715 196.161 0 195.608 0V1V2ZM205.692 0C205.139 0 204.692 0.447715 204.692 1C204.692 1.55228 205.139 2 205.692 2V1V0ZM207.708 2C208.261 2 208.708 1.55228 208.708 1C208.708 0.447715 208.261 0 207.708 0V1V2ZM217.792 0C217.239 0 216.792 0.447715 216.792 1C216.792 1.55228 217.239 2 217.792 2V1V0ZM219.808 2C220.361 2 220.808 1.55228 220.808 1C220.808 0.447715 220.361 0 219.808 0V1V2ZM229.892 0C229.339 0 228.892 0.447715 228.892 1C228.892 1.55228 229.339 2 229.892 2V1V0ZM231.908 2C232.461 2 232.908 1.55228 232.908 1C232.908 0.447715 232.461 0 231.908 0V1V2ZM241.992 0C241.439 0 240.992 0.447715 240.992 1C240.992 1.55228 241.439 2 241.992 2V1V0ZM244.008 2C244.561 2 245.008 1.55228 245.008 1C245.008 0.447715 244.561 0 244.008 0V1V2ZM254.092 0C253.539 0 253.092 0.447715 253.092 1C253.092 1.55228 253.539 2 254.092 2V1V0ZM256.108 2C256.661 2 257.108 1.55228 257.108 1C257.108 0.447715 256.661 0 256.108 0V1V2ZM266.192 0C265.639 0 265.192 0.447715 265.192 1C265.192 1.55228 265.639 2 266.192 2V1V0ZM268.208 2C268.761 2 269.208 1.55228 269.208 1C269.208 0.447715 268.761 0 268.208 0V1V2ZM278.292 0C277.739 0 277.292 0.447715 277.292 1C277.292 1.55228 277.739 2 278.292 2V1V0ZM280.308 2C280.861 2 281.308 1.55228 281.308 1C281.308 0.447715 280.861 0 280.308 0V1V2ZM290.392 0C289.839 0 289.392 0.447715 289.392 1C289.392 1.55228 289.839 2 290.392 2V1V0ZM292.408 2C292.961 2 293.408 1.55228 293.408 1C293.408 0.447715 292.961 0 292.408 0V1V2ZM302.492 0C301.939 0 301.492 0.447715 301.492 1C301.492 1.55228 301.939 2 302.492 2V1V0ZM304.508 2C305.061 2 305.508 1.55228 305.508 1C305.508 0.447715 305.061 0 304.508 0V1V2ZM314.592 0C314.039 0 313.592 0.447715 313.592 1C313.592 1.55228 314.039 2 314.592 2V1V0ZM316.608 2C317.161 2 317.608 1.55228 317.608 1C317.608 0.447715 317.161 0 316.608 0V1V2ZM326.692 0C326.139 0 325.692 0.447715 325.692 1C325.692 1.55228 326.139 2 326.692 2V1V0ZM328.708 2C329.261 2 329.708 1.55228 329.708 1C329.708 0.447715 329.261 0 328.708 0V1V2ZM338.792 0C338.239 0 337.792 0.447715 337.792 1C337.792 1.55228 338.239 2 338.792 2V1V0ZM340.808 2C341.361 2 341.808 1.55228 341.808 1C341.808 0.447715 341.361 0 340.808 0V1V2ZM350.892 0C350.339 0 349.892 0.447715 349.892 1C349.892 1.55228 350.339 2 350.892 2V1V0ZM352.908 2C353.461 2 353.908 1.55228 353.908 1C353.908 0.447715 353.461 0 352.908 0V1V2ZM362.992 0C362.439 0 361.992 0.447715 361.992 1C361.992 1.55228 362.439 2 362.992 2V1V0ZM365.008 2C365.561 2 366.008 1.55228 366.008 1C366.008 0.447715 365.561 0 365.008 0V1V2ZM375.092 0C374.539 0 374.092 0.447715 374.092 1C374.092 1.55228 374.539 2 375.092 2V1V0ZM377.108 2C377.661 2 378.108 1.55228 378.108 1C378.108 0.447715 377.661 0 377.108 0V1V2ZM387.192 0C386.639 0 386.192 0.447715 386.192 1C386.192 1.55228 386.639 2 387.192 2V1V0ZM389.208 2C389.761 2 390.208 1.55228 390.208 1C390.208 0.447715 389.761 0 389.208 0V1V2ZM399.292 0C398.739 0 398.292 0.447715 398.292 1C398.292 1.55228 398.739 2 399.292 2V1V0ZM401.308 2C401.861 2 402.308 1.55228 402.308 1C402.308 0.447715 401.861 0 401.308 0V1V2ZM411.392 0C410.839 0 410.392 0.447715 410.392 1C410.392 1.55228 410.839 2 411.392 2V1V0ZM413.408 2C413.961 2 414.408 1.55228 414.408 1C414.408 0.447715 413.961 0 413.408 0V1V2ZM423.492 0C422.939 0 422.492 0.447715 422.492 1C422.492 1.55228 422.939 2 423.492 2V1V0ZM425.508 2C426.061 2 426.508 1.55228 426.508 1C426.508 0.447715 426.061 0 425.508 0V1V2ZM435.592 0C435.039 0 434.592 0.447715 434.592 1C434.592 1.55228 435.039 2 435.592 2V1V0ZM437.608 2C438.161 2 438.608 1.55228 438.608 1C438.608 0.447715 438.161 0 437.608 0V1V2ZM447.692 0C447.139 0 446.692 0.447715 446.692 1C446.692 1.55228 447.139 2 447.692 2V1V0ZM449.708 2C450.261 2 450.708 1.55228 450.708 1C450.708 0.447715 450.261 0 449.708 0V1V2ZM459.792 0C459.239 0 458.792 0.447715 458.792 1C458.792 1.55228 459.239 2 459.792 2V1V0ZM461.808 2C462.361 2 462.808 1.55228 462.808 1C462.808 0.447715 462.361 0 461.808 0V1V2ZM471.892 0C471.339 0 470.892 0.447715 470.892 1C470.892 1.55228 471.339 2 471.892 2V1V0ZM473.908 2C474.461 2 474.908 1.55228 474.908 1C474.908 0.447715 474.461 0 473.908 0V1V2ZM483.992 0C483.439 0 482.992 0.447715 482.992 1C482.992 1.55228 483.439 2 483.992 2V1V0ZM485.83 2.0178C486.382 2.04151 486.849 1.61342 486.872 1.06164C486.896 0.509869 486.468 0.0433493 485.916 0.0196438L485.873 1.01872L485.83 2.0178ZM494.699 2.36951C494.21 2.11409 493.606 2.30398 493.35 2.79365C493.095 3.28331 493.285 3.88733 493.774 4.14276L494.237 3.25614L494.699 2.36951ZM495.209 4.97287C495.675 5.27005 496.293 5.13358 496.59 4.66807C496.887 4.20255 496.751 3.58427 496.285 3.28709L495.747 4.12998L495.209 4.97287ZM502.713 9.7147C502.416 9.24918 501.797 9.11272 501.332 9.4099C500.866 9.70708 500.73 10.3254 501.027 10.7909L501.87 10.2528L502.713 9.7147ZM501.857 12.2256C502.113 12.7153 502.717 12.9052 503.206 12.6498C503.696 12.3943 503.886 11.7903 503.63 11.3006L502.744 11.7631L501.857 12.2256ZM505.98 20.0838C505.957 19.532 505.49 19.104 504.938 19.1277C504.387 19.1514 503.958 19.6179 503.982 20.1697L504.981 20.1267L505.98 20.0838ZM504 22.0278C504 22.5801 504.448 23.0278 505 23.0278C505.552 23.0278 506 22.5801 506 22.0278H505H504ZM506 32.3056C506 31.7533 505.552 31.3056 505 31.3056C504.448 31.3056 504 31.7533 504 32.3056H505H506ZM504 34.3611C504 34.9134 504.448 35.3611 505 35.3611C505.552 35.3611 506 34.9134 506 34.3611H505H504ZM506 44.6389C506 44.0866 505.552 43.6389 505 43.6389C504.448 43.6389 504 44.0866 504 44.6389H505H506ZM504 46.6944C504 47.2467 504.448 47.6944 505 47.6944C505.552 47.6944 506 47.2467 506 46.6944H505H504ZM506 56.9722C506 56.4199 505.552 55.9722 505 55.9722C504.448 55.9722 504 56.4199 504 56.9722H505H506ZM504 59.0278C504 59.5801 504.448 60.0278 505 60.0278C505.552 60.0278 506 59.5801 506 59.0278H505H504ZM506 69.3056C506 68.7533 505.552 68.3056 505 68.3056C504.448 68.3056 504 68.7533 504 69.3056H505H506ZM504 71.3611C504 71.9134 504.448 72.3611 505 72.3611C505.552 72.3611 506 71.9134 506 71.3611H505H504ZM506 81.6389C506 81.0866 505.552 80.6389 505 80.6389C504.448 80.6389 504 81.0866 504 81.6389H505H506ZM504 83.6945C504 84.2467 504.448 84.6945 505 84.6945C505.552 84.6945 506 84.2467 506 83.6945H505H504ZM506 93.9722C506 93.4199 505.552 92.9722 505 92.9722C504.448 92.9722 504 93.4199 504 93.9722H505H506ZM504 96.0278C504 96.5801 504.448 97.0278 505 97.0278C505.552 97.0278 506 96.5801 506 96.0278H505H504ZM506 106.306C506 105.753 505.552 105.306 505 105.306C504.448 105.306 504 105.753 504 106.306H505H506ZM504 108.361C504 108.913 504.448 109.361 505 109.361C505.552 109.361 506 108.913 506 108.361H505H504ZM506 118.639C506 118.087 505.552 117.639 505 117.639C504.448 117.639 504 118.087 504 118.639H505H506ZM504 120.694C504 121.247 504.448 121.694 505 121.694C505.552 121.694 506 121.247 506 120.694H505H504ZM506 130.972C506 130.42 505.552 129.972 505 129.972C504.448 129.972 504 130.42 504 130.972H505H506ZM1 1V2H2.00833V1V0H1V1ZM12.0917 1V2H14.1083V1V0H12.0917V1ZM24.1917 1V2H26.2083V1V0H24.1917V1ZM36.2917 1V2H38.3083V1V0H36.2917V1ZM48.3917 1V2H50.4083V1V0H48.3917V1ZM60.4917 1V2H62.5083V1V0H60.4917V1ZM72.5917 1V2H74.6083V1V0H72.5917V1ZM84.6917 1V2H86.7083V1V0H84.6917V1ZM96.7917 1V2H98.8083V1V0H96.7917V1ZM108.892 1V2H110.908V1V0H108.892V1ZM120.992 1V2H123.008V1V0H120.992V1ZM133.092 1V2H135.108V1V0H133.092V1ZM145.192 1V2H147.208V1V0H145.192V1ZM157.292 1V2H159.308V1V0H157.292V1ZM169.392 1V2H171.408V1V0H169.392V1ZM181.492 1V2H183.508V1V0H181.492V1ZM193.592 1V2H195.608V1V0H193.592V1ZM205.692 1V2H207.708V1V0H205.692V1ZM217.792 1V2H219.808V1V0H217.792V1ZM229.892 1V2H231.908V1V0H229.892V1ZM241.992 1V2H244.008V1V0H241.992V1ZM254.092 1V2H256.108V1V0H254.092V1ZM266.192 1V2H268.208V1V0H266.192V1ZM278.292 1V2H280.308V1V0H278.292V1ZM290.392 1V2H292.408V1V0H290.392V1ZM302.492 1V2H304.508V1V0H302.492V1ZM314.592 1V2H316.608V1V0H314.592V1ZM326.692 1V2H328.708V1V0H326.692V1ZM338.792 1V2H340.808V1V0H338.792V1ZM350.892 1V2H352.908V1V0H350.892V1ZM362.992 1V2H365.008V1V0H362.992V1ZM375.092 1V2H377.108V1V0H375.092V1ZM387.192 1V2H389.208V1V0H387.192V1ZM399.292 1V2H401.308V1V0H399.292V1ZM411.392 1V2H413.408V1V0H411.392V1ZM423.492 1V2H425.508V1V0H423.492V1ZM435.592 1V2H437.608V1V0H435.592V1ZM447.692 1V2H449.708V1V0H447.692V1ZM459.792 1V2H461.808V1V0H459.792V1ZM471.892 1V2H473.908V1V0H471.892V1ZM483.992 1V2H485V1V0H483.992V1ZM485 1V2C485.278 2 485.555 2.00598 485.83 2.0178L485.873 1.01872L485.916 0.0196438C485.612 0.00659078 485.307 0 485 0V1ZM494.237 3.25614L493.774 4.14276C494.266 4.39898 494.744 4.67607 495.209 4.97287L495.747 4.12998L496.285 3.28709C495.771 2.95908 495.242 2.65279 494.699 2.36951L494.237 3.25614ZM501.87 10.2528L501.027 10.7909C501.324 11.2558 501.601 11.7344 501.857 12.2256L502.744 11.7631L503.63 11.3006C503.347 10.7576 503.041 10.2285 502.713 9.7147L501.87 10.2528ZM504.981 20.1267L503.982 20.1697C503.994 20.4449 504 20.7217 504 21H505H506C506 20.6931 505.993 20.3876 505.98 20.0838L504.981 20.1267ZM505 21H504V22.0278H505H506V21H505ZM505 32.3056H504V34.3611H505H506V32.3056H505ZM505 44.6389H504V46.6944H505H506V44.6389H505ZM505 56.9722H504V59.0278H505H506V56.9722H505ZM505 69.3056H504V71.3611H505H506V69.3056H505ZM505 81.6389H504V83.6945H505H506V81.6389H505ZM505 93.9722H504V96.0278H505H506V93.9722H505ZM505 106.306H504V108.361H505H506V106.306H505ZM505 118.639H504V120.694H505H506V118.639H505Z" fill="var(--stroke-0, #FF3E00)"/>
</svg>
