<svg preserveAspectRatio="none" width="100%" height="100%" overflow="visible" style="display: block;" viewBox="0 0 403 158.773" fill="none" xmlns="http://www.w3.org/2000/svg">
<path id="Vector" d="M0 5.7735L10 11.547V0L0 5.7735ZM401 157.774C401 158.326 401.448 158.774 402 158.774C402.552 158.774 403 158.326 403 157.774H402H401ZM0.994792 6.7735C1.54708 6.7735 1.99479 6.32579 1.99479 5.7735C1.99479 5.22122 1.54708 4.7735 0.994792 4.7735V5.7735V6.7735ZM10.9427 4.7735C10.3904 4.7735 9.94271 5.22122 9.94271 5.7735C9.94271 6.32579 10.3904 6.7735 10.9427 6.7735V5.7735V4.7735ZM12.9323 6.7735C13.4846 6.7735 13.9323 6.32579 13.9323 5.7735C13.9323 5.22122 13.4846 4.7735 12.9323 4.7735V5.7735V6.7735ZM22.8802 4.7735C22.3279 4.7735 21.8802 5.22122 21.8802 5.7735C21.8802 6.32579 22.3279 6.7735 22.8802 6.7735V5.7735V4.7735ZM24.8698 6.7735C25.4221 6.7735 25.8698 6.32579 25.8698 5.7735C25.8698 5.22122 25.4221 4.7735 24.8698 4.7735V5.7735V6.7735ZM34.8177 4.7735C34.2654 4.7735 33.8177 5.22122 33.8177 5.7735C33.8177 6.32579 34.2654 6.7735 34.8177 6.7735V5.7735V4.7735ZM36.8073 6.7735C37.3596 6.7735 37.8073 6.32579 37.8073 5.7735C37.8073 5.22122 37.3596 4.7735 36.8073 4.7735V5.7735V6.7735ZM46.7552 4.7735C46.2029 4.7735 45.7552 5.22122 45.7552 5.7735C45.7552 6.32579 46.2029 6.7735 46.7552 6.7735V5.7735V4.7735ZM48.7448 6.7735C49.2971 6.7735 49.7448 6.32579 49.7448 5.7735C49.7448 5.22122 49.2971 4.7735 48.7448 4.7735V5.7735V6.7735ZM58.6927 4.7735C58.1404 4.7735 57.6927 5.22122 57.6927 5.7735C57.6927 6.32579 58.1404 6.7735 58.6927 6.7735V5.7735V4.7735ZM60.6823 6.7735C61.2346 6.7735 61.6823 6.32579 61.6823 5.7735C61.6823 5.22122 61.2346 4.7735 60.6823 4.7735V5.7735V6.7735ZM70.6302 4.7735C70.0779 4.7735 69.6302 5.22122 69.6302 5.7735C69.6302 6.32579 70.0779 6.7735 70.6302 6.7735V5.7735V4.7735ZM72.6198 6.7735C73.1721 6.7735 73.6198 6.32579 73.6198 5.7735C73.6198 5.22122 73.1721 4.7735 72.6198 4.7735V5.7735V6.7735ZM82.5677 4.7735C82.0154 4.7735 81.5677 5.22122 81.5677 5.7735C81.5677 6.32579 82.0154 6.7735 82.5677 6.7735V5.7735V4.7735ZM84.5573 6.7735C85.1096 6.7735 85.5573 6.32579 85.5573 5.7735C85.5573 5.22122 85.1096 4.7735 84.5573 4.7735V5.7735V6.7735ZM94.5052 4.7735C93.9529 4.7735 93.5052 5.22122 93.5052 5.7735C93.5052 6.32579 93.9529 6.7735 94.5052 6.7735V5.7735V4.7735ZM96.4948 6.7735C97.0471 6.7735 97.4948 6.32579 97.4948 5.7735C97.4948 5.22122 97.0471 4.7735 96.4948 4.7735V5.7735V6.7735ZM106.443 4.7735C105.89 4.7735 105.443 5.22122 105.443 5.7735C105.443 6.32579 105.89 6.7735 106.443 6.7735V5.7735V4.7735ZM108.432 6.7735C108.985 6.7735 109.432 6.32579 109.432 5.7735C109.432 5.22122 108.985 4.7735 108.432 4.7735V5.7735V6.7735ZM118.38 4.7735C117.828 4.7735 117.38 5.22122 117.38 5.7735C117.38 6.32579 117.828 6.7735 118.38 6.7735V5.7735V4.7735ZM120.37 6.7735C120.922 6.7735 121.37 6.32579 121.37 5.7735C121.37 5.22122 120.922 4.7735 120.37 4.7735V5.7735V6.7735ZM130.318 4.7735C129.765 4.7735 129.318 5.22122 129.318 5.7735C129.318 6.32579 129.765 6.7735 130.318 6.7735V5.7735V4.7735ZM132.307 6.7735C132.86 6.7735 133.307 6.32579 133.307 5.7735C133.307 5.22122 132.86 4.7735 132.307 4.7735V5.7735V6.7735ZM142.255 4.7735C141.703 4.7735 141.255 5.22122 141.255 5.7735C141.255 6.32579 141.703 6.7735 142.255 6.7735V5.7735V4.7735ZM144.245 6.7735C144.797 6.7735 145.245 6.32579 145.245 5.7735C145.245 5.22122 144.797 4.7735 144.245 4.7735V5.7735V6.7735ZM154.193 4.7735C153.64 4.7735 153.193 5.22122 153.193 5.7735C153.193 6.32579 153.64 6.7735 154.193 6.7735V5.7735V4.7735ZM156.182 6.7735C156.735 6.7735 157.182 6.32579 157.182 5.7735C157.182 5.22122 156.735 4.7735 156.182 4.7735V5.7735V6.7735ZM166.13 4.7735C165.578 4.7735 165.13 5.22122 165.13 5.7735C165.13 6.32579 165.578 6.7735 166.13 6.7735V5.7735V4.7735ZM168.12 6.7735C168.672 6.7735 169.12 6.32579 169.12 5.7735C169.12 5.22122 168.672 4.7735 168.12 4.7735V5.7735V6.7735ZM178.068 4.7735C177.515 4.7735 177.068 5.22122 177.068 5.7735C177.068 6.32579 177.515 6.7735 178.068 6.7735V5.7735V4.7735ZM180.057 6.7735C180.61 6.7735 181.057 6.32579 181.057 5.7735C181.057 5.22122 180.61 4.7735 180.057 4.7735V5.7735V6.7735ZM190.005 4.7735C189.453 4.7735 189.005 5.22122 189.005 5.7735C189.005 6.32579 189.453 6.7735 190.005 6.7735V5.7735V4.7735ZM191.995 6.7735C192.547 6.7735 192.995 6.32579 192.995 5.7735C192.995 5.22122 192.547 4.7735 191.995 4.7735V5.7735V6.7735ZM201.943 4.7735C201.39 4.7735 200.943 5.22122 200.943 5.7735C200.943 6.32579 201.39 6.7735 201.943 6.7735V5.7735V4.7735ZM203.932 6.7735C204.485 6.7735 204.932 6.32579 204.932 5.7735C204.932 5.22122 204.485 4.7735 203.932 4.7735V5.7735V6.7735ZM213.88 4.7735C213.328 4.7735 212.88 5.22122 212.88 5.7735C212.88 6.32579 213.328 6.7735 213.88 6.7735V5.7735V4.7735ZM215.87 6.7735C216.422 6.7735 216.87 6.32579 216.87 5.7735C216.87 5.22122 216.422 4.7735 215.87 4.7735V5.7735V6.7735ZM225.818 4.7735C225.265 4.7735 224.818 5.22122 224.818 5.7735C224.818 6.32579 225.265 6.7735 225.818 6.7735V5.7735V4.7735ZM227.807 6.7735C228.36 6.7735 228.807 6.32579 228.807 5.7735C228.807 5.22122 228.36 4.7735 227.807 4.7735V5.7735V6.7735ZM237.755 4.7735C237.203 4.7735 236.755 5.22122 236.755 5.7735C236.755 6.32579 237.203 6.7735 237.755 6.7735V5.7735V4.7735ZM239.745 6.7735C240.297 6.7735 240.745 6.32579 240.745 5.7735C240.745 5.22122 240.297 4.7735 239.745 4.7735V5.7735V6.7735ZM249.693 4.7735C249.14 4.7735 248.693 5.22122 248.693 5.7735C248.693 6.32579 249.14 6.7735 249.693 6.7735V5.7735V4.7735ZM251.682 6.7735C252.235 6.7735 252.682 6.32579 252.682 5.7735C252.682 5.22122 252.235 4.7735 251.682 4.7735V5.7735V6.7735ZM261.63 4.7735C261.078 4.7735 260.63 5.22122 260.63 5.7735C260.63 6.32579 261.078 6.7735 261.63 6.7735V5.7735V4.7735ZM263.62 6.7735C264.172 6.7735 264.62 6.32579 264.62 5.7735C264.62 5.22122 264.172 4.7735 263.62 4.7735V5.7735V6.7735ZM273.568 4.7735C273.015 4.7735 272.568 5.22122 272.568 5.7735C272.568 6.32579 273.015 6.7735 273.568 6.7735V5.7735V4.7735ZM275.557 6.7735C276.11 6.7735 276.557 6.32579 276.557 5.7735C276.557 5.22122 276.11 4.7735 275.557 4.7735V5.7735V6.7735ZM285.505 4.7735C284.953 4.7735 284.505 5.22122 284.505 5.7735C284.505 6.32579 284.953 6.7735 285.505 6.7735V5.7735V4.7735ZM287.495 6.7735C288.047 6.7735 288.495 6.32579 288.495 5.7735C288.495 5.22122 288.047 4.7735 287.495 4.7735V5.7735V6.7735ZM297.443 4.7735C296.89 4.7735 296.443 5.22122 296.443 5.7735C296.443 6.32579 296.89 6.7735 297.443 6.7735V5.7735V4.7735ZM299.432 6.7735C299.985 6.7735 300.432 6.32579 300.432 5.7735C300.432 5.22122 299.985 4.7735 299.432 4.7735V5.7735V6.7735ZM309.38 4.7735C308.828 4.7735 308.38 5.22122 308.38 5.7735C308.38 6.32579 308.828 6.7735 309.38 6.7735V5.7735V4.7735ZM311.37 6.7735C311.922 6.7735 312.37 6.32579 312.37 5.7735C312.37 5.22122 311.922 4.7735 311.37 4.7735V5.7735V6.7735ZM321.318 4.7735C320.765 4.7735 320.318 5.22122 320.318 5.7735C320.318 6.32579 320.765 6.7735 321.318 6.7735V5.7735V4.7735ZM323.307 6.7735C323.86 6.7735 324.307 6.32579 324.307 5.7735C324.307 5.22122 323.86 4.7735 323.307 4.7735V5.7735V6.7735ZM333.255 4.7735C332.703 4.7735 332.255 5.22122 332.255 5.7735C332.255 6.32579 332.703 6.7735 333.255 6.7735V5.7735V4.7735ZM335.245 6.7735C335.797 6.7735 336.245 6.32579 336.245 5.7735C336.245 5.22122 335.797 4.7735 335.245 4.7735V5.7735V6.7735ZM345.193 4.7735C344.64 4.7735 344.193 5.22122 344.193 5.7735C344.193 6.32579 344.64 6.7735 345.193 6.7735V5.7735V4.7735ZM347.182 6.7735C347.735 6.7735 348.182 6.32579 348.182 5.7735C348.182 5.22122 347.735 4.7735 347.182 4.7735V5.7735V6.7735ZM357.13 4.7735C356.578 4.7735 356.13 5.22122 356.13 5.7735C356.13 6.32579 356.578 6.7735 357.13 6.7735V5.7735V4.7735ZM359.12 6.7735C359.672 6.7735 360.12 6.32579 360.12 5.7735C360.12 5.22122 359.672 4.7735 359.12 4.7735V5.7735V6.7735ZM369.068 4.7735C368.515 4.7735 368.068 5.22122 368.068 5.7735C368.068 6.32579 368.515 6.7735 369.068 6.7735V5.7735V4.7735ZM371.057 6.7735C371.61 6.7735 372.057 6.32579 372.057 5.7735C372.057 5.22122 371.61 4.7735 371.057 4.7735V5.7735V6.7735ZM381.005 4.7735C380.453 4.7735 380.005 5.22122 380.005 5.7735C380.005 6.32579 380.453 6.7735 381.005 6.7735V5.7735V4.7735ZM382.83 6.7913C383.382 6.81501 383.849 6.38692 383.872 5.83515C383.896 5.28337 383.468 4.81685 382.916 4.79315L382.873 5.79223L382.83 6.7913ZM391.699 7.14302C391.21 6.88759 390.606 7.07748 390.35 7.56715C390.095 8.05682 390.285 8.66084 390.774 8.91626L391.237 8.02964L391.699 7.14302ZM392.209 9.74637C392.675 10.0435 393.293 9.90708 393.59 9.44157C393.887 8.97606 393.751 8.35777 393.285 8.06059L392.747 8.90348L392.209 9.74637ZM399.713 14.4882C399.416 14.0227 398.797 13.8862 398.332 14.1834C397.866 14.4806 397.73 15.0989 398.027 15.5644L398.87 15.0263L399.713 14.4882ZM398.857 16.9991C399.113 17.4888 399.717 17.6787 400.206 17.4233C400.696 17.1678 400.886 16.5638 400.63 16.0741L399.744 16.5366L398.857 16.9991ZM402.98 24.8573C402.957 24.3055 402.49 23.8774 401.938 23.9012C401.387 23.9249 400.958 24.3914 400.982 24.9432L401.981 24.9002L402.98 24.8573ZM401 26.7735C401 27.3258 401.448 27.7735 402 27.7735C402.552 27.7735 403 27.3258 403 26.7735H402H401ZM403 36.7735C403 36.2212 402.552 35.7735 402 35.7735C401.448 35.7735 401 36.2212 401 36.7735H402H403ZM401 38.7735C401 39.3258 401.448 39.7735 402 39.7735C402.552 39.7735 403 39.3258 403 38.7735H402H401ZM403 48.7735C403 48.2212 402.552 47.7735 402 47.7735C401.448 47.7735 401 48.2212 401 48.7735H402H403ZM401 50.7735C401 51.3258 401.448 51.7735 402 51.7735C402.552 51.7735 403 51.3258 403 50.7735H402H401ZM403 60.7735C403 60.2212 402.552 59.7735 402 59.7735C401.448 59.7735 401 60.2212 401 60.7735H402H403ZM401 62.7735C401 63.3258 401.448 63.7735 402 63.7735C402.552 63.7735 403 63.3258 403 62.7735H402H401ZM403 72.7735C403 72.2212 402.552 71.7735 402 71.7735C401.448 71.7735 401 72.2212 401 72.7735H402H403ZM401 74.7735C401 75.3258 401.448 75.7735 402 75.7735C402.552 75.7735 403 75.3258 403 74.7735H402H401ZM403 84.7735C403 84.2212 402.552 83.7735 402 83.7735C401.448 83.7735 401 84.2212 401 84.7735H402H403ZM401 86.7735C401 87.3258 401.448 87.7735 402 87.7735C402.552 87.7735 403 87.3258 403 86.7735H402H401ZM403 96.7735C403 96.2212 402.552 95.7735 402 95.7735C401.448 95.7735 401 96.2212 401 96.7735H402H403ZM401 98.7735C401 99.3258 401.448 99.7735 402 99.7735C402.552 99.7735 403 99.3258 403 98.7735H402H401ZM403 108.773C403 108.221 402.552 107.773 402 107.773C401.448 107.773 401 108.221 401 108.773H402H403ZM401 110.773C401 111.326 401.448 111.773 402 111.773C402.552 111.773 403 111.326 403 110.773H402H401ZM403 120.774C403 120.221 402.552 119.774 402 119.774C401.448 119.774 401 120.221 401 120.774H402H403ZM401 122.774C401 123.326 401.448 123.774 402 123.774C402.552 123.774 403 123.326 403 122.774H402H401ZM403 132.774C403 132.221 402.552 131.774 402 131.774C401.448 131.774 401 132.221 401 132.774H402H403ZM401 134.774C401 135.326 401.448 135.774 402 135.774C402.552 135.774 403 135.326 403 134.774H402H401ZM403 144.774C403 144.221 402.552 143.774 402 143.774C401.448 143.774 401 144.221 401 144.774H402H403ZM401 146.774C401 147.326 401.448 147.774 402 147.774C402.552 147.774 403 147.326 403 146.774H402H401ZM403 156.774C403 156.221 402.552 155.774 402 155.774C401.448 155.774 401 156.221 401 156.774H402H403ZM10.9427 5.7735V6.7735H12.9323V5.7735V4.7735H10.9427V5.7735ZM22.8802 5.7735V6.7735H24.8698V5.7735V4.7735H22.8802V5.7735ZM34.8177 5.7735V6.7735H36.8073V5.7735V4.7735H34.8177V5.7735ZM46.7552 5.7735V6.7735H48.7448V5.7735V4.7735H46.7552V5.7735ZM58.6927 5.7735V6.7735H60.6823V5.7735V4.7735H58.6927V5.7735ZM70.6302 5.7735V6.7735H72.6198V5.7735V4.7735H70.6302V5.7735ZM82.5677 5.7735V6.7735H84.5573V5.7735V4.7735H82.5677V5.7735ZM94.5052 5.7735V6.7735H96.4948V5.7735V4.7735H94.5052V5.7735ZM106.443 5.7735V6.7735H108.432V5.7735V4.7735H106.443V5.7735ZM118.38 5.7735V6.7735H120.37V5.7735V4.7735H118.38V5.7735ZM130.318 5.7735V6.7735H132.307V5.7735V4.7735H130.318V5.7735ZM142.255 5.7735V6.7735H144.245V5.7735V4.7735H142.255V5.7735ZM154.193 5.7735V6.7735H156.182V5.7735V4.7735H154.193V5.7735ZM166.13 5.7735V6.7735H168.12V5.7735V4.7735H166.13V5.7735ZM178.068 5.7735V6.7735H180.057V5.7735V4.7735H178.068V5.7735ZM190.005 5.7735V6.7735H191.995V5.7735V4.7735H190.005V5.7735ZM201.943 5.7735V6.7735H203.932V5.7735V4.7735H201.943V5.7735ZM213.88 5.7735V6.7735H215.87V5.7735V4.7735H213.88V5.7735ZM225.818 5.7735V6.7735H227.807V5.7735V4.7735H225.818V5.7735ZM237.755 5.7735V6.7735H239.745V5.7735V4.7735H237.755V5.7735ZM249.693 5.7735V6.7735H251.682V5.7735V4.7735H249.693V5.7735ZM261.63 5.7735V6.7735H263.62V5.7735V4.7735H261.63V5.7735ZM273.568 5.7735V6.7735H275.557V5.7735V4.7735H273.568V5.7735ZM285.505 5.7735V6.7735H287.495V5.7735V4.7735H285.505V5.7735ZM297.443 5.7735V6.7735H299.432V5.7735V4.7735H297.443V5.7735ZM309.38 5.7735V6.7735H311.37V5.7735V4.7735H309.38V5.7735ZM321.318 5.7735V6.7735H323.307V5.7735V4.7735H321.318V5.7735ZM333.255 5.7735V6.7735H335.245V5.7735V4.7735H333.255V5.7735ZM345.193 5.7735V6.7735H347.182V5.7735V4.7735H345.193V5.7735ZM357.13 5.7735V6.7735H359.12V5.7735V4.7735H357.13V5.7735ZM369.068 5.7735V6.7735H371.057V5.7735V4.7735H369.068V5.7735ZM381.005 5.7735V6.7735H382V5.7735V4.7735H381.005V5.7735ZM382 5.7735V6.7735C382.278 6.7735 382.555 6.77948 382.83 6.7913L382.873 5.79223L382.916 4.79315C382.612 4.78009 382.307 4.7735 382 4.7735V5.7735ZM391.237 8.02964L390.774 8.91626C391.266 9.17248 391.744 9.44957 392.209 9.74637L392.747 8.90348L393.285 8.06059C392.772 7.73259 392.242 7.42629 391.699 7.14302L391.237 8.02964ZM398.87 15.0263L398.027 15.5644C398.324 16.0293 398.601 16.5079 398.857 16.9991L399.744 16.5366L400.63 16.0741C400.347 15.5311 400.041 15.002 399.713 14.4882L398.87 15.0263ZM401.981 24.9002L400.982 24.9432C400.994 25.2184 401 25.4952 401 25.7735H402H403C403 25.4666 402.993 25.1611 402.98 24.8573L401.981 24.9002ZM402 25.7735H401V26.7735H402H403V25.7735H402ZM402 36.7735H401V38.7735H402H403V36.7735H402ZM402 48.7735H401V50.7735H402H403V48.7735H402ZM402 60.7735H401V62.7735H402H403V60.7735H402ZM402 72.7735H401V74.7735H402H403V72.7735H402ZM402 84.7735H401V86.7735H402H403V84.7735H402ZM402 96.7735H401V98.7735H402H403V96.7735H402ZM402 108.773H401V110.773H402H403V108.773H402ZM402 120.774H401V122.774H402H403V120.774H402ZM402 132.774H401V134.774H402H403V132.774H402ZM402 144.774H401V146.774H402H403V144.774H402ZM402 156.774H401V157.774H402H403V156.774H402Z" fill="var(--stroke-0, #FF3E00)"/>
</svg>
