<svg preserveAspectRatio="none" width="100%" height="100%" overflow="visible" style="display: block;" viewBox="0 0 492 11.5466" fill="none" xmlns="http://www.w3.org/2000/svg">
<path id="Vector" d="M0 5.85788L10.0485 11.5466L9.95081 0L0 5.85788ZM491.008 2.70448C491.561 2.69981 492.005 2.24833 492 1.69606C491.995 1.1438 491.544 0.699885 490.992 0.704556L491 1.70452L491.008 2.70448ZM1.00643 6.84941C1.55869 6.84473 2.0026 6.39325 1.99793 5.84098C1.99326 5.28872 1.54177 4.84481 0.989509 4.84948L0.997967 5.84944L1.00643 6.84941ZM10.9692 4.76506C10.4169 4.76973 9.97301 5.22122 9.97768 5.77348C9.98235 6.32575 10.4338 6.76966 10.9861 6.76499L10.9776 5.76502L10.9692 4.76506ZM12.982 6.7481C13.5343 6.74343 13.9782 6.29195 13.9735 5.73968C13.9689 5.18742 13.5174 4.7435 12.9651 4.74818L12.9736 5.74814L12.982 6.7481ZM22.9448 4.66376C22.3925 4.66843 21.9486 5.11992 21.9533 5.67218C21.958 6.22445 22.4094 6.66836 22.9617 6.66369L22.9533 5.66372L22.9448 4.66376ZM24.9576 6.6468C25.5099 6.64213 25.9538 6.19064 25.9492 5.63838C25.9445 5.08611 25.493 4.6422 24.9407 4.64687L24.9492 5.64684L24.9576 6.6468ZM34.9204 4.56246C34.3681 4.56713 33.9242 5.01861 33.9289 5.57088C33.9336 6.12314 34.3851 6.56706 34.9373 6.56238L34.9289 5.56242L34.9204 4.56246ZM36.9333 6.5455C37.4855 6.54083 37.9294 6.08934 37.9248 5.53708C37.9201 4.98481 37.4686 4.5409 36.9163 4.54557L36.9248 5.54554L36.9333 6.5455ZM46.896 4.46115C46.3437 4.46583 45.8998 4.91731 45.9045 5.46958C45.9092 6.02184 46.3607 6.46575 46.9129 6.46108L46.9045 5.46112L46.896 4.46115ZM48.9089 6.4442C49.4611 6.43953 49.905 5.98804 49.9004 5.43578C49.8957 4.88351 49.4442 4.4396 48.8919 4.44427L48.9004 5.44424L48.9089 6.4442ZM58.8716 4.35985C58.3194 4.36452 57.8754 4.81601 57.8801 5.36828C57.8848 5.92054 58.3363 6.36445 58.8885 6.35978L58.8801 5.35982L58.8716 4.35985ZM60.8845 6.3429C61.4367 6.33823 61.8806 5.88674 61.876 5.33447C61.8713 4.78221 61.4198 4.3383 60.8676 4.34297L60.876 5.34293L60.8845 6.3429ZM70.8472 4.25855C70.295 4.26322 69.8511 4.71471 69.8557 5.26697C69.8604 5.81924 70.3119 6.26315 70.8642 6.25848L70.8557 5.25852L70.8472 4.25855ZM72.8601 6.2416C73.4123 6.23692 73.8563 5.78544 73.8516 5.23317C73.8469 4.68091 73.3954 4.237 72.8432 4.24167L72.8516 5.24163L72.8601 6.2416ZM82.8228 4.15725C82.2706 4.16192 81.8267 4.61341 81.8313 5.16567C81.836 5.71794 82.2875 6.16185 82.8398 6.15718L82.8313 5.15721L82.8228 4.15725ZM84.8357 6.14029C85.388 6.13562 85.8319 5.68414 85.8272 5.13187C85.8225 4.57961 85.371 4.13569 84.8188 4.14037L84.8272 5.14033L84.8357 6.14029ZM94.7985 4.05595C94.2462 4.06062 93.8023 4.51211 93.807 5.06437C93.8116 5.61664 94.2631 6.06055 94.8154 6.05588L94.8069 5.05591L94.7985 4.05595ZM96.8113 6.03899C97.3636 6.03432 97.8075 5.58284 97.8028 5.03057C97.7981 4.47831 97.3467 4.03439 96.7944 4.03906L96.8029 5.03903L96.8113 6.03899ZM106.774 3.95465C106.222 3.95932 105.778 4.4108 105.783 4.96307C105.787 5.51533 106.239 5.95925 106.791 5.95458L106.783 4.95461L106.774 3.95465ZM108.787 5.93769C109.339 5.93302 109.783 5.48153 109.778 4.92927C109.774 4.377 109.322 3.93309 108.77 3.93776L108.778 4.93773L108.787 5.93769ZM118.75 3.85335C118.197 3.85802 117.754 4.3095 117.758 4.86177C117.763 5.41403 118.214 5.85795 118.767 5.85327L118.758 4.85331L118.75 3.85335ZM120.763 5.83639C121.315 5.83172 121.759 5.38023 121.754 4.82797C121.749 4.2757 121.298 3.83179 120.746 3.83646L120.754 4.83643L120.763 5.83639ZM130.725 3.75204C130.173 3.75672 129.729 4.2082 129.734 4.76047C129.738 5.31273 130.19 5.75664 130.742 5.75197L130.734 4.75201L130.725 3.75204ZM132.738 5.73509C133.29 5.73042 133.734 5.27893 133.73 4.72667C133.725 4.1744 133.273 3.73049 132.721 3.73516L132.73 4.73512L132.738 5.73509ZM142.701 3.65074C142.149 3.65541 141.705 4.1069 141.709 4.65917C141.714 5.21143 142.166 5.65534 142.718 5.65067L142.709 4.65071L142.701 3.65074ZM144.714 5.63379C145.266 5.62912 145.71 5.17763 145.705 4.62536C145.701 4.0731 145.249 3.62919 144.697 3.63386L144.705 4.63382L144.714 5.63379ZM154.676 3.54944C154.124 3.55411 153.68 4.0056 153.685 4.55786C153.69 5.11013 154.141 5.55404 154.693 5.54937L154.685 4.5494L154.676 3.54944ZM156.689 5.53249C157.242 5.52781 157.686 5.07633 157.681 4.52406C157.676 3.9718 157.225 3.52789 156.672 3.53256L156.681 4.53252L156.689 5.53249ZM166.652 3.44814C166.1 3.45281 165.656 3.9043 165.661 4.45656C165.665 5.00883 166.117 5.45274 166.669 5.44807L166.661 4.4481L166.652 3.44814ZM168.665 5.43118C169.217 5.42651 169.661 4.97503 169.656 4.42276C169.652 3.8705 169.2 3.42658 168.648 3.43126L168.656 4.43122L168.665 5.43118ZM178.628 3.34684C178.075 3.35151 177.632 3.803 177.636 4.35526C177.641 4.90753 178.092 5.35144 178.645 5.34677L178.636 4.3468L178.628 3.34684ZM180.641 5.32988C181.193 5.32521 181.637 4.87372 181.632 4.32146C181.627 3.76919 181.176 3.32528 180.624 3.32995L180.632 4.32992L180.641 5.32988ZM190.603 3.24554C190.051 3.25021 189.607 3.70169 189.612 4.25396C189.616 4.80622 190.068 5.25014 190.62 5.24546L190.612 4.2455L190.603 3.24554ZM192.616 5.22858C193.168 5.22391 193.612 4.77242 193.608 4.22016C193.603 3.66789 193.151 3.22398 192.599 3.22865L192.608 4.22862L192.616 5.22858ZM202.579 3.14424C202.027 3.14891 201.583 3.60039 201.587 4.15266C201.592 4.70492 202.044 5.14884 202.596 5.14416L202.587 4.1442L202.579 3.14424ZM204.592 5.12728C205.144 5.12261 205.588 4.67112 205.583 4.11886C205.579 3.56659 205.127 3.12268 204.575 3.12735L204.583 4.12732L204.592 5.12728ZM214.554 3.04293C214.002 3.04761 213.558 3.49909 213.563 4.05136C213.568 4.60362 214.019 5.04753 214.571 5.04286L214.563 4.0429L214.554 3.04293ZM216.567 5.02598C217.12 5.02131 217.564 4.56982 217.559 4.01756C217.554 3.46529 217.103 3.02138 216.55 3.02605L216.559 4.02601L216.567 5.02598ZM226.53 2.94163C225.978 2.9463 225.534 3.39779 225.539 3.95006C225.543 4.50232 225.995 4.94623 226.547 4.94156L226.539 3.9416L226.53 2.94163ZM228.543 4.92468C229.095 4.92001 229.539 4.46852 229.534 3.91625C229.53 3.36399 229.078 2.92008 228.526 2.92475L228.534 3.92471L228.543 4.92468ZM238.506 2.84033C237.953 2.845 237.51 3.29649 237.514 3.84875C237.519 4.40102 237.97 4.84493 238.523 4.84026L238.514 3.8403L238.506 2.84033ZM240.519 4.82338C241.071 4.8187 241.515 4.36722 241.51 3.81495C241.505 3.26269 241.054 2.81878 240.502 2.82345L240.51 3.82341L240.519 4.82338ZM250.481 2.73903C249.929 2.7437 249.485 3.19519 249.49 3.74745C249.494 4.29972 249.946 4.74363 250.498 4.73896L250.49 3.73899L250.481 2.73903ZM252.494 4.72207C253.046 4.7174 253.49 4.26592 253.486 3.71365C253.481 3.16139 253.029 2.71747 252.477 2.72215L252.486 3.72211L252.494 4.72207ZM262.457 2.63773C261.905 2.6424 261.461 3.09389 261.465 3.64615C261.47 4.19842 261.922 4.64233 262.474 4.63766L262.465 3.63769L262.457 2.63773ZM264.47 4.62077C265.022 4.6161 265.466 4.16461 265.461 3.61235C265.457 3.06008 265.005 2.61617 264.453 2.62084L264.461 3.62081L264.47 4.62077ZM274.433 2.53643C273.88 2.5411 273.436 2.99258 273.441 3.54485C273.446 4.09711 273.897 4.54103 274.449 4.53635L274.441 3.53639L274.433 2.53643ZM276.445 4.51947C276.998 4.5148 277.442 4.06331 277.437 3.51105C277.432 2.95878 276.981 2.51487 276.428 2.51954L276.437 3.51951L276.445 4.51947ZM286.408 2.43512C285.856 2.4398 285.412 2.89128 285.417 3.44355C285.421 3.99581 285.873 4.43972 286.425 4.43505L286.417 3.43509L286.408 2.43512ZM288.421 4.41817C288.973 4.4135 289.417 3.96201 289.413 3.40975C289.408 2.85748 288.956 2.41357 288.404 2.41824L288.413 3.41821L288.421 4.41817ZM298.384 2.33382C297.831 2.33849 297.388 2.78998 297.392 3.34225C297.397 3.89451 297.848 4.33842 298.401 4.33375L298.392 3.33379L298.384 2.33382ZM300.397 4.31687C300.949 4.3122 301.393 3.86071 301.388 3.30845C301.383 2.75618 300.932 2.31227 300.38 2.31694L300.388 3.3169L300.397 4.31687ZM310.359 2.23252C309.807 2.23719 309.363 2.68868 309.368 3.24094C309.373 3.79321 309.824 4.23712 310.376 4.23245L310.368 3.23249L310.359 2.23252ZM312.372 4.21557C312.924 4.21089 313.368 3.75941 313.364 3.20714C313.359 2.65488 312.908 2.21097 312.355 2.21564L312.364 3.2156L312.372 4.21557ZM322.335 2.13122C321.783 2.13589 321.339 2.58738 321.344 3.13964C321.348 3.69191 321.8 4.13582 322.352 4.13115L322.343 3.13118L322.335 2.13122ZM324.348 4.11426C324.9 4.10959 325.344 3.65811 325.339 3.10584C325.335 2.55358 324.883 2.10966 324.331 2.11434L324.339 3.1143L324.348 4.11426ZM334.311 2.02992C333.758 2.03459 333.314 2.48608 333.319 3.03834C333.324 3.59061 333.775 4.03452 334.328 4.02985L334.319 3.02988L334.311 2.02992ZM336.323 4.01296C336.876 4.00829 337.32 3.55681 337.315 3.00454C337.31 2.45228 336.859 2.00836 336.307 2.01303L336.315 3.013L336.323 4.01296ZM346.286 1.92862C345.734 1.93329 345.29 2.38477 345.295 2.93704C345.299 3.4893 345.751 3.93322 346.303 3.92855L346.295 2.92858L346.286 1.92862ZM348.299 3.91166C348.851 3.90699 349.295 3.4555 349.291 2.90324C349.286 2.35097 348.834 1.90706 348.282 1.91173L348.291 2.9117L348.299 3.91166ZM358.262 1.82732C357.71 1.83199 357.266 2.28347 357.27 2.83574C357.275 3.388 357.726 3.83192 358.279 3.82724L358.27 2.82728L358.262 1.82732ZM360.275 3.81036C360.827 3.80569 361.271 3.3542 361.266 2.80194C361.262 2.24967 360.81 1.80576 360.258 1.81043L360.266 2.8104L360.275 3.81036ZM370.237 1.72601C369.685 1.73069 369.241 2.18217 369.246 2.73444C369.251 3.2867 369.702 3.73061 370.254 3.72594L370.246 2.72598L370.237 1.72601ZM372.25 3.70906C372.803 3.70439 373.246 3.2529 373.242 2.70064C373.237 2.14837 372.786 1.70446 372.233 1.70913L372.242 2.70909L372.25 3.70906ZM382.213 1.62471C381.661 1.62938 381.217 2.08087 381.222 2.63314C381.226 3.1854 381.678 3.62931 382.23 3.62464L382.221 2.62468L382.213 1.62471ZM384.226 3.60776C384.778 3.60309 385.222 3.1516 385.217 2.59933C385.213 2.04707 384.761 1.60316 384.209 1.60783L384.217 2.60779L384.226 3.60776ZM394.189 1.52341C393.636 1.52808 393.193 1.97957 393.197 2.53183C393.202 3.0841 393.653 3.52801 394.206 3.52334L394.197 2.52337L394.189 1.52341ZM396.202 3.50646C396.754 3.50178 397.198 3.0503 397.193 2.49803C397.188 1.94577 396.737 1.50186 396.185 1.50653L396.193 2.50649L396.202 3.50646ZM406.164 1.42211C405.612 1.42678 405.168 1.87827 405.173 2.43053C405.177 2.9828 405.629 3.42671 406.181 3.42204L406.173 2.42207L406.164 1.42211ZM408.177 3.40515C408.729 3.40048 409.173 2.949 409.169 2.39673C409.164 1.84447 408.712 1.40055 408.16 1.40523L408.169 2.40519L408.177 3.40515ZM418.14 1.32081C417.588 1.32548 417.144 1.77697 417.148 2.32923C417.153 2.8815 417.605 3.32541 418.157 3.32074L418.148 2.32077L418.14 1.32081ZM420.153 3.30385C420.705 3.29918 421.149 2.84769 421.144 2.29543C421.14 1.74316 420.688 1.29925 420.136 1.30392L420.144 2.30389L420.153 3.30385ZM430.116 1.21951C429.563 1.22418 429.119 1.67566 429.124 2.22793C429.129 2.78019 429.58 3.22411 430.132 3.21943L430.124 2.21947L430.116 1.21951ZM432.128 3.20255C432.681 3.19788 433.125 2.74639 433.12 2.19413C433.115 1.64186 432.664 1.19795 432.111 1.20262L432.12 2.20259L432.128 3.20255ZM442.091 1.1182C441.539 1.12288 441.095 1.57436 441.1 2.12663C441.104 2.67889 441.556 3.1228 442.108 3.11813L442.1 2.11817L442.091 1.1182ZM444.104 3.10125C444.656 3.09658 445.1 2.64509 445.095 2.09283C445.091 1.54056 444.639 1.09665 444.087 1.10132L444.096 2.10129L444.104 3.10125ZM454.067 1.0169C453.514 1.02157 453.071 1.47306 453.075 2.02533C453.08 2.57759 453.531 3.0215 454.084 3.01683L454.075 2.01687L454.067 1.0169ZM456.08 2.99995C456.632 2.99528 457.076 2.54379 457.071 1.99152C457.066 1.43926 456.615 0.995348 456.063 1.00002L456.071 1.99998L456.08 2.99995ZM466.042 0.915601C465.49 0.920273 465.046 1.37176 465.051 1.92402C465.056 2.47629 465.507 2.9202 466.059 2.91553L466.051 1.91557L466.042 0.915601ZM468.055 2.89865C468.607 2.89397 469.051 2.44249 469.047 1.89022C469.042 1.33796 468.591 0.894046 468.038 0.898718L468.047 1.89868L468.055 2.89865ZM478.018 0.8143C477.466 0.818971 477.022 1.27046 477.026 1.82272C477.031 2.37499 477.483 2.8189 478.035 2.81423L478.026 1.81426L478.018 0.8143ZM480.031 2.79734C480.583 2.79267 481.027 2.34119 481.022 1.78892C481.018 1.23666 480.566 0.792745 480.014 0.797416L480.022 1.79738L480.031 2.79734ZM489.994 0.712998C489.441 0.71767 488.997 1.16916 489.002 1.72142C489.007 2.27369 489.458 2.7176 490.011 2.71293L490.002 1.71296L489.994 0.712998ZM10.9776 5.76502L10.9861 6.76499L12.982 6.7481L12.9736 5.74814L12.9651 4.74818L10.9692 4.76506L10.9776 5.76502ZM22.9533 5.66372L22.9617 6.66369L24.9576 6.6468L24.9492 5.64684L24.9407 4.64687L22.9448 4.66376L22.9533 5.66372ZM34.9289 5.56242L34.9373 6.56238L36.9333 6.5455L36.9248 5.54554L36.9163 4.54557L34.9204 4.56246L34.9289 5.56242ZM46.9045 5.46112L46.9129 6.46108L48.9089 6.4442L48.9004 5.44424L48.8919 4.44427L46.896 4.46115L46.9045 5.46112ZM58.8801 5.35982L58.8885 6.35978L60.8845 6.3429L60.876 5.34293L60.8676 4.34297L58.8716 4.35985L58.8801 5.35982ZM70.8557 5.25852L70.8642 6.25848L72.8601 6.2416L72.8516 5.24163L72.8432 4.24167L70.8472 4.25855L70.8557 5.25852ZM82.8313 5.15721L82.8398 6.15718L84.8357 6.14029L84.8272 5.14033L84.8188 4.14037L82.8228 4.15725L82.8313 5.15721ZM94.8069 5.05591L94.8154 6.05588L96.8113 6.03899L96.8029 5.03903L96.7944 4.03906L94.7985 4.05595L94.8069 5.05591ZM106.783 4.95461L106.791 5.95458L108.787 5.93769L108.778 4.93773L108.77 3.93776L106.774 3.95465L106.783 4.95461ZM118.758 4.85331L118.767 5.85327L120.763 5.83639L120.754 4.83643L120.746 3.83646L118.75 3.85335L118.758 4.85331ZM130.734 4.75201L130.742 5.75197L132.738 5.73509L132.73 4.73512L132.721 3.73516L130.725 3.75204L130.734 4.75201ZM142.709 4.65071L142.718 5.65067L144.714 5.63379L144.705 4.63382L144.697 3.63386L142.701 3.65074L142.709 4.65071ZM154.685 4.5494L154.693 5.54937L156.689 5.53249L156.681 4.53252L156.672 3.53256L154.676 3.54944L154.685 4.5494ZM166.661 4.4481L166.669 5.44807L168.665 5.43118L168.656 4.43122L168.648 3.43126L166.652 3.44814L166.661 4.4481ZM178.636 4.3468L178.645 5.34677L180.641 5.32988L180.632 4.32992L180.624 3.32995L178.628 3.34684L178.636 4.3468ZM190.612 4.2455L190.62 5.24546L192.616 5.22858L192.608 4.22862L192.599 3.22865L190.603 3.24554L190.612 4.2455ZM202.587 4.1442L202.596 5.14416L204.592 5.12728L204.583 4.12732L204.575 3.12735L202.579 3.14424L202.587 4.1442ZM214.563 4.0429L214.571 5.04286L216.567 5.02598L216.559 4.02601L216.55 3.02605L214.554 3.04293L214.563 4.0429ZM226.539 3.9416L226.547 4.94156L228.543 4.92468L228.534 3.92471L228.526 2.92475L226.53 2.94163L226.539 3.9416ZM238.514 3.8403L238.523 4.84026L240.519 4.82338L240.51 3.82341L240.502 2.82345L238.506 2.84033L238.514 3.8403ZM250.49 3.73899L250.498 4.73896L252.494 4.72207L252.486 3.72211L252.477 2.72215L250.481 2.73903L250.49 3.73899ZM262.465 3.63769L262.474 4.63766L264.47 4.62077L264.461 3.62081L264.453 2.62084L262.457 2.63773L262.465 3.63769ZM274.441 3.53639L274.449 4.53635L276.445 4.51947L276.437 3.51951L276.428 2.51954L274.433 2.53643L274.441 3.53639ZM286.417 3.43509L286.425 4.43505L288.421 4.41817L288.413 3.41821L288.404 2.41824L286.408 2.43512L286.417 3.43509ZM298.392 3.33379L298.401 4.33375L300.397 4.31687L300.388 3.3169L300.38 2.31694L298.384 2.33382L298.392 3.33379ZM310.368 3.23249L310.376 4.23245L312.372 4.21557L312.364 3.2156L312.355 2.21564L310.359 2.23252L310.368 3.23249ZM322.343 3.13118L322.352 4.13115L324.348 4.11426L324.339 3.1143L324.331 2.11434L322.335 2.13122L322.343 3.13118ZM334.319 3.02988L334.328 4.02985L336.323 4.01296L336.315 3.013L336.307 2.01303L334.311 2.02992L334.319 3.02988ZM346.295 2.92858L346.303 3.92855L348.299 3.91166L348.291 2.9117L348.282 1.91173L346.286 1.92862L346.295 2.92858ZM358.27 2.82728L358.279 3.82724L360.275 3.81036L360.266 2.8104L360.258 1.81043L358.262 1.82732L358.27 2.82728ZM370.246 2.72598L370.254 3.72594L372.25 3.70906L372.242 2.70909L372.233 1.70913L370.237 1.72601L370.246 2.72598ZM382.221 2.62468L382.23 3.62464L384.226 3.60776L384.217 2.60779L384.209 1.60783L382.213 1.62471L382.221 2.62468ZM394.197 2.52337L394.206 3.52334L396.202 3.50646L396.193 2.50649L396.185 1.50653L394.189 1.52341L394.197 2.52337ZM406.173 2.42207L406.181 3.42204L408.177 3.40515L408.169 2.40519L408.16 1.40523L406.164 1.42211L406.173 2.42207ZM418.148 2.32077L418.157 3.32074L420.153 3.30385L420.144 2.30389L420.136 1.30392L418.14 1.32081L418.148 2.32077ZM430.124 2.21947L430.132 3.21943L432.128 3.20255L432.12 2.20259L432.111 1.20262L430.116 1.21951L430.124 2.21947ZM442.1 2.11817L442.108 3.11813L444.104 3.10125L444.096 2.10129L444.087 1.10132L442.091 1.1182L442.1 2.11817ZM454.075 2.01687L454.084 3.01683L456.08 2.99995L456.071 1.99998L456.063 1.00002L454.067 1.0169L454.075 2.01687ZM466.051 1.91557L466.059 2.91553L468.055 2.89865L468.047 1.89868L468.038 0.898718L466.042 0.915601L466.051 1.91557ZM478.026 1.81426L478.035 2.81423L480.031 2.79734L480.022 1.79738L480.014 0.797416L478.018 0.8143L478.026 1.81426ZM490.002 1.71296L490.011 2.71293L491.008 2.70448L491 1.70452L490.992 0.704556L489.994 0.712998L490.002 1.71296Z" fill="var(--stroke-0, #FF3E00)"/>
</svg>
