<svg preserveAspectRatio="none" width="100%" height="100%" overflow="visible" style="display: block;" viewBox="0 0 293.5 11.547" fill="none" xmlns="http://www.w3.org/2000/svg">
<path id="Vector" d="M0 5.77351L10 11.547L9.99999 0L0 5.77351ZM292.5 6.77317C293.052 6.77317 293.5 6.32545 293.5 5.77317C293.5 5.22088 293.052 4.77317 292.5 4.77317V5.77317V6.77317ZM1.01563 6.77351C1.56791 6.77351 2.01563 6.3258 2.01562 5.77351C2.01562 5.22123 1.56791 4.77351 1.01562 4.77351L1.01562 5.77351L1.01563 6.77351ZM11.1719 4.7735C10.6196 4.7735 10.1719 5.22122 10.1719 5.7735C10.1719 6.32579 10.6196 6.7735 11.1719 6.7735L11.1719 5.7735L11.1719 4.7735ZM13.2031 6.7735C13.7554 6.7735 14.2031 6.32578 14.2031 5.7735C14.2031 5.22121 13.7554 4.7735 13.2031 4.7735L13.2031 5.7735L13.2031 6.7735ZM23.3594 4.77349C22.8071 4.77349 22.3594 5.2212 22.3594 5.77349C22.3594 6.32577 22.8071 6.77349 23.3594 6.77349L23.3594 5.77349V4.77349ZM25.3906 6.77348C25.9429 6.77348 26.3906 6.32577 26.3906 5.77348C26.3906 5.2212 25.9429 4.77348 25.3906 4.77348V5.77348L25.3906 6.77348ZM35.5469 4.77347C34.9946 4.77347 34.5469 5.22119 34.5469 5.77347C34.5469 6.32576 34.9946 6.77347 35.5469 6.77347V5.77347V4.77347ZM37.5781 6.77347C38.1304 6.77347 38.5781 6.32575 38.5781 5.77347C38.5781 5.22118 38.1304 4.77347 37.5781 4.77347V5.77347V6.77347ZM47.7344 4.77346C47.1821 4.77346 46.7344 5.22117 46.7344 5.77346C46.7344 6.32574 47.1821 6.77346 47.7344 6.77346L47.7344 5.77346V4.77346ZM49.7656 6.77346C50.3179 6.77345 50.7656 6.32574 50.7656 5.77345C50.7656 5.22117 50.3179 4.77345 49.7656 4.77346L49.7656 5.77346V6.77346ZM59.9219 4.77344C59.3696 4.77344 58.9219 5.22116 58.9219 5.77344C58.9219 6.32573 59.3696 6.77344 59.9219 6.77344L59.9219 5.77344V4.77344ZM61.9531 6.77344C62.5054 6.77344 62.9531 6.32572 62.9531 5.77344C62.9531 5.22116 62.5054 4.77344 61.9531 4.77344L61.9531 5.77344V6.77344ZM72.1094 4.77343C71.5571 4.77343 71.1094 5.22115 71.1094 5.77343C71.1094 6.32572 71.5571 6.77343 72.1094 6.77343V5.77343V4.77343ZM74.1406 6.77343C74.6929 6.77343 75.1406 6.32571 75.1406 5.77343C75.1406 5.22114 74.6929 4.77343 74.1406 4.77343V5.77343L74.1406 6.77343ZM84.2969 4.77341C83.7446 4.77342 83.2969 5.22113 83.2969 5.77342C83.2969 6.3257 83.7446 6.77342 84.2969 6.77341V5.77341V4.77341ZM86.3281 6.77341C86.8804 6.77341 87.3281 6.3257 87.3281 5.77341C87.3281 5.22113 86.8804 4.77341 86.3281 4.77341V5.77341V6.77341ZM96.4844 4.7734C95.9321 4.7734 95.4844 5.22112 95.4844 5.7734C95.4844 6.32569 95.9321 6.7734 96.4844 6.7734V5.7734V4.7734ZM98.5156 6.7734C99.0679 6.7734 99.5156 6.32568 99.5156 5.7734C99.5156 5.22111 99.0679 4.7734 98.5156 4.7734V5.7734V6.7734ZM108.672 4.77339C108.12 4.77339 107.672 5.2211 107.672 5.77339C107.672 6.32567 108.12 6.77339 108.672 6.77339V5.77339L108.672 4.77339ZM110.703 6.77338C111.255 6.77338 111.703 6.32567 111.703 5.77338C111.703 5.2211 111.255 4.77338 110.703 4.77338V5.77338L110.703 6.77338ZM120.859 4.77337C120.307 4.77337 119.859 5.22109 119.859 5.77337C119.859 6.32566 120.307 6.77337 120.859 6.77337V5.77337V4.77337ZM122.891 6.77337C123.443 6.77337 123.891 6.32565 123.891 5.77337C123.891 5.22108 123.443 4.77337 122.891 4.77337V5.77337V6.77337ZM133.047 4.77336C132.495 4.77336 132.047 5.22107 132.047 5.77336C132.047 6.32564 132.495 6.77336 133.047 6.77336V5.77336V4.77336ZM135.078 6.77335C135.63 6.77335 136.078 6.32564 136.078 5.77335C136.078 5.22107 135.63 4.77335 135.078 4.77335V5.77335V6.77335ZM145.234 4.77334C144.682 4.77334 144.234 5.22106 144.234 5.77334C144.234 6.32563 144.682 6.77334 145.234 6.77334V5.77334V4.77334ZM147.266 6.77334C147.818 6.77334 148.266 6.32562 148.266 5.77334C148.266 5.22105 147.818 4.77334 147.266 4.77334V5.77334V6.77334ZM157.422 4.77333C156.87 4.77333 156.422 5.22104 156.422 5.77333C156.422 6.32561 156.87 6.77333 157.422 6.77333L157.422 5.77333V4.77333ZM159.453 6.77333C160.005 6.77332 160.453 6.32561 160.453 5.77332C160.453 5.22104 160.005 4.77333 159.453 4.77333V5.77333V6.77333ZM169.609 4.77331C169.057 4.77331 168.609 5.22103 168.609 5.77331C168.609 6.3256 169.057 6.77331 169.609 6.77331V5.77331V4.77331ZM171.641 6.77331C172.193 6.77331 172.641 6.32559 172.641 5.77331C172.641 5.22103 172.193 4.77331 171.641 4.77331L171.641 5.77331V6.77331ZM181.797 4.7733C181.245 4.7733 180.797 5.22102 180.797 5.7733C180.797 6.32559 181.245 6.7733 181.797 6.7733V5.7733V4.7733ZM183.828 6.7733C184.38 6.7733 184.828 6.32558 184.828 5.7733C184.828 5.22101 184.38 4.7733 183.828 4.7733V5.7733V6.7733ZM193.984 4.77328C193.432 4.77329 192.984 5.221 192.984 5.77329C192.984 6.32557 193.432 6.77329 193.984 6.77328L193.984 5.77328V4.77328ZM196.016 6.77328C196.568 6.77328 197.016 6.32557 197.016 5.77328C197.016 5.221 196.568 4.77328 196.016 4.77328V5.77328V6.77328ZM206.172 4.77327C205.62 4.77327 205.172 5.22099 205.172 5.77327C205.172 6.32556 205.62 6.77327 206.172 6.77327V5.77327V4.77327ZM208.203 6.77327C208.755 6.77327 209.203 6.32555 209.203 5.77327C209.203 5.22098 208.755 4.77327 208.203 4.77327L208.203 5.77327V6.77327ZM218.359 4.77326C217.807 4.77326 217.359 5.22097 217.359 5.77326C217.359 6.32554 217.807 6.77326 218.359 6.77326V5.77326V4.77326ZM220.391 6.77325C220.943 6.77325 221.391 6.32554 221.391 5.77325C221.391 5.22097 220.943 4.77325 220.391 4.77325V5.77325V6.77325ZM230.547 4.77324C229.995 4.77324 229.547 5.22096 229.547 5.77324C229.547 6.32553 229.995 6.77324 230.547 6.77324L230.547 5.77324V4.77324ZM232.578 6.77324C233.13 6.77324 233.578 6.32552 233.578 5.77324C233.578 5.22095 233.13 4.77324 232.578 4.77324V5.77324V6.77324ZM242.734 4.77323C242.182 4.77323 241.734 5.22094 241.734 5.77323C241.734 6.32551 242.182 6.77323 242.734 6.77323V5.77323V4.77323ZM244.766 6.77322C245.318 6.77322 245.766 6.32551 245.766 5.77322C245.766 5.22094 245.318 4.77322 244.766 4.77322L244.766 5.77322V6.77322ZM254.922 4.77321C254.37 4.77321 253.922 5.22093 253.922 5.77321C253.922 6.3255 254.37 6.77321 254.922 6.77321V5.77321V4.77321ZM256.953 6.77321C257.505 6.77321 257.953 6.32549 257.953 5.77321C257.953 5.22092 257.505 4.77321 256.953 4.77321V5.77321V6.77321ZM267.109 4.7732C266.557 4.7732 266.109 5.22091 266.109 5.7732C266.109 6.32548 266.557 6.7732 267.109 6.7732V5.7732V4.7732ZM269.141 6.7732C269.693 6.7732 270.141 6.32548 270.141 5.77319C270.141 5.22091 269.693 4.7732 269.141 4.7732V5.7732V6.7732ZM279.297 4.77318C278.745 4.77318 278.297 5.2209 278.297 5.77318C278.297 6.32547 278.745 6.77318 279.297 6.77318V5.77318V4.77318ZM281.328 6.77318C281.88 6.77318 282.328 6.32546 282.328 5.77318C282.328 5.2209 281.88 4.77318 281.328 4.77318V5.77318V6.77318ZM291.484 4.77317C290.932 4.77317 290.484 5.22089 290.484 5.77317C290.484 6.32546 290.932 6.77317 291.484 6.77317V5.77317V4.77317ZM11.1719 5.7735L11.1719 6.7735L13.2031 6.7735L13.2031 5.7735L13.2031 4.7735L11.1719 4.7735L11.1719 5.7735ZM23.3594 5.77349L23.3594 6.77349L25.3906 6.77348L25.3906 5.77348V4.77348L23.3594 4.77349V5.77349ZM35.5469 5.77347V6.77347L37.5781 6.77347V5.77347V4.77347L35.5469 4.77347V5.77347ZM47.7344 5.77346L47.7344 6.77346L49.7656 6.77346V5.77346L49.7656 4.77346L47.7344 4.77346V5.77346ZM59.9219 5.77344L59.9219 6.77344L61.9531 6.77344V5.77344L61.9531 4.77344L59.9219 4.77344V5.77344ZM72.1094 5.77343V6.77343L74.1406 6.77343L74.1406 5.77343V4.77343L72.1094 4.77343V5.77343ZM84.2969 5.77341V6.77341L86.3281 6.77341V5.77341V4.77341L84.2969 4.77341V5.77341ZM96.4844 5.7734V6.7734L98.5156 6.7734V5.7734V4.7734L96.4844 4.7734V5.7734ZM108.672 5.77339V6.77339L110.703 6.77338L110.703 5.77338V4.77338L108.672 4.77339L108.672 5.77339ZM120.859 5.77337V6.77337L122.891 6.77337V5.77337V4.77337L120.859 4.77337V5.77337ZM133.047 5.77336V6.77336L135.078 6.77335V5.77335V4.77335L133.047 4.77336V5.77336ZM145.234 5.77334V6.77334L147.266 6.77334V5.77334V4.77334L145.234 4.77334V5.77334ZM157.422 5.77333L157.422 6.77333L159.453 6.77333V5.77333V4.77333L157.422 4.77333V5.77333ZM169.609 5.77331V6.77331L171.641 6.77331V5.77331L171.641 4.77331L169.609 4.77331V5.77331ZM181.797 5.7733V6.7733L183.828 6.7733V5.7733V4.7733L181.797 4.7733V5.7733ZM193.984 5.77328L193.984 6.77328L196.016 6.77328V5.77328V4.77328L193.984 4.77328V5.77328ZM206.172 5.77327V6.77327L208.203 6.77327V5.77327L208.203 4.77327L206.172 4.77327V5.77327ZM218.359 5.77326V6.77326L220.391 6.77325V5.77325V4.77325L218.359 4.77326V5.77326ZM230.547 5.77324L230.547 6.77324L232.578 6.77324V5.77324V4.77324L230.547 4.77324V5.77324ZM242.734 5.77323V6.77323L244.766 6.77322V5.77322L244.766 4.77322L242.734 4.77323V5.77323ZM254.922 5.77321V6.77321L256.953 6.77321V5.77321V4.77321L254.922 4.77321V5.77321ZM267.109 5.7732V6.7732L269.141 6.7732V5.7732V4.7732L267.109 4.7732V5.7732ZM279.297 5.77318V6.77318L281.328 6.77318V5.77318V4.77318L279.297 4.77318V5.77318ZM291.484 5.77317V6.77317L292.5 6.77317V5.77317V4.77317L291.484 4.77317V5.77317Z" fill="var(--stroke-0, #FF3E00)"/>
</svg>
