<svg preserveAspectRatio="none" width="100%" height="100%" overflow="visible" style="display: block;" viewBox="0 0 74 72.3001" fill="none" xmlns="http://www.w3.org/2000/svg">
<g id="Frame 1593590799">
<path id="Vector" d="M54.258 54.2251C64.2466 44.2425 64.2466 28.0576 54.258 18.075C44.2693 8.09246 28.0746 8.09247 18.086 18.075C8.09737 28.0576 8.09737 44.2425 18.086 54.2251C28.0746 64.2077 44.2693 64.2077 54.258 54.2251Z" fill="var(--fill-0, #FFC799)"/>
<path id="Vector_2" fill-rule="evenodd" clip-rule="evenodd" d="M44.9184 25.3952C32.7194 34.1728 24.7972 46.1089 22.3164 57.6386C26.3094 60.2158 31.066 61.7122 36.1729 61.7122C50.2991 61.7122 61.7504 50.2679 61.7504 36.1502C61.7504 29.6745 59.3401 23.7628 55.3678 19.2588C51.8114 20.9161 48.3014 22.9607 44.9175 25.3952H44.9184Z" fill="var(--fill-0, #FF7B3F)"/>
<path id="Vector_3" d="M41.9009 41.8738C45.0641 38.7126 45.0641 33.5872 41.9009 30.426C38.7378 27.2647 33.6093 27.2647 30.4461 30.426C27.283 33.5872 27.283 38.7126 30.4461 41.8738C33.6093 45.0351 38.7378 45.0351 41.9009 41.8738Z" fill="var(--fill-0, #FFE6CC)"/>
<path id="Vector_4" fill-rule="evenodd" clip-rule="evenodd" d="M40.2005 29.1265C36.0266 32.7496 32.4909 36.7568 29.6523 40.9548C31.1272 42.9513 33.4985 44.2462 36.1727 44.2462C40.6462 44.2462 44.2724 40.6222 44.2724 36.1513C44.2724 33.1461 42.634 30.5233 40.2005 29.1265Z" fill="var(--fill-0, #FFC799)"/>
<path id="Vector_5" d="M72.9222 13.5099L68.2337 12.4847L68.3125 7.73591C68.3291 7.4149 68.2337 7.08727 68.0179 6.8152C67.5473 6.2213 66.6833 6.1201 66.089 6.59042L60.2061 11.2438C59.8949 11.4901 59.6924 11.8692 59.6857 12.2964L59.6135 16.6138L57.6955 18.0197C52.3164 11.6543 44.4614 7.99637 36.1094 7.99637C20.5116 7.99637 7.86519 20.6351 7.86519 36.2234C7.86519 51.8118 20.5107 64.4505 36.1094 64.4505C51.708 64.4505 64.3535 51.8126 64.3535 36.2234C64.3535 30.6635 62.7442 25.4792 59.9671 21.1095L61.7374 19.8114L66.4028 20.8317C66.8036 20.9345 67.2468 20.8549 67.5963 20.5787L73.4792 15.9253C73.719 15.7354 73.8975 15.465 73.968 15.1431C74.1299 14.4032 73.6617 13.6725 72.9214 13.5099H72.9222ZM60.5083 36.2226C60.5083 49.69 49.5849 60.6067 36.1094 60.6067C22.6338 60.6067 11.7105 49.69 11.7105 36.2226C11.7105 22.7552 22.6338 11.8385 36.1094 11.8385C43.2322 11.8385 49.9401 14.9167 54.5872 20.2983L50.5659 23.2463C46.8684 19.1354 41.647 16.8029 36.1094 16.8029C25.3777 16.8029 16.6771 25.4983 16.6771 36.2234C16.6771 46.9486 25.3777 55.6439 36.1094 55.6439C46.841 55.6439 55.5417 46.9486 55.5417 36.2234C55.5417 32.6127 54.5556 29.2326 52.8384 26.3361L56.8588 23.3881C59.1728 27.1158 60.5083 31.5137 60.5083 36.2226ZM34.5623 37.3565C35.1889 38.21 36.3891 38.395 37.2431 37.7696L42.8679 33.6454C43.1741 34.4459 43.341 35.3152 43.341 36.2234C43.341 40.2157 40.1032 43.4515 36.1085 43.4515C32.1138 43.4515 28.8761 40.2157 28.8761 36.2234C28.8761 32.2312 32.1138 28.9954 36.1085 28.9954C37.8042 28.9954 39.3637 29.5785 40.5971 30.5548L34.9748 34.6773C34.1207 35.3035 33.9357 36.503 34.5615 37.3565H34.5623ZM36.1094 25.1516C29.9916 25.1516 25.0316 30.1085 25.0316 36.2226C25.0316 42.3367 29.9916 47.2936 36.1094 47.2936C42.2271 47.2936 47.1871 42.3367 47.1871 36.2226C47.1871 34.4616 46.7754 32.796 46.0426 31.3171L49.7177 28.6221C50.9776 30.87 51.6955 33.4621 51.6955 36.2218C51.6955 44.8251 44.7179 51.7993 36.1085 51.7993C27.4992 51.7993 20.5215 44.8259 20.5215 36.2218C20.5215 27.6176 27.4992 20.6442 36.1085 20.6442C40.4178 20.6442 44.4888 22.4027 47.446 25.5323L43.7709 28.2264C41.7814 26.3211 39.0815 25.1508 36.1085 25.1508L36.1094 25.1516Z" fill="var(--fill-0, #7A0005)"/>
</g>
</svg>
