<svg preserveAspectRatio="none" width="100%" height="100%" overflow="visible" style="display: block;" viewBox="0 0 94 73.5038" fill="none" xmlns="http://www.w3.org/2000/svg">
<g id="Frame 1593590797">
<path id="Vector" d="M25.8841 36.9566C25.3522 36.9543 23.3289 39.9596 22.9917 40.6292C22.2464 42.1086 23.082 42.6672 24.4726 43.1021C24.5733 42.6612 26.5705 39.8389 26.8607 39.5614C27.3852 38.4449 27.4829 36.9618 25.8841 36.9566Z" fill="var(--fill-0, #FFE6CC)"/>
<path id="Vector_2" d="M30.794 41.3974C29.2206 41.5496 26.8221 44.8781 27.1376 45.7614C27.5226 46.8381 28.6976 47.0256 29.6929 46.8434C30.1532 46.1753 33.7417 41.1125 30.794 41.3967V41.3974Z" fill="var(--fill-0, #FFE6CC)"/>
<path id="Vector_3" d="M36.1975 45.5016C34.4644 45.626 33.3924 47.5478 32.4688 48.89C32.5553 49.9397 33.3028 50.793 34.3749 50.871C34.8531 50.3169 39.3071 45.2781 36.1975 45.5008V45.5016Z" fill="var(--fill-0, #FFE6CC)"/>
<path id="Vector_4" d="M44.0998 53.6782C44.7847 53.8087 45.3547 53.4637 45.8105 52.9741C45.2719 52.6457 44.6601 52.2145 44.0215 51.6552C44.1699 51.8441 44.7384 52.5992 44.1006 53.6782H44.0998Z" fill="var(--fill-0, #FFE6CC)"/>
<path id="Vector_5" d="M39.2534 50.1993C39.1116 50.6034 37.618 52.3663 37.2793 52.7742C37.8515 53.7609 38.2663 54.1209 38.5909 54.0699C39.2996 53.9589 40.8186 51.5857 40.6276 50.7962C40.5425 50.4437 39.2989 50.0696 39.2526 50.1993H39.2534Z" fill="var(--fill-0, #FFE6CC)"/>
<path id="Vector_6" d="M62.1098 8.14954C61.9561 7.88185 61.5935 7.78062 61.3249 7.93209L55.687 11.2073C55.4207 11.3618 55.3199 11.7262 55.4706 11.9961L68.3058 34.3318C68.4594 34.5995 68.822 34.7007 69.0906 34.5492L74.7285 31.274C74.9949 31.1196 75.0956 30.7551 74.9449 30.4852L62.1098 8.14954Z" fill="var(--fill-0, #FFC799)"/>
<path id="Vector_7" d="M29.3106 11.0778L23.6726 7.80259C23.4041 7.65113 23.0415 7.75235 22.8878 8.02004L10.0527 30.3557C9.90198 30.6257 10.0027 30.9901 10.269 31.1445L15.9085 34.4167L15.907 34.4197C16.039 34.4947 16.1957 34.5075 16.3419 34.4685C16.4859 34.4295 16.6142 34.338 16.6918 34.2023L29.5269 11.8666C29.6776 11.5967 29.5769 11.2323 29.3106 11.0778Z" fill="var(--fill-0, #FFC799)"/>
<path id="Vector_8" d="M46.3664 26.5437L41.441 27.2373C39.1655 32.8295 34.8645 34.7325 29.1938 32.7162C28.2254 32.3721 27.6323 31.4468 28.0299 30.4121L31.8296 20.5174C31.9512 20.1995 32.1675 19.9146 32.4689 19.7091L34.0826 18.6114L30.95 16.3147L21.0215 33.598L22.4494 35.1839C24.6294 31.8322 30.5128 33.7113 30.6568 37.9373C33.3284 37.761 35.3666 39.4017 35.2957 42.1273C38.6172 41.5229 41.3276 43.6059 40.5532 47.0371C40.6852 47.0596 40.8165 47.0873 40.9463 47.1196C41.191 45.5599 43.2531 45.104 44.1066 46.4657C45.9718 49.426 48.0443 50.337 48.6046 50.5387C49.3723 50.5297 49.8579 49.6502 50.1161 49.0286C47.7593 47.5522 45.9165 46.1718 44.0126 44.1105C42.4675 42.4422 44.9922 40.0802 46.5373 41.7493C48.433 43.8016 50.2384 45.0441 52.5997 46.492C53.1078 46.4552 53.8583 46.378 54.3074 46.1291C51.3113 44.5702 48.9798 41.9938 46.9938 39.3049C45.6442 37.4754 48.4121 35.4126 49.7617 37.2422C51.6813 39.8403 54.0127 42.4564 57.1156 43.5894C58.457 43.9298 59.8178 42.0433 59.4499 40.5706C53.3144 37.081 49.9564 32.1254 46.3664 26.5445V26.5437Z" fill="var(--fill-0, #FFE6CC)"/>
<path id="Vector_9" d="M43.1204 16.6362L34.8467 22.2651L31.9199 29.8916C35.63 30.6204 37.4154 28.4444 38.5501 25.1062C38.7732 24.4456 39.3536 24.0077 40.0019 23.9387L46.9805 22.9565C47.778 22.8455 48.3465 23.2354 48.7539 23.8705C52.1462 29.1552 55.1856 33.8889 60.4222 37.1281L63.5899 33.0566L53.9979 16.3588L43.1204 16.637V16.6362Z" fill="var(--fill-0, #FFE6CC)"/>
<path id="Vector_10" d="M65.0947 6.41197C63.9861 4.48268 61.5256 3.82209 59.606 4.93558L53.9599 8.20779C52.3223 9.15857 51.565 11.1396 52.1455 12.9429L42.537 13.1881C42.17 13.1971 41.832 13.3208 41.5567 13.524L37.111 16.5481L32.666 13.2893C33.5523 11.3953 32.8443 9.12557 31.0389 8.07732L25.3927 4.8051C23.4739 3.69162 21.0127 4.35221 19.904 6.2815L7.0719 28.6262C5.96327 30.5562 6.62054 33.0276 8.54088 34.1426L14.187 37.4148C15.8052 38.3536 17.8539 38.0469 19.1281 36.6808L20.4889 38.1219C17.7628 41.9512 19.7033 45.3442 23.7634 46.5004C24.4706 49.0678 26.6759 50.4385 29.2573 50.3657C29.9123 52.5995 31.8909 54.1951 34.2089 54.3323C36.1113 57.6 38.6688 58.6003 41.559 56.3156C44.5581 58.2014 47.6893 56.7977 49.3582 53.9476C51.4703 53.6042 52.7945 51.7896 53.4779 49.8836C55.364 49.6594 57.1478 48.9036 57.9281 47.0283C61.3659 46.5664 63.6601 43.0865 62.7917 39.7018L65.4536 36.2796C66.0124 37.1269 66.8457 37.7005 67.7649 37.948C68.7549 38.2141 69.8501 38.1009 70.811 37.5438L76.4571 34.2716C78.3775 33.1573 79.0347 30.6852 77.9261 28.7551L65.094 6.41047L65.0947 6.41197ZM16.6915 34.2018C16.6139 34.3376 16.4856 34.429 16.3416 34.468C16.1954 34.5078 16.0387 34.4943 15.9067 34.4193L15.9082 34.4163L10.2687 31.1441C10.0024 30.9896 9.90168 30.6252 10.0524 30.3553L22.8875 8.01959C23.0412 7.7519 23.4038 7.65068 23.6723 7.80214L29.3103 11.0774C29.5766 11.2318 29.6773 11.5962 29.5266 11.8662L16.6915 34.2018ZM24.4729 43.1022C23.0822 42.6673 22.2466 42.1095 22.9919 40.6293C23.3292 39.9597 25.3524 36.9544 25.8844 36.9567C27.4832 36.9627 27.3855 38.4451 26.861 39.5616C26.5708 39.8382 24.5728 42.6606 24.4729 43.1022ZM29.693 46.8438C28.6978 47.026 27.5227 46.8386 27.1378 45.7618C26.8222 44.8785 29.2207 41.5493 30.7942 41.3979C33.7411 41.1137 30.1533 46.1765 29.693 46.8446V46.8438ZM34.376 50.8711C33.3039 50.7931 32.5563 49.9398 32.4698 48.8901C33.3942 47.5479 34.4655 45.6261 36.1986 45.5017C39.3081 45.279 34.8534 50.317 34.376 50.8719V50.8711ZM38.5942 54.0699C38.2696 54.1208 37.8541 53.7609 37.2826 52.7742C37.6213 52.3663 39.1149 50.6034 39.2566 50.1993C39.3022 50.0703 40.5466 50.4445 40.6316 50.7961C40.8219 51.5857 39.3029 53.9581 38.5949 54.0699H38.5942ZM44.0993 53.6777C44.7379 52.5995 44.1687 51.8436 44.0202 51.6547C44.6588 52.214 45.2706 52.6452 45.8092 52.9736C45.3534 53.4632 44.7842 53.8082 44.0985 53.6777H44.0993ZM57.1157 43.5866C54.0129 42.4544 51.6814 39.8375 49.7618 37.2394C48.4122 35.4098 45.6444 37.4726 46.994 39.3021C48.9807 41.991 51.3114 44.5674 54.3075 46.1262C53.8584 46.3752 53.1079 46.4524 52.5998 46.4892C50.2386 45.0413 48.4331 43.7995 46.5374 41.7465C44.9923 40.0774 42.4677 42.4394 44.0127 44.1077C45.9167 46.169 47.7594 47.5502 50.1162 49.0258C49.8581 49.6474 49.3724 50.527 48.6047 50.536C48.0444 50.3343 45.9726 49.4232 44.1067 46.4629C43.254 45.1012 41.1912 45.5571 40.9465 47.1168C40.8159 47.0845 40.6846 47.0568 40.5533 47.0343C41.3277 43.6039 38.6173 41.5201 35.2959 42.1245C35.3667 39.3989 33.3293 37.7582 30.6569 37.9345C30.5129 33.7085 24.6295 31.8294 22.4496 35.1811L21.0216 33.5952L30.9501 16.3119L34.0828 18.6086L32.4691 19.7063C32.1676 19.9118 31.9513 20.1967 31.8297 20.5146L28.03 30.4092C27.6324 31.444 28.2248 32.3693 29.1939 32.7134C34.8646 34.7297 39.1656 32.8267 41.4411 27.2345L46.3665 26.5409C49.9566 32.1218 53.3145 37.0774 59.4501 40.5671C59.8186 42.0397 58.4571 43.9263 57.1157 43.5859V43.5866ZM60.4244 37.1276C55.1871 33.8884 52.1477 29.1548 48.7562 23.8701C48.3481 23.235 47.7803 22.8451 46.9828 22.956L40.0042 23.9383C39.3559 24.008 38.7754 24.4452 38.5524 25.1058C37.4176 28.444 35.6323 30.6192 31.9222 29.8911L34.849 22.2647L43.1227 16.6358L54.0002 16.3576L63.5922 33.0554L60.4244 37.1269V37.1276ZM74.7293 31.2738L69.0913 34.549C68.8228 34.7005 68.4602 34.5992 68.3065 34.3316L55.4714 11.9959C55.3207 11.726 55.4214 11.3615 55.6877 11.2071L61.3257 7.93186C61.5942 7.78039 61.9568 7.88162 62.1105 8.14931L74.9456 30.485C75.0963 30.7549 74.9956 31.1193 74.7293 31.2738Z" fill="var(--fill-0, #7A0005)"/>
</g>
</svg>
