<svg preserveAspectRatio="none" width="100%" height="100%" overflow="visible" style="display: block;" viewBox="0 0 74 69.5151" fill="none" xmlns="http://www.w3.org/2000/svg">
<g id="Frame 1593590802">
<path id="Vector" fill-rule="evenodd" clip-rule="evenodd" d="M39.5854 10.6797C29.7523 10.6789 19.8125 19.0862 19.8125 29.4517C19.8125 39.8173 27.5734 48.2246 39.5854 48.2246C41.351 48.2246 45.0351 48.0232 46.6778 47.681L53.4261 52.1769V45.1724C58.2483 41.2619 61.3356 36.0398 61.3356 29.4509C61.3356 19.0845 51.938 10.6789 39.5854 10.6789V10.6797Z" fill="var(--fill-0, #FFC799)"/>
<path id="Vector_2" fill-rule="evenodd" clip-rule="evenodd" d="M45.4931 25.8851C37.9448 31.3162 31.9879 37.9231 27.8829 44.9079C31.0342 46.9993 34.9992 48.2255 39.5849 48.2255C41.3505 48.2255 45.0346 48.0241 46.6773 47.6819L53.4257 52.1778V45.1733C58.2479 41.2628 61.3352 36.0407 61.3352 29.4518C61.3352 25.5506 60.0033 21.9268 57.6844 18.9241C53.5341 20.7339 49.4308 23.0522 45.4931 25.8851Z" fill="var(--fill-0, #FF7B3F)"/>
<path id="Vector_3" fill-rule="evenodd" clip-rule="evenodd" d="M15.8586 29.2057C15.8586 28.6246 15.885 28.0486 15.9354 27.4795C14.0297 30.2646 12.9258 33.5061 12.9258 36.9747C12.9258 43.5628 16.8643 49.3471 22.8118 52.6962V59.699L29.5602 55.204C31.2037 55.5453 32.9104 55.7475 34.6761 55.7475C39.7971 55.7475 42.5181 54.2099 46.2355 51.6552C44.6995 51.9069 41.205 52.1783 39.5853 52.1783C25.3885 52.1783 15.8577 41.6199 15.8577 29.2065L15.8586 29.2057Z" fill="var(--fill-0, #FFE6CC)"/>
<path id="Vector_4" fill-rule="evenodd" clip-rule="evenodd" d="M26.043 48.3159C24.6684 51.0984 23.5849 53.9185 22.8105 56.7292V59.6986L29.5589 55.2035C31.2024 55.5448 32.9092 55.7471 34.6748 55.7471C39.7958 55.7471 42.5168 54.2095 46.2342 51.6548C44.6983 51.9065 41.2037 52.1778 39.5841 52.1778C34.3563 52.1778 29.7621 50.7452 26.043 48.3159Z" fill="var(--fill-0, #FFC799)"/>
<path id="Vector_5" fill-rule="evenodd" clip-rule="evenodd" d="M28.7113 26.4883C27.072 26.4883 25.7452 27.8151 25.7461 29.4517C25.7461 31.09 27.072 32.416 28.7113 32.416C30.3506 32.416 31.6774 31.0891 31.6774 29.4517C31.6774 27.8143 30.3506 26.4866 28.7113 26.4883Z" fill="var(--fill-0, #7A0005)"/>
<path id="Vector_6" fill-rule="evenodd" clip-rule="evenodd" d="M39.5839 6.72705C31.0776 6.72705 22.5244 11.9405 18.398 19.492C17.9754 19.7633 17.5015 20.0833 16.979 20.4519C12.0552 24.5468 8.96875 30.3157 8.96875 36.7272C8.96875 43.9203 12.8441 50.3045 18.8548 54.4215V62.5575C18.8548 64.2521 19.8768 64.9987 21.4366 64.0396L29.9378 58.809C31.4738 59.0599 33.0541 59.2058 34.6738 59.2058C41.1404 59.2058 45.6057 57.1042 49.6885 53.6544L53.5511 55.89C55.6667 57.1144 57.3786 56.6588 57.3786 54.0128V46.8991C62.5449 42.5022 65.2881 36.3979 65.2881 29.2056C65.2881 16.7914 53.7978 6.72705 39.5831 6.72705H39.5839ZM34.6746 55.7475C32.909 55.7475 31.2023 55.5453 29.5587 55.204L22.8104 59.699V52.6962C16.8629 49.3471 12.9235 43.5628 12.9244 36.9747C12.9244 33.5061 14.0274 30.2646 15.934 27.4795C15.8827 28.0495 15.8571 28.6254 15.8571 29.2056C15.8571 41.619 25.3871 52.1774 39.5848 52.1774C41.2044 52.1774 44.6981 51.9061 46.2349 51.6544C42.5175 54.2091 39.7965 55.7466 34.6755 55.7466L34.6746 55.7475ZM53.4247 45.1729V52.1774L46.6763 47.6815C45.0337 48.0237 41.3495 48.2251 39.5839 48.2251C27.572 48.2251 19.811 39.8203 19.811 29.4522C19.811 19.0841 29.7508 10.6786 39.5839 10.6803C51.9357 10.6803 61.3342 19.0858 61.3342 29.4522C61.3342 36.0412 58.2477 41.2632 53.4247 45.1738V45.1729Z" fill="var(--fill-0, #7A0005)"/>
<path id="Vector_7" fill-rule="evenodd" clip-rule="evenodd" d="M52.4387 26.4883C50.7994 26.4883 49.4727 27.8151 49.4727 29.4517C49.4727 31.0883 50.7994 32.416 52.4379 32.416C54.0763 32.416 55.4039 31.0891 55.4039 29.4517C55.4039 27.8143 54.0771 26.4866 52.4387 26.4883Z" fill="var(--fill-0, #7A0005)"/>
<path id="Vector_8" fill-rule="evenodd" clip-rule="evenodd" d="M40.5734 26.4883C38.9341 26.4883 37.6073 27.8151 37.6073 29.4517C37.6073 31.0883 38.9341 32.4159 40.5734 32.4159C42.2127 32.4159 43.5386 31.0891 43.5394 29.4517C43.5394 27.8151 42.2118 26.4866 40.5734 26.4883Z" fill="var(--fill-0, #7A0005)"/>
</g>
</svg>
