<svg preserveAspectRatio="none" width="100%" height="100%" overflow="visible" style="display: block;" viewBox="0 0 29.9006 7.77396" fill="none" xmlns="http://www.w3.org/2000/svg">
<g id="Group">
<path id="Vector" d="M14.5837 7.76036C11.6617 7.76036 8.83479 7.18954 6.1574 6.0615C4.34981 5.30042 2.63737 4.28112 1.1016 3.05794L2.37914 1.46779C3.779 2.58224 5.31476 3.49284 6.95925 4.19957C11.7976 6.23819 17.3834 6.23819 22.2218 4.19957C24.5594 3.20743 26.6524 1.79399 28.46 0L29.9006 1.44063C27.9163 3.42489 25.5923 4.98784 23.0236 6.07511C20.3598 7.20315 17.5194 7.77396 14.5973 7.77396L14.5837 7.76036Z" fill="var(--fill-0, #DB2500)"/>
<path id="Vector_2" d="M7.08084 2.31013L2.20171 2.63634L2.5279 7.50184L0.326188 5.57192L0 0.692814L4.87911 0.380252L7.08084 2.31013Z" fill="var(--fill-0, #DB2500)"/>
</g>
</svg>
