<svg preserveAspectRatio="none" width="100%" height="100%" overflow="visible" style="display: block;" viewBox="0 0 47.4864 25.3744" fill="none" xmlns="http://www.w3.org/2000/svg">
<g id="Group">
<path id="Vector" d="M43.8447 1.01954H2.84115C1.38499 1.01954 0.204527 2.2 0.204527 3.65617V22.7377C0.204527 24.1939 1.38499 25.3744 2.84115 25.3744H43.8447C45.3009 25.3744 46.4814 24.1939 46.4814 22.7377V3.65617C46.4814 2.2 45.3009 1.01954 43.8447 1.01954Z" fill="var(--fill-0, #FFF6F3)"/>
<path id="Vector_2" d="M46.5622 25.2382L45.0536 23.8655C45.3119 23.5937 45.4478 23.2267 45.4478 22.8462V3.54723C45.4478 2.71819 44.7682 2.03863 43.9392 2.03863H2.71817C2.26967 2.03863 1.84835 2.22889 1.56294 2.58225L0 1.27754C0.679542 0.462092 1.67167 0 2.71817 0H43.9392C45.8963 0 47.4864 1.59015 47.4864 3.54723V22.8462C47.4864 23.7296 47.1602 24.5858 46.5622 25.2382Z" fill="var(--fill-0, #DB2500)"/>
<path id="Vector_3" d="M23.2549 21.2835C18.7291 21.1883 15.1275 17.4509 15.2227 12.9251C15.3178 8.39936 19.0553 4.79778 23.581 4.89292C28.1068 4.98806 31.7084 8.72553 31.6132 13.2513C31.5181 17.777 27.7806 21.3786 23.2549 21.2835Z" fill="var(--fill-0, white)"/>
<path id="Vector_4" d="M36.1653 15.0589C34.9422 15.0317 33.9772 14.026 34.0043 12.8028C34.0315 11.5796 35.0373 10.6147 36.2604 10.6419C37.4836 10.669 38.4486 11.6747 38.4214 12.8979C38.3942 14.1211 37.3885 15.0861 36.1653 15.0589Z" fill="var(--fill-0, white)"/>
<path id="Vector_5" d="M10.0985 15.0589C8.87532 15.0317 7.91035 14.026 7.93753 12.8028C7.96472 11.5796 8.97044 10.6147 10.1936 10.6419C11.4168 10.669 12.3817 11.6747 12.3546 12.8979C12.3274 14.1211 11.3217 15.0861 10.0985 15.0589Z" fill="var(--fill-0, white)"/>
<path id="Vector_6" d="M23.432 22.3026C23.432 22.3026 23.3097 22.3026 23.2417 22.3026C20.7818 22.2482 18.4849 21.2425 16.7725 19.4757C15.06 17.6953 14.1494 15.3713 14.2038 12.9113C14.2989 7.82833 18.5393 3.77827 23.6087 3.87341C28.6916 3.96854 32.7417 8.19527 32.6466 13.2782C32.5514 18.2933 28.4334 22.3162 23.432 22.3162V22.3026ZM23.4184 5.91203C19.5314 5.91203 16.324 9.03792 16.2424 12.9521C16.2017 14.8684 16.9084 16.6896 18.2403 18.0759C19.5722 19.4621 21.3526 20.2368 23.2689 20.2776C25.1716 20.3319 27.0064 19.6116 28.3926 18.2797C29.7789 16.9478 30.5536 15.1674 30.5944 13.2511C30.6352 11.3348 29.9148 9.51361 28.5965 8.12735C27.2646 6.74108 25.4842 5.96641 23.5679 5.92564C23.5135 5.92564 23.4728 5.92564 23.4184 5.92564V5.91203Z" fill="var(--fill-0, #DB2500)"/>
<g id="Group_2">
<path id="Vector_7" d="M24.3144 17.2062H20.1284V15.1676H24.3144C24.6134 15.1676 24.8445 14.923 24.8445 14.6376C24.8445 14.3522 24.5998 14.1075 24.3144 14.1075H22.6427C21.2293 14.1075 20.0741 12.9523 20.0741 11.5388C20.0741 10.1254 21.2293 8.9702 22.6427 8.9702H26.7064V11.0088H22.6427C22.3437 11.0088 22.1127 11.2534 22.1127 11.5388C22.1127 11.8243 22.3573 12.0689 22.6427 12.0689H24.3144C25.7279 12.0689 26.8831 13.2241 26.8831 14.6376C26.8831 16.051 25.7279 17.2062 24.3144 17.2062Z" fill="var(--fill-0, #DB2500)"/>
<path id="Vector_8" d="M24.438 7.42066H22.3994V18.769H24.438V7.42066Z" fill="var(--fill-0, #DB2500)"/>
</g>
<path id="Vector_9" d="M38.1762 22.4795H34.0038V20.4408H37.619C38.0267 18.2527 39.7391 16.5538 41.9273 16.1325V10.0302C39.7391 9.62251 38.0403 7.91005 37.619 5.72192H34.6698V3.6833H38.2034C38.9373 3.6833 39.5217 4.24054 39.576 4.97444C39.6984 6.63253 41.0031 7.93725 42.6612 8.07315C43.3951 8.12752 43.9659 8.7255 43.9659 9.45941V16.6897C43.9659 17.4237 43.4087 18.0217 42.6612 18.076C41.0167 18.2119 39.712 19.503 39.576 21.1475C39.5217 21.895 38.9101 22.4659 38.1626 22.4659L38.1762 22.4795Z" fill="var(--fill-0, #DB2500)"/>
<path id="Vector_10" d="M12.3409 22.4798H8.16853C7.43463 22.4798 6.82305 21.909 6.7551 21.1615C6.61919 19.517 5.31446 18.2258 3.66997 18.0899C2.93606 18.0356 2.36526 17.4376 2.36526 16.7037V9.47334C2.36526 8.73944 2.92247 8.14145 3.66997 8.08709C5.30087 7.95118 6.63278 6.61928 6.7551 4.98838C6.80946 4.25447 7.40745 3.69723 8.12776 3.69723H11.6614V5.73586H8.71218C8.30445 7.92399 6.59201 9.62286 4.40389 10.0442V16.1465C6.59201 16.5542 8.29086 18.2666 8.71218 20.4548H12.3273V22.4934L12.3409 22.4798Z" fill="var(--fill-0, #DB2500)"/>
</g>
</svg>
