<svg preserveAspectRatio="none" width="100%" height="100%" overflow="visible" style="display: block;" viewBox="0 0 48.3154 26.3934" fill="none" xmlns="http://www.w3.org/2000/svg">
<g id="Group">
<path id="Vector" d="M44.6595 1.01931H3.65592C2.19975 1.01931 1.01931 2.19973 1.01931 3.6559V22.7375C1.01931 24.1936 2.19975 25.3741 3.65592 25.3741H44.6595C46.1157 25.3741 47.2961 24.1936 47.2961 22.7375V3.6559C47.2961 2.19973 46.1157 1.01931 44.6595 1.01931Z" fill="var(--fill-0, #FFF6F3)"/>
<path id="Vector_2" d="M16.1595 24.3547H11.5522V26.3933H16.1595V24.3547Z" fill="var(--fill-0, #DB2500)"/>
<path id="Vector_3" d="M44.6595 26.3934H19.7067V24.3548H44.6595C45.5565 24.3548 46.2768 23.6345 46.2768 22.7375V3.6559C46.2768 2.7589 45.5565 2.03863 44.6595 2.03863H3.65592C2.75892 2.03863 2.03863 2.7589 2.03863 3.6559V22.7375C2.03863 23.6345 2.75892 24.3548 3.65592 24.3548H7.33905V26.3934H3.65592C1.64447 26.3934 0 24.7489 0 22.7375V3.6559C0 1.64445 1.64447 0 3.65592 0H44.6595C46.6709 0 48.3154 1.64445 48.3154 3.6559V22.7375C48.3154 24.7489 46.6709 26.3934 44.6595 26.3934Z" fill="var(--fill-0, #DB2500)"/>
<path id="Vector_4" d="M24.0696 21.2832C19.5439 21.1881 15.9423 17.4506 16.0374 12.9249C16.1326 8.39913 19.8701 4.79755 24.3958 4.89269C28.9216 4.98782 32.5232 8.72534 32.428 13.2511C32.3329 17.7768 28.5954 21.3784 24.0696 21.2832Z" fill="var(--fill-0, white)"/>
<path id="Vector_5" d="M36.9801 15.0587C35.7569 15.0315 34.7919 14.0257 34.8191 12.8026C34.8463 11.5794 35.852 10.6145 37.0752 10.6416C38.2984 10.6688 39.2633 11.6745 39.2362 12.8977C39.209 14.1209 38.2032 15.0858 36.9801 15.0587Z" fill="var(--fill-0, white)"/>
<path id="Vector_6" d="M10.9133 15.0587C9.6901 15.0315 8.72514 14.0257 8.75232 12.8026C8.7795 11.5794 9.78523 10.6145 11.0084 10.6416C12.2316 10.6688 13.1965 11.6745 13.1693 12.8977C13.1422 14.1209 12.1365 15.0858 10.9133 15.0587Z" fill="var(--fill-0, white)"/>
<path id="Vector_7" d="M24.2461 22.3025C24.2461 22.3025 24.1238 22.3025 24.0559 22.3025C18.9729 22.2073 14.9228 17.9806 15.0179 12.8976C15.1131 7.81466 19.2855 3.751 24.4228 3.85973C29.5058 3.95486 33.5559 8.18159 33.4607 13.2646C33.3656 18.2796 29.2476 22.3025 24.2461 22.3025ZM24.2325 5.91192C22.3706 5.91192 20.6038 6.61864 19.2583 7.90977C17.872 9.24168 17.0973 11.0221 17.0566 12.9384C17.0158 14.8547 17.7225 16.6759 19.0544 18.0621C20.3863 19.4484 22.1667 20.2231 24.083 20.2638C25.9722 20.3182 27.8205 19.5843 29.2068 18.266C30.593 16.9341 31.3677 15.1537 31.4085 13.2374C31.4901 9.28247 28.337 5.99346 24.3684 5.91192C24.3141 5.91192 24.2733 5.91192 24.2189 5.91192H24.2325Z" fill="var(--fill-0, #DB2500)"/>
<g id="Group_2">
<path id="Vector_8" d="M25.1289 17.2063H20.9429V15.1677H25.1289C25.4279 15.1677 25.6589 14.9231 25.6589 14.6377C25.6589 14.3523 25.4143 14.1076 25.1289 14.1076H23.4572C22.0438 14.1076 20.8885 12.9524 20.8885 11.539C20.8885 10.1255 22.0438 8.97029 23.4572 8.97029H27.5209V11.0089H23.4572C23.1582 11.0089 22.9272 11.2536 22.9272 11.539C22.9272 11.8244 23.1718 12.069 23.4572 12.069H25.1289C26.5423 12.069 27.6975 13.2242 27.6975 14.6377C27.6975 16.0511 26.5423 17.2063 25.1289 17.2063Z" fill="var(--fill-0, #DB2500)"/>
<path id="Vector_9" d="M25.2658 7.42075H23.2271V18.7691H25.2658V7.42075Z" fill="var(--fill-0, #DB2500)"/>
</g>
<path id="Vector_10" d="M38.991 22.4792H34.8186V20.4406H38.4337C38.8415 18.2524 40.5539 16.5536 42.742 16.1323V10.03C40.5539 9.62224 38.8551 7.90982 38.4337 5.72169H35.4845V3.68307H39.0181C39.7384 3.68307 40.3365 4.24029 40.3908 4.96061C40.5131 6.63228 41.8178 7.93697 43.4759 8.07288C44.2234 8.14084 44.7806 8.73886 44.7806 9.45917V16.6895C44.7806 17.4234 44.2234 18.0214 43.4759 18.0758C41.8314 18.2117 40.5267 19.5028 40.3908 21.1473C40.3229 21.8948 39.7249 22.4656 38.9774 22.4656L38.991 22.4792Z" fill="var(--fill-0, #DB2500)"/>
<path id="Vector_11" d="M13.1557 22.4795H8.98334C8.24943 22.4795 7.63784 21.9087 7.56988 21.1612C7.43397 19.5167 6.12925 18.2256 4.48475 18.0897C3.73726 18.0217 3.18004 17.4237 3.18004 16.7034V9.47311C3.18004 8.7392 3.73726 8.14118 4.48475 8.08682C6.14284 7.95091 7.44756 6.64619 7.56988 4.98811C7.62424 4.2542 8.22223 3.697 8.94255 3.697H12.4762V5.73563H9.52697C9.11924 7.92375 7.4068 9.62259 5.21867 10.0439V16.1462C7.4068 16.5539 9.10565 18.2664 9.52697 20.4545H13.1421V22.4931L13.1557 22.4795Z" fill="var(--fill-0, #DB2500)"/>
</g>
</svg>
