<svg preserveAspectRatio="none" width="100%" height="100%" overflow="visible" style="display: block;" viewBox="0 0 29.8855 7.76717" fill="none" xmlns="http://www.w3.org/2000/svg">
<g id="Group">
<path id="Vector" d="M1.44063 7.76717L0 6.3265C1.98426 4.34224 4.30829 2.77933 6.87696 1.69206C12.2182 -0.56402 18.3884 -0.56402 23.7296 1.69206C25.5372 2.45315 27.236 3.47245 28.7854 4.69562L27.5079 6.28573C26.108 5.17128 24.5722 4.24713 22.9277 3.554C18.0894 1.51537 12.49 1.51537 7.66524 3.554C5.32761 4.54613 3.23463 5.95957 1.42704 7.75356L1.44063 7.76717Z" fill="var(--fill-0, #DB2500)"/>
<path id="Vector_2" d="M22.8046 5.42949L27.6838 5.11689L27.3576 0.237779L29.5593 2.16766L29.8855 7.04676L25.0064 7.37297L22.8046 5.42949Z" fill="var(--fill-0, #DB2500)"/>
</g>
</svg>
