<svg preserveAspectRatio="none" width="100%" height="100%" overflow="visible" style="display: block;" viewBox="0 0 47.4864 25.3606" fill="none" xmlns="http://www.w3.org/2000/svg">
<g id="Group">
<path id="Vector" d="M43.8311 1.00583H2.82752C1.37135 1.00583 0.190895 2.18629 0.190895 3.64246V22.724C0.190895 24.1801 1.37135 25.3606 2.82752 25.3606H43.8311C45.2873 25.3606 46.4677 24.1801 46.4677 22.724V3.64246C46.4677 2.18629 45.2873 1.00583 43.8311 1.00583Z" fill="var(--fill-0, #FFF6F3)"/>
<path id="Vector_2" d="M46.5622 25.2246L45.0536 23.852C45.3119 23.5801 45.4478 23.2132 45.4478 22.8326V3.53363C45.4478 2.70459 44.7683 2.02506 43.9392 2.02506H2.71817C2.26967 2.02506 1.84837 2.21533 1.56296 2.56869L0 1.26398C0.679542 0.46212 1.67167 0 2.71817 0H43.9392C45.8963 0 47.4864 1.59015 47.4864 3.54723V22.8462C47.4864 23.7432 47.1602 24.5858 46.5622 25.2382V25.2246Z" fill="var(--fill-0, #DB2500)"/>
<path id="Vector_3" d="M23.2545 21.2558C18.7287 21.1607 15.1272 17.4232 15.2223 12.8975C15.3174 8.37172 19.0549 4.77014 23.5807 4.86527C28.1064 4.96041 31.708 8.69788 31.6129 13.2236C31.5177 17.7494 27.7802 21.351 23.2545 21.2558Z" fill="var(--fill-0, white)"/>
<path id="Vector_4" d="M36.1649 15.0445C34.9417 15.0173 33.9768 14.0116 34.004 12.7884C34.0312 11.5653 35.0369 10.6003 36.26 10.6275C37.4832 10.6547 38.4482 11.6604 38.421 12.8836C38.3938 14.1068 37.3881 15.0717 36.1649 15.0445Z" fill="var(--fill-0, white)"/>
<path id="Vector_5" d="M10.0848 15.0445C8.86166 15.0173 7.89672 14.0116 7.9239 12.7884C7.95108 11.5653 8.95681 10.6003 10.18 10.6275C11.4032 10.6547 12.3681 11.6604 12.3409 12.8836C12.3137 14.1068 11.308 15.0717 10.0848 15.0445Z" fill="var(--fill-0, white)"/>
<path id="Vector_6" d="M23.4177 22.2889C23.4177 22.2889 23.2954 22.2889 23.2274 22.2889C18.1445 22.1938 14.0944 17.967 14.1895 12.884C14.2846 7.80106 18.4706 3.72382 23.5944 3.84614C26.0543 3.9005 28.3512 4.9062 30.05 6.67301C31.7489 8.45341 32.6731 10.7775 32.6187 13.2374C32.5236 18.2524 28.4055 22.2753 23.4041 22.2753L23.4177 22.2889ZM23.4177 5.88476C21.5558 5.88476 19.7889 6.59149 18.4435 7.88262C17.0572 9.21452 16.2825 10.9949 16.2417 12.9112C16.201 14.8275 16.9077 16.6487 18.2396 18.035C19.5715 19.4212 21.3519 20.1959 23.2682 20.2367C25.1573 20.2775 27.0057 19.5707 28.3919 18.2388C29.7782 16.9069 30.5529 15.1265 30.5937 13.2102C30.6344 11.2939 29.9141 9.47274 28.5958 8.08647C27.2639 6.70021 25.4835 5.92553 23.5672 5.88476C23.5128 5.88476 23.4721 5.88476 23.4177 5.88476Z" fill="var(--fill-0, #DB2500)"/>
<g id="Group_2">
<path id="Vector_7" d="M24.3137 17.1921H20.1277V15.1535H24.3137C24.6127 15.1535 24.8437 14.9088 24.8437 14.6234C24.8437 14.338 24.5991 14.0934 24.3137 14.0934H22.642C21.2286 14.0934 20.0734 12.9381 20.0734 11.5247C20.0734 10.1113 21.2286 8.95601 22.642 8.95601H26.7057V10.9946H22.642C22.343 10.9946 22.112 11.2393 22.112 11.5247C22.112 11.8101 22.3566 12.0548 22.642 12.0548H24.3137C25.7271 12.0548 26.8824 13.21 26.8824 14.6234C26.8824 16.0369 25.7271 17.1921 24.3137 17.1921Z" fill="var(--fill-0, #DB2500)"/>
<path id="Vector_8" d="M24.4373 7.3932H22.3987V18.7416H24.4373V7.3932Z" fill="var(--fill-0, #DB2500)"/>
</g>
<path id="Vector_9" d="M38.1626 22.4657H33.9902V20.4271H37.6189C38.0402 18.239 39.7391 16.5401 41.9272 16.1188V10.0165C39.7391 9.6088 38.0402 7.89634 37.6189 5.70821H34.6697V3.66959H38.2033C38.9372 3.66959 39.5216 4.22683 39.576 4.96073C39.6983 6.59163 41.0302 7.92353 42.6611 8.05944C43.4086 8.1274 43.9658 8.72538 43.9658 9.44569V16.676C43.9658 17.4099 43.4086 18.0079 42.6611 18.0623C41.0166 18.1982 39.7119 19.4893 39.576 21.1338C39.5216 21.8813 38.91 22.4385 38.1626 22.4385V22.4657Z" fill="var(--fill-0, #DB2500)"/>
<path id="Vector_10" d="M12.3273 22.4654H8.1549C7.421 22.4654 6.80942 21.9082 6.74146 21.1607C6.60555 19.5162 5.30083 18.2115 3.65634 18.0756C2.90884 18.0076 2.35163 17.4096 2.35163 16.6893V9.45897C2.35163 8.72506 2.90884 8.12704 3.65634 8.07267C5.28724 7.93677 6.61914 6.60487 6.74146 4.97396C6.79583 4.24006 7.39382 3.68286 8.11413 3.68286H11.6478V5.72149H8.69855C8.29082 7.90961 6.57838 9.60844 4.39025 10.0298V16.1321C6.57838 16.5398 8.27723 18.2522 8.69855 20.4404H12.3137V22.479L12.3273 22.4654Z" fill="var(--fill-0, #DB2500)"/>
</g>
</svg>
